<svg width="43" height="43" viewBox="0 0 43 43" fill="none" xmlns="http://www.w3.org/2000/svg">
<g clip-path="url(#clip0)">
<path d="M21.4992 41.9035C33.0705 41.9035 42.4509 32.5231 42.4509 20.9517C42.4509 9.38041 33.0705 0 21.4992 0C9.92784 0 0.547424 9.38041 0.547424 20.9517C0.547424 32.5231 9.92784 41.9035 21.4992 41.9035Z" fill="#44D7B6"/>
<path d="M22.0931 41.8946C26.2044 41.7803 30.264 40.4647 33.7458 37.952C38.117 34.7976 41.1449 30.0636 42.1146 24.7088C42.121 24.6736 42.1272 24.6384 42.1334 24.6031C43.303 17.95 41.2219 11.1859 36.5261 6.35336C36.526 6.35328 36.5259 6.35328 36.5259 6.3532C38.2872 9.47451 35.2911 12.876 32.0884 11.809L25.5071 9.61624C24.0638 9.13537 22.5035 9.13537 21.0603 9.61624L6.22391 14.5592C5.4661 14.8117 5.46703 15.8839 6.22526 16.1351L8.47274 16.8795L10.8374 17.6628V29.8242L17.1176 30.7338C21.4712 31.3643 20.9376 36.9451 16.557 36.5445C16.5088 36.5401 16.4607 36.5356 16.4125 36.5311C13.6426 36.2695 12.8752 40.1881 15.4887 41.0269C17.6073 41.6603 19.7853 41.9468 21.9799 41.8973C22.0176 41.8966 22.0554 41.8956 22.0931 41.8946Z" fill="#1FAA8B"/>
<path d="M12.7114 18.4599L13.3815 35.9756C15.5409 36.5072 18.3206 36.8271 21.3537 36.8271C28.2275 36.8271 33.7999 35.1843 33.7999 33.1579V18.4599H12.7114Z" fill="#265CDE"/>
<path d="M8.90753 18.4599V33.1578C8.90753 34.29 10.6474 35.3023 13.3814 35.9754V27.3541C13.3814 25.7598 14.9418 24.633 16.4552 25.1344L19.848 26.2583C20.917 26.6124 22.0722 26.6099 23.1397 26.2511L28.217 24.5446C29.8872 23.9831 31.6156 25.2257 31.6156 26.9877V35.2342C32.9929 34.6437 33.7997 33.9286 33.7997 33.1579V22.668V18.4599H8.90753Z" fill="#0037BD"/>
<path d="M19.8478 24.6205L6.54272 20.2131L18.8946 14.8983L25.9603 13.7438L38.4304 17.8985C39.1864 18.1504 39.1879 19.2193 38.4325 19.4732L23.1397 24.6133C22.0722 24.9722 20.917 24.9747 19.8478 24.6205Z" fill="#05CDFF"/>
<path d="M23.0376 23.7663L13.9946 20.7707C12.6146 20.3136 12.6017 18.3661 13.9755 17.8907L25.9602 13.7439L23.5769 12.9498C22.1336 12.469 20.5734 12.469 19.1301 12.9498L4.29391 17.8927C3.5361 18.1452 3.53703 19.2174 4.29527 19.4686L6.54274 20.213L19.8479 24.6204C20.917 24.9745 22.0722 24.9721 23.1397 24.6132L24.8886 24.0254C24.2649 24.0514 23.6377 23.965 23.0376 23.7663Z" fill="#05ACFF"/>
<path d="M30.7192 43C30.1136 43 29.6227 42.5091 29.6227 41.9035V22.836L20.9815 19.719C20.4118 19.5136 20.1166 18.8852 20.3221 18.3155C20.5275 17.7457 21.1559 17.4505 21.7256 17.656L31.0912 21.0342C31.526 21.191 31.8157 21.6035 31.8157 22.0656V41.9034C31.8158 42.509 31.3248 43 30.7192 43Z" fill="#FFDC64"/>
<path d="M28.461 20.8556C28.461 20.3934 28.1712 19.9809 27.7365 19.8241L21.7258 17.656C21.156 17.4505 20.5276 17.7457 20.3222 18.3155C20.1167 18.8852 20.412 19.5136 20.9816 19.719L26.9925 21.8872C27.7071 22.1449 28.461 21.6155 28.461 20.8556Z" fill="#FFF5AA"/>
</g>
<defs>
<clipPath id="clip0">
<rect width="43" height="43" fill="white"/>
</clipPath>
</defs>
</svg>
