<svg width="119" height="19" viewBox="0 0 119 19" fill="none" xmlns="http://www.w3.org/2000/svg">
<path d="M37.4594 9.4929C37.4594 10.0612 37.4351 10.5077 37.3863 10.8324H28.8622C29.1544 12.4074 30.1367 13.1948 31.8091 13.1948C32.6859 13.1948 33.3029 12.9756 33.6601 12.5373H37.1915C36.8018 13.6251 36.1199 14.4775 35.1457 15.0945C34.1878 15.6953 33.0674 15.9956 31.7847 15.9956C29.95 15.9956 28.4563 15.4192 27.3035 14.2664C26.1669 13.1136 25.5986 11.6605 25.5986 9.90694C25.5986 8.15339 26.1588 6.70022 27.2791 5.54743C28.3994 4.3784 29.8364 3.79389 31.5899 3.79389C33.311 3.79389 34.7154 4.32157 35.8033 5.37695C36.9074 6.41608 37.4594 7.78807 37.4594 9.4929ZM31.6143 6.49727C30.1692 6.49727 29.2762 7.21979 28.9352 8.66484H34.2202C34.0579 7.21979 33.1892 6.49727 31.6143 6.49727Z" fill="black"/>
<path d="M49.2134 3.79389C50.7721 3.79389 52.0142 4.30534 52.9397 5.32824C53.8814 6.3349 54.3523 7.69065 54.3523 9.39549V15.7034H51.1618V9.59032C51.1618 8.64861 50.9345 7.9342 50.4799 7.4471C50.0253 6.94377 49.3758 6.6921 48.5315 6.6921C47.5898 6.6921 46.6968 7.18732 45.8525 8.17775V15.7034H42.662V4.08614H45.8525V4.96292C46.8267 4.18356 47.947 3.79389 49.2134 3.79389Z" fill="black"/>
<path d="M62.3074 11.6848C62.486 12.8376 63.3222 13.414 64.8159 13.414C66.196 13.414 66.8861 13.0893 66.8861 12.4398C66.8861 11.9203 66.4883 11.5874 65.6927 11.4413L63.1841 11.0029C62.1937 10.8405 61.3738 10.4833 60.7243 9.93129C60.0748 9.37925 59.7501 8.5999 59.7501 7.59323C59.7501 6.40797 60.2047 5.47437 61.114 4.79243C62.0232 4.1105 63.2247 3.76953 64.7185 3.76953C67.9333 3.76953 69.6463 5.07657 69.8573 7.69065H66.9104C66.8455 6.76517 66.1148 6.30243 64.7185 6.30243C63.517 6.30243 62.9162 6.62716 62.9162 7.27662C62.9162 7.87737 63.3952 8.25893 64.3532 8.42129L66.4477 8.76226C68.7695 9.16817 69.9304 10.2966 69.9304 12.1476C69.9304 13.3978 69.4514 14.3557 68.4935 15.0214C67.5355 15.6709 66.2853 15.9956 64.7428 15.9956C64.0609 15.9956 63.4277 15.9226 62.8432 15.7764C62.2587 15.6465 61.7066 15.4274 61.187 15.1189C60.6675 14.7941 60.2453 14.3395 59.9206 13.755C59.6121 13.1705 59.4254 12.4723 59.3604 11.6605L62.3074 11.6848Z" fill="black"/>
<path d="M83.7244 4.08614H87.1097L81.8003 15.7034H79.0239L73.7145 4.08614H77.0999L80.4121 11.6118L83.7244 4.08614Z" fill="black"/>
<path d="M102.259 9.4929C102.259 10.0612 102.235 10.5077 102.186 10.8324H93.662C93.9543 12.4074 94.9366 13.1948 96.609 13.1948C97.4858 13.1948 98.1027 12.9756 98.4599 12.5373H101.991C101.602 13.6251 100.92 14.4775 99.9456 15.0945C98.9876 15.6953 97.8673 15.9956 96.5846 15.9956C94.7499 15.9956 93.2561 15.4192 92.1033 14.2664C90.9668 13.1136 90.3985 11.6605 90.3985 9.90694C90.3985 8.15339 90.9587 6.70022 92.079 5.54743C93.1993 4.3784 94.6362 3.79389 96.3898 3.79389C98.1109 3.79389 99.5153 4.32157 100.603 5.37695C101.707 6.41608 102.259 7.78807 102.259 9.4929ZM96.4141 6.49727C94.9691 6.49727 94.0761 7.21979 93.7351 8.66484H99.0201C98.8577 7.21979 97.9891 6.49727 96.4141 6.49727Z" fill="black"/>
<path d="M119 9.4929C119 10.0612 118.976 10.5077 118.927 10.8324H110.403C110.695 12.4074 111.678 13.1948 113.35 13.1948C114.227 13.1948 114.844 12.9756 115.201 12.5373H118.732C118.343 13.6251 117.661 14.4775 116.687 15.0945C115.729 15.6953 114.608 15.9956 113.326 15.9956C111.491 15.9956 109.997 15.4192 108.844 14.2664C107.708 13.1136 107.14 11.6605 107.14 9.90694C107.14 8.15339 107.7 6.70022 108.82 5.54743C109.94 4.3784 111.377 3.79389 113.131 3.79389C114.852 3.79389 116.256 4.32157 117.344 5.37695C118.448 6.41608 119 7.78807 119 9.4929ZM113.155 6.49727C111.71 6.49727 110.817 7.21979 110.476 8.66484H115.761C115.599 7.21979 114.73 6.49727 113.155 6.49727Z" fill="black"/>
<path fill-rule="evenodd" clip-rule="evenodd" d="M8.06666 2.54541C3.59694 2.63128 0 6.28143 0 10.7717C0 15.3158 3.68372 18.9995 8.22782 18.9995C12.7719 18.9995 16.4556 15.3158 16.4556 10.7717C16.4556 10.7182 16.4551 10.6648 16.4541 10.6115H14.195C14.1964 10.6648 14.1971 10.7183 14.1971 10.7719C14.1971 14.0686 11.5246 16.7411 8.22789 16.7411C4.93119 16.7411 2.25869 14.0686 2.25869 10.7719C2.25869 7.52909 4.8445 4.89026 8.06666 4.80481V2.54541Z" fill="url(#paint0_linear)"/>
<path fill-rule="evenodd" clip-rule="evenodd" d="M13.5102 3.38448C10.3182 5.20861 7.42015 6.86473 5.96722 8.10755C5.0773 8.86879 3.67436 10.9459 5.182 13.1643C6.68963 15.3828 9.36989 14.3062 10.5216 13.4906C11.8928 12.4446 13.4116 9.4037 15.1063 6.01064C15.9422 4.33713 16.8208 2.57794 17.7456 0.930176C16.3413 1.76659 14.898 2.59142 13.5102 3.38448ZM11.9383 6.73779C10.0581 7.82812 7.85594 9.18679 7.34183 9.64292C6.99454 9.95104 6.44705 10.7918 7.0354 11.6897C7.62374 12.5877 8.6697 12.1519 9.11913 11.8218C9.68101 11.409 10.7411 9.2151 11.7317 7.165C11.801 7.02168 11.8699 6.87905 11.9383 6.73779Z" fill="url(#paint1_linear)"/>
<defs>
<linearGradient id="paint0_linear" x1="16.4556" y1="10.7725" x2="0" y2="10.7725" gradientUnits="userSpaceOnUse">
<stop stop-color="#44D7B6"/>
<stop offset="1" stop-color="#3BB0EA"/>
</linearGradient>
<linearGradient id="paint1_linear" x1="17.7456" y1="7.70603" x2="4.5166" y2="7.70603" gradientUnits="userSpaceOnUse">
<stop stop-color="#44D7B6"/>
<stop offset="1" stop-color="#3BB0EA"/>
</linearGradient>
</defs>
</svg>
