<svg width="840" height="136" viewBox="0 0 840 136" fill="none" xmlns="http://www.w3.org/2000/svg">
<rect width="840" height="136" rx="14" transform="matrix(1 0 0 -1 0 136)" fill="url(#paint0_linear)"/>
<mask id="mask0" mask-type="alpha" maskUnits="userSpaceOnUse" x="0" y="0" width="840" height="136">
<rect x="0.5" y="-0.5" width="839" height="135" rx="13.5" transform="matrix(1 0 0 -1 0 135)" fill="url(#paint1_linear)" stroke="#D4D5DA"/>
</mask>
<g mask="url(#mask0)">
<path d="M595.113 68.6721C467.664 20.1852 147.025 -2.59792 2.63609 -7.92862C-65.8279 46.3639 -137.188 158.255 125.081 171.478C452.918 188.008 1283.7 143.257 1161.26 135.194C1038.81 127.131 754.423 129.281 595.113 68.6721Z" fill="url(#paint2_linear)"/>
<path d="M398.934 66.3875C250.42 38.5424 -84.2637 18.4112 -233.041 11.8262L-151.411 134.119L575.36 154.142C804.89 144.108 1213.13 123.368 1009.84 120.68C755.736 117.32 584.576 101.194 398.934 66.3875Z" fill="url(#paint3_linear)"/>
</g>
<defs>
<linearGradient id="paint0_linear" x1="840" y1="13.4387" x2="827.362" y2="191.423" gradientUnits="userSpaceOnUse">
<stop stop-color="#E071F2"/>
<stop offset="1" stop-color="#FE8999"/>
</linearGradient>
<linearGradient id="paint1_linear" x1="840" y1="13.4387" x2="827.362" y2="191.423" gradientUnits="userSpaceOnUse">
<stop stop-color="#E071F2"/>
<stop offset="1" stop-color="#FE8999"/>
</linearGradient>
<linearGradient id="paint2_linear" x1="1173.47" y1="83.5922" x2="-60.9268" y2="83.5922" gradientUnits="userSpaceOnUse">
<stop stop-color="#E782F8"/>
<stop offset="1" stop-color="#FF94A2"/>
</linearGradient>
<linearGradient id="paint3_linear" x1="1064.91" y1="82.9843" x2="-233.041" y2="82.9843" gradientUnits="userSpaceOnUse">
<stop stop-color="#EEA0FB"/>
<stop offset="1" stop-color="#FF9EAC"/>
</linearGradient>
</defs>
</svg>
