<svg width="42" height="42" viewBox="0 0 42 42" fill="none" xmlns="http://www.w3.org/2000/svg">
<path d="M20.9998 1.80418C9.90007 1.80418 0.901978 10.8023 0.901978 21.902C0.901978 30.4436 6.23097 37.7396 13.7451 40.6494H28.2544C35.7686 37.7396 41.0976 30.4436 41.0976 21.902C41.0977 10.8023 32.0995 1.80418 20.9998 1.80418Z" fill="#E80054"/>
<path d="M23.655 28.4588C23.1027 27.9271 22.2751 26.9192 22.1824 25.5884C21.8276 25.7702 21.4259 25.8735 20.9999 25.8735C20.9393 25.8735 20.8795 25.8709 20.8201 25.8668V34.4575C20.88 34.4558 20.9396 34.4528 20.9999 34.4528C21.8876 34.4528 22.732 34.6374 23.4976 34.9696L24.0723 29.6148C24.1184 29.1856 23.966 28.7582 23.655 28.4588Z" fill="#FFDD40"/>
<path d="M23.4976 34.9696L24.0723 29.6148C24.0724 29.6144 24.0724 29.6139 24.0724 29.6135C24.0722 29.6138 24.072 29.6141 24.0718 29.6144C23.1728 31.112 22.0253 30.8372 21.4189 30.5385C21.2313 30.4461 21.0215 30.4147 20.8201 30.4484V34.4574C20.88 34.4557 20.9395 34.4528 20.9999 34.4528C21.8875 34.4529 22.7321 34.6374 23.4976 34.9696Z" fill="#FFB332"/>
<path d="M19.8165 25.5884C19.7239 26.9192 18.8964 27.9272 18.3441 28.459C18.0332 28.7584 17.8808 29.1858 17.9269 29.6149L18.5022 34.9697C19.2677 34.6374 20.1121 34.4527 20.9998 34.4527L20.999 25.8733C20.573 25.8734 20.1713 25.7702 19.8165 25.5884Z" fill="#FFB332"/>
<path d="M20.9998 34.4526L20.9994 30.4344C20.8565 30.4309 20.7132 30.4592 20.5805 30.5216C18.9327 31.2959 17.9269 29.6149 17.9269 29.6149L18.5022 34.9696C19.2677 34.6374 20.1121 34.4527 20.9998 34.4526Z" fill="#FF9100"/>
<path d="M18.6855 22.2797C18.5054 22.6331 18.4032 23.0328 18.4032 23.4567C18.4032 24.8907 19.5657 26.0533 20.9998 26.0533C22.4339 26.0533 23.5964 24.8907 23.5964 23.4567C23.5964 23.0328 23.4942 22.6331 23.3141 22.2796C21.8986 23.1213 20.1015 23.1217 18.6855 22.2797Z" fill="#FFDD40"/>
<path d="M26.0424 36.8083C24.8974 35.2698 23.0653 34.2729 21 34.2729C18.9347 34.2729 17.1025 35.2698 15.9575 36.8083H26.0424Z" fill="#FFDD40"/>
<path d="M22.3242 34.413C21.8972 34.3213 21.4542 34.273 20.9998 34.273C18.9346 34.273 17.1024 35.2699 15.9574 36.8084H22.0736C21.3139 36.2053 21.3757 34.8389 22.3242 34.413Z" fill="#FFB332"/>
<path d="M10.8867 3.02596C10.8851 3.02596 10.8835 3.02571 10.882 3.02571C10.9054 6.97412 11.6924 15.9794 17.9014 21.8677C19.6235 23.5008 22.3775 23.4996 24.0984 21.8677C30.3073 15.9796 31.0944 6.97453 31.1179 3.02596H10.8867Z" fill="#FFDD40"/>
<path d="M16.8565 9.41258C16.5441 7.0906 18.3405 5.02292 20.6834 5.02301L31.0461 5.02309C31.095 4.26889 31.1145 3.59476 31.1179 3.02596H10.8867C10.8851 3.02596 10.8835 3.02571 10.882 3.02571C10.9054 6.97412 11.6924 15.9794 17.9014 21.8677C19.1664 23.0673 20.9879 23.3839 22.548 22.8212C18.8553 18.7216 17.4026 13.4721 16.8565 9.41258Z" fill="#FFB332"/>
<path d="M31.1157 3.20587H10.8839C10.2135 3.20587 9.67004 2.66242 9.67004 1.99197C9.67004 1.32153 10.2135 0.778076 10.8839 0.778076H31.1157C31.7862 0.778076 32.3296 1.32153 32.3296 1.99197C32.3297 2.66233 31.7862 3.20587 31.1157 3.20587Z" fill="#FFE98D"/>
<path d="M16.7635 1.99188C16.7635 1.32143 17.3069 0.777977 17.9773 0.777977H10.8839C10.2135 0.777977 9.67004 1.32143 9.67004 1.99188C9.67004 2.66232 10.2135 3.20578 10.8839 3.20578H17.9773C17.3069 3.20586 16.7635 2.66232 16.7635 1.99188Z" fill="#FFDD40"/>
<path d="M15.0437 23.5858C14.6249 23.319 14.5016 22.7632 14.7683 22.3443C15.3117 21.4913 14.6686 20.2896 13.5891 20.2896C13.5757 20.2896 13.5623 20.2899 13.5488 20.2902L13.5263 20.2908C12.6692 20.3147 11.8254 19.981 11.2128 19.3755C4.50762 12.7481 2.53157 6.57136 1.95038 3.47935C1.61741 1.70781 2.94099 0.0512673 4.74871 0.0010642C6.19943 -0.0379827 7.47535 1.00947 7.71964 2.44043L7.73252 2.51483C7.8933 3.42316 8.71771 4.08917 9.65139 4.06284L10.7041 4.03364C11.199 4.02174 11.6142 4.41115 11.6279 4.90752C11.6416 5.40397 11.2504 5.81757 10.754 5.83135L9.70127 5.86056C7.88542 5.91256 6.27638 4.60728 5.96154 2.82794L5.94686 2.7437C5.8522 2.18925 5.36124 1.78557 4.7985 1.79878C4.08623 1.81863 3.59076 2.47144 3.71774 3.14721C4.26022 6.03299 6.11937 11.8125 12.477 18.0964C12.7424 18.3588 13.1091 18.5039 13.4766 18.493L13.4991 18.4925C16.0741 18.4214 17.5921 21.2585 16.2852 23.3104C16.0181 23.7298 15.4621 23.8522 15.0437 23.5858Z" fill="#FFDD40"/>
<path d="M27.3842 36.6285H14.6154C14.0219 36.6285 13.5364 37.114 13.5364 37.7075V40.5674C14.1137 40.7985 14.7042 41.0035 15.3064 41.1812H26.6931C27.2954 41.0035 27.8859 40.7985 28.4632 40.5674V37.7075C28.4632 37.1141 27.9777 36.6285 27.3842 36.6285Z" fill="#A05838"/>
<path d="M13.5364 37.7075V40.5673C14.1137 40.7984 14.7042 41.0035 15.3064 41.1812H20.8232V40.6503C20.8232 40.2217 21.0951 39.9202 21.3231 39.7427C21.4646 39.6325 21.5056 39.4347 21.4228 39.2756C21.2258 38.8968 21.3903 38.5563 21.5292 38.3647C21.6073 38.257 21.6156 38.1164 21.5615 37.9949C21.3228 37.4598 21.5174 37.1046 21.7479 36.8909C21.8249 36.8194 21.8627 36.7242 21.8642 36.6284H14.6153C14.0219 36.6285 13.5364 37.1141 13.5364 37.7075Z" fill="#823C26"/>
<path d="M25.478 38.8765H16.5216C16.1642 38.8765 15.8744 39.1663 15.8744 39.5237V41.3393C17.5107 41.7697 19.2283 41.9999 20.9999 41.9999C22.7714 41.9999 24.4889 41.7697 26.1253 41.3393V39.5237C26.1253 39.1663 25.8355 38.8765 25.478 38.8765Z" fill="#E9EFFF"/>
<path d="M21.3232 39.7428C21.4647 39.6326 21.5057 39.4348 21.4229 39.2757C21.35 39.1355 21.3268 39.0006 21.3333 38.8765H16.5216C16.1642 38.8765 15.8744 39.1663 15.8744 39.5237V41.3393C17.4563 41.7554 19.1143 41.9836 20.8233 41.9985V40.6503C20.8232 40.2217 21.0951 39.9203 21.3232 39.7428Z" fill="#D3DCFB"/>
<path d="M25.4781 38.2021H16.5216C15.7928 38.2021 15.2 38.7949 15.2 39.5237V41.1488C15.6434 41.2823 16.093 41.4012 16.5488 41.5043V39.5508H25.4508V41.5043C25.9066 41.4012 26.3562 41.2822 26.7997 41.1487V39.5236C26.7997 38.7949 26.2068 38.2021 25.4781 38.2021Z" fill="#D3DCFB"/>
<path d="M21.4228 39.2756C21.2259 38.8968 21.3904 38.5564 21.5292 38.3648C21.5648 38.3158 21.5852 38.2598 21.5925 38.2021H16.5216C15.7928 38.2021 15.2 38.7949 15.2 39.5237V41.1488C15.6433 41.2823 16.093 41.4012 16.5487 41.5043V39.5508H21.45C21.4752 39.4613 21.4682 39.3628 21.4228 39.2756Z" fill="#BEC8F7"/>
<path d="M21.5546 25.2489C22.0492 25.2489 22.4501 24.848 22.4501 24.3534C22.4501 23.8589 22.0492 23.458 21.5546 23.458C21.0601 23.458 20.6592 23.8589 20.6592 24.3534C20.6592 24.848 21.0601 25.2489 21.5546 25.2489Z" fill="#FFE98D"/>
<path d="M22.6856 10.869C23.1802 10.869 23.5811 10.4681 23.5811 9.97351C23.5811 9.47896 23.1802 9.07806 22.6856 9.07806C22.1911 9.07806 21.7902 9.47896 21.7902 9.97351C21.7902 10.4681 22.1911 10.869 22.6856 10.869Z" fill="#FFE98D"/>
<path d="M25.6781 9.69166C26.5644 9.69166 27.283 8.97314 27.283 8.0868C27.283 7.20046 26.5644 6.48194 25.6781 6.48194C24.7918 6.48194 24.0732 7.20046 24.0732 8.0868C24.0732 8.97314 24.7918 9.69166 25.6781 9.69166Z" fill="#FFE98D"/>
<path d="M4.47846 1.47361C4.47846 1.61815 4.45024 1.75588 4.40069 1.88286C4.52267 1.83307 4.65597 1.8028 4.79846 1.79886C5.3612 1.78565 5.85215 2.18933 5.94682 2.74378L5.9615 2.82803C6.27634 4.60737 7.8853 5.91265 9.70123 5.86064L10.7539 5.83143C11.2504 5.81765 11.6416 5.40405 11.6278 4.9076C11.6141 4.41123 11.199 4.02183 10.7041 4.03372L9.65135 4.06292C8.71767 4.08917 7.89326 3.42324 7.73247 2.51491L7.7196 2.44051C7.47531 1.00947 6.19939 -0.0379827 4.74867 0.0010642C4.27141 0.0143533 3.82844 0.140435 3.44019 0.350189C4.02113 0.396045 4.47846 0.880931 4.47846 1.47361Z" fill="#FFB332"/>
<path d="M26.9559 23.5858C27.3748 23.319 27.4981 22.7632 27.2313 22.3443C26.6879 21.4913 27.3311 20.2896 28.4105 20.2896C28.4239 20.2896 28.4373 20.2899 28.4508 20.2902L28.4733 20.2908C29.3303 20.3147 30.1742 19.981 30.7868 19.3755C37.492 12.748 39.4681 6.57128 40.0492 3.47935C40.3822 1.70772 39.0586 0.0512673 37.2509 0.0010642C35.8002 -0.0379827 34.5243 1.00947 34.28 2.44043L34.2671 2.51483C34.1064 3.42316 33.282 4.08917 32.3483 4.06284L31.2956 4.03364C30.8007 4.02174 30.3854 4.41115 30.3718 4.90752C30.358 5.40397 30.7492 5.81757 31.2457 5.83135L32.2984 5.86056C34.1143 5.91256 35.7233 4.60728 36.0381 2.82794L36.0528 2.7437C36.1475 2.18925 36.6384 1.78557 37.2012 1.79878C37.9134 1.81863 38.4089 2.47144 38.2818 3.14721C37.7395 6.03299 35.8803 11.8125 29.5227 18.0964C29.2573 18.3588 28.8905 18.5039 28.5231 18.493L28.5006 18.4925C25.9255 18.4214 24.4076 21.2585 25.7145 23.3104C25.9816 23.7298 26.5376 23.8522 26.9559 23.5858Z" fill="#FFDD40"/>
<path d="M37.5213 1.47363C37.5213 1.61817 37.5495 1.7559 37.5991 1.88289C37.4771 1.83309 37.3438 1.80282 37.2013 1.79889C36.6385 1.78568 36.1476 2.18935 36.0529 2.7438L36.0382 2.82805C35.7234 4.60739 34.1144 5.91267 32.2985 5.86066L31.2458 5.83146C30.7494 5.81768 30.3582 5.40408 30.3719 4.90762C30.3856 4.41125 30.8008 4.02185 31.2957 4.03375L32.3484 4.06295C33.2821 4.0892 34.1065 3.42327 34.2673 2.51494L34.2802 2.44053C34.5245 1.00958 35.8004 -0.0378759 37.2511 0.00117101C37.7283 0.0144601 38.1713 0.140542 38.5596 0.350296C37.9786 0.396069 37.5213 0.880956 37.5213 1.47363Z" fill="#FFB332"/>
<path d="M41.0959 21.7605C39.2299 20.282 35.4834 18.1032 32.3598 21.2269C28.0081 25.5786 25.2929 30.8516 29.0663 33.0508C31.3593 34.3872 31.9564 36.9051 32.0721 38.6754C37.5102 35.0788 41.0977 28.91 41.0977 21.9021C41.0977 21.8548 41.0962 21.8077 41.0959 21.7605Z" fill="#FF4155"/>
<path d="M9.63999 21.2269C6.5164 18.1033 2.76979 20.282 0.903904 21.7605C0.903576 21.8077 0.9021 21.8548 0.9021 21.9021C0.9021 28.91 4.48965 35.0788 9.92767 38.6754C10.0433 36.9051 10.6405 34.3872 12.9335 33.0508C16.707 30.8516 13.9917 25.5785 9.63999 21.2269Z" fill="#FF4155"/>
</svg>
