<svg width="393" height="221" viewBox="0 0 393 221" fill="none" xmlns="http://www.w3.org/2000/svg">
<rect x="0.5" y="0.5" width="392" height="220" rx="7.5" fill="white" stroke="#D3D5DB"/>
<path d="M27.0469 29V19.1357H25.0098L21.9883 26.6621H21.9336L18.9121 19.1357H16.8682V29H18.4609V22H18.5088L21.3594 29H22.5625L25.4131 22H25.4609V29H27.0469ZM29.5078 20.6602C30.0273 20.6602 30.4375 20.2432 30.4375 19.7373C30.4375 19.2246 30.0273 18.8145 29.5078 18.8145C28.9883 18.8145 28.5713 19.2246 28.5713 19.7373C28.5713 20.2432 28.9883 20.6602 29.5078 20.6602ZM28.6602 29H30.3623V21.7539H28.6602V29ZM31.791 29H33.4932V24.8027C33.4932 23.7637 34.1152 23.0596 35.0928 23.0596C36.0635 23.0596 36.542 23.6338 36.542 24.6592V29H38.2441V24.3174C38.2441 22.6426 37.335 21.6172 35.7354 21.6172C34.6211 21.6172 33.8486 22.1367 33.459 22.998H33.4248V21.7539H31.791V29ZM40.5 20.6602C41.0195 20.6602 41.4297 20.2432 41.4297 19.7373C41.4297 19.2246 41.0195 18.8145 40.5 18.8145C39.9805 18.8145 39.5635 19.2246 39.5635 19.7373C39.5635 20.2432 39.9805 20.6602 40.5 20.6602ZM39.6523 29H41.3545V21.7539H39.6523V29ZM42.7832 29H44.4854V24.5635C44.4854 23.6885 45.0596 23.0527 45.8799 23.0527C46.6729 23.0527 47.165 23.5518 47.165 24.3584V29H48.8193V24.5225C48.8193 23.6543 49.3799 23.0527 50.2002 23.0527C51.0342 23.0527 51.499 23.5586 51.499 24.4473V29H53.2012V24.0303C53.2012 22.5811 52.2646 21.6172 50.8359 21.6172C49.79 21.6172 48.9287 22.1777 48.5801 23.0732H48.5391C48.2725 22.1436 47.541 21.6172 46.5156 21.6172C45.5312 21.6172 44.7656 22.1709 44.4512 23.0117H44.417V21.7539H42.7832V29ZM60.9941 21.7539H59.292V25.9443C59.292 26.9971 58.6836 27.6943 57.6992 27.6943C56.7422 27.6943 56.2363 27.1338 56.2363 26.0947V21.7539H54.5342V26.4365C54.5342 28.1113 55.5322 29.1299 57.1045 29.1299C58.2051 29.1299 58.9365 28.624 59.3193 27.7422H59.3535V29H60.9941V21.7539ZM62.3887 29H64.0908V24.5635C64.0908 23.6885 64.665 23.0527 65.4854 23.0527C66.2783 23.0527 66.7705 23.5518 66.7705 24.3584V29H68.4248V24.5225C68.4248 23.6543 68.9854 23.0527 69.8057 23.0527C70.6396 23.0527 71.1045 23.5586 71.1045 24.4473V29H72.8066V24.0303C72.8066 22.5811 71.8701 21.6172 70.4414 21.6172C69.3955 21.6172 68.5342 22.1777 68.1855 23.0732H68.1445C67.8779 22.1436 67.1465 21.6172 66.1211 21.6172C65.1367 21.6172 64.3711 22.1709 64.0566 23.0117H64.0225V21.7539H62.3887V29ZM81.4883 29.1641C82.1309 29.1641 82.7119 29.0684 83.2383 28.877L84.0586 29.998H85.7881L84.4619 28.2002C85.583 27.332 86.1709 25.8896 86.1709 24.0713C86.1709 20.9199 84.3594 18.9717 81.4883 18.9717C78.624 18.9717 76.8125 20.9404 76.8125 24.0713C76.8125 27.2021 78.5967 29.1641 81.4883 29.1641ZM81.4883 27.6875C79.7178 27.6875 78.5967 26.2725 78.5967 24.0713C78.5967 21.8633 79.7178 20.4482 81.4883 20.4482C83.2656 20.4482 84.3936 21.8633 84.3936 24.0713C84.3936 25.2539 84.0518 26.2246 83.4297 26.833L82.7529 25.9102H81.0234L82.2607 27.5781C82.0215 27.6465 81.7686 27.6875 81.4883 27.6875ZM93.834 21.7539H92.1318V25.9443C92.1318 26.9971 91.5234 27.6943 90.5391 27.6943C89.582 27.6943 89.0762 27.1338 89.0762 26.0947V21.7539H87.374V26.4365C87.374 28.1113 88.3721 29.1299 89.9443 29.1299C91.0449 29.1299 91.7764 28.624 92.1592 27.7422H92.1934V29H93.834V21.7539ZM97.3613 29.1162C98.291 29.1162 99.2002 28.6309 99.6172 27.8447H99.6514V29H101.292V24.0098C101.292 22.5537 100.123 21.6035 98.3252 21.6035C96.4795 21.6035 95.3242 22.5742 95.249 23.9277H96.8281C96.9375 23.3262 97.4502 22.9365 98.2568 22.9365C99.0977 22.9365 99.6104 23.374 99.6104 24.1328V24.6523L97.6963 24.7617C95.9326 24.8711 94.9414 25.6436 94.9414 26.9287C94.9414 28.2344 95.96 29.1162 97.3613 29.1162ZM97.874 27.8311C97.1357 27.8311 96.6436 27.4551 96.6436 26.8604C96.6436 26.2861 97.1152 25.917 97.9355 25.8623L99.6104 25.7598V26.3135C99.6104 27.1885 98.8379 27.8311 97.874 27.8311ZM102.714 29H104.416V19.1357H102.714V29ZM106.754 20.6602C107.273 20.6602 107.684 20.2432 107.684 19.7373C107.684 19.2246 107.273 18.8145 106.754 18.8145C106.234 18.8145 105.817 19.2246 105.817 19.7373C105.817 20.2432 106.234 20.6602 106.754 20.6602ZM105.906 29H107.608V21.7539H105.906V29ZM109.509 29H111.211V23.0664H112.633V21.7744H111.184V21.1797C111.184 20.5918 111.478 20.2842 112.127 20.2842C112.325 20.2842 112.523 20.3047 112.667 20.3252V19.1357C112.455 19.0947 112.086 19.0605 111.751 19.0605C110.179 19.0605 109.509 19.7236 109.509 21.1318V21.7744H108.518V23.0664H109.509V29ZM114.643 20.6602C115.162 20.6602 115.572 20.2432 115.572 19.7373C115.572 19.2246 115.162 18.8145 114.643 18.8145C114.123 18.8145 113.706 19.2246 113.706 19.7373C113.706 20.2432 114.123 20.6602 114.643 20.6602ZM113.795 29H115.497V21.7539H113.795V29ZM123.311 24.3379C123.194 22.8135 122.012 21.6035 120.098 21.6035C117.992 21.6035 116.625 23.0596 116.625 25.377C116.625 27.7285 117.992 29.1436 120.111 29.1436C121.93 29.1436 123.181 28.0771 123.317 26.457H121.711C121.554 27.2773 120.993 27.7695 120.132 27.7695C119.052 27.7695 118.354 26.8945 118.354 25.377C118.354 23.8867 119.045 22.9844 120.118 22.9844C121.027 22.9844 121.567 23.5654 121.704 24.3379H123.311ZM126.469 29.1162C127.398 29.1162 128.308 28.6309 128.725 27.8447H128.759V29H130.399V24.0098C130.399 22.5537 129.23 21.6035 127.433 21.6035C125.587 21.6035 124.432 22.5742 124.356 23.9277H125.936C126.045 23.3262 126.558 22.9365 127.364 22.9365C128.205 22.9365 128.718 23.374 128.718 24.1328V24.6523L126.804 24.7617C125.04 24.8711 124.049 25.6436 124.049 26.9287C124.049 28.2344 125.067 29.1162 126.469 29.1162ZM126.981 27.8311C126.243 27.8311 125.751 27.4551 125.751 26.8604C125.751 26.2861 126.223 25.917 127.043 25.8623L128.718 25.7598V26.3135C128.718 27.1885 127.945 27.8311 126.981 27.8311ZM132.245 20.0586V21.7539H131.206V23.0664H132.245V27.0723C132.245 28.4805 132.86 29.0342 134.426 29.0342C134.788 29.0342 135.123 29.0068 135.308 28.9658V27.667C135.198 27.6875 134.979 27.7012 134.822 27.7012C134.221 27.7012 133.947 27.4277 133.947 26.833V23.0664H135.314V21.7539H133.947V20.0586H132.245ZM137.365 20.6602C137.885 20.6602 138.295 20.2432 138.295 19.7373C138.295 19.2246 137.885 18.8145 137.365 18.8145C136.846 18.8145 136.429 19.2246 136.429 19.7373C136.429 20.2432 136.846 20.6602 137.365 20.6602ZM136.518 29H138.22V21.7539H136.518V29ZM142.854 29.1436C144.98 29.1436 146.361 27.7285 146.361 25.377C146.361 23.0322 144.967 21.6035 142.854 21.6035C140.742 21.6035 139.348 23.0391 139.348 25.377C139.348 27.7285 140.729 29.1436 142.854 29.1436ZM142.854 27.7969C141.774 27.7969 141.077 26.9219 141.077 25.377C141.077 23.8389 141.781 22.957 142.854 22.957C143.935 22.957 144.632 23.8389 144.632 25.377C144.632 26.9219 143.935 27.7969 142.854 27.7969ZM147.455 29H149.157V24.8027C149.157 23.7637 149.779 23.0596 150.757 23.0596C151.728 23.0596 152.206 23.6338 152.206 24.6592V29H153.908V24.3174C153.908 22.6426 152.999 21.6172 151.399 21.6172C150.285 21.6172 149.513 22.1367 149.123 22.998H149.089V21.7539H147.455V29Z" fill="#232D4C"/>
<path d="M84.0615 94.4062C88.8223 94.4062 91.7041 90.75 91.7041 84.6816C91.7041 77.9912 88.0986 75.2617 84.0615 75.2617C79.9736 75.2617 77.0029 77.9658 77.0029 81.7617C77.0029 85.3291 79.6816 87.7412 83.084 87.7412C85.4834 87.7412 87.2988 86.5479 87.959 84.7705H88.0352C88.0605 88.7061 86.8291 91.3721 84.0742 91.3721C82.5381 91.3721 81.4082 90.6738 81.002 89.3662H77.2188C77.7012 92.3369 80.4688 94.4062 84.0615 94.4062ZM84.0742 84.8975C82.1572 84.8975 80.7354 83.5264 80.7354 81.6094C80.7354 79.7559 82.2207 78.3213 84.1123 78.3213C85.9912 78.3213 87.4766 79.7812 87.4766 81.6729C87.4766 83.5518 86.0039 84.8975 84.0742 84.8975ZM101.314 94.4062C105.961 94.4062 108.779 90.7119 108.779 84.7959C108.779 78.8799 105.936 75.2617 101.314 75.2617C96.6934 75.2617 93.8369 78.8926 93.8369 84.8086C93.8369 90.7373 96.668 94.4062 101.314 94.4062ZM101.314 91.334C99.0547 91.334 97.7344 89.0107 97.7344 84.8086C97.7344 80.6445 99.0801 78.334 101.314 78.334C103.562 78.334 104.882 80.6318 104.882 84.8086C104.882 89.0107 103.574 91.334 101.314 91.334ZM114.797 84.9609C117.438 84.9609 119.164 83.1074 119.164 80.1621C119.164 77.1914 117.425 75.4014 114.797 75.4014C112.156 75.4014 110.417 77.1914 110.417 80.1748C110.417 83.1201 112.144 84.9609 114.797 84.9609ZM116.384 94L128.8 75.6807H126.058L113.629 94H116.384ZM114.797 82.8154C113.781 82.8154 113.096 81.9395 113.096 80.1748C113.096 78.3848 113.781 77.5596 114.797 77.5596C115.812 77.5596 116.485 78.3848 116.485 80.1748C116.485 81.9395 115.8 82.8154 114.797 82.8154ZM127.645 94.2666C130.285 94.2666 132.012 92.4131 132.012 89.4678C132.012 86.4844 130.272 84.6943 127.645 84.6943C125.004 84.6943 123.265 86.4971 123.265 89.4678C123.265 92.4258 124.991 94.2666 127.645 94.2666ZM127.645 92.1084C126.629 92.1084 125.943 91.2451 125.943 89.4678C125.943 87.6777 126.629 86.8525 127.645 86.8525C128.66 86.8525 129.333 87.6904 129.333 89.4678C129.333 91.2451 128.647 92.1084 127.645 92.1084Z" fill="#4A90E2"/>
<path d="M76.3779 64H79.2432L82.0381 59.5615H82.1084L84.8857 64H87.9092L83.8135 57.6895V57.6279L87.9619 51.3174H85L82.2842 55.8877H82.2139L79.5244 51.3174H76.4043L80.4033 57.5752V57.6455L76.3779 64ZM89.6846 52.4072V54.5781H88.3574V56.5117H89.6846V61.46C89.6846 63.2969 90.5459 64.0352 92.7607 64.0352C93.2793 64.0352 93.7188 63.9912 93.9824 63.9297V62.04C93.8242 62.0664 93.5869 62.084 93.3584 62.084C92.6025 62.084 92.251 61.7412 92.251 61.0205V56.5117H93.9912V54.5781H92.251V52.4072H89.6846ZM95.459 64H98.0254V58.6211C98.0254 57.3818 98.7373 56.5293 99.9502 56.5293C101.119 56.5293 101.717 57.2676 101.717 58.4805V64H104.283V57.9355C104.283 55.7559 103.088 54.4023 100.996 54.4023C99.5635 54.4023 98.5352 55.0703 98.0342 56.2568H97.9814V51.3174H95.459V64Z" fill="#9196A5"/>
<path d="M84.0615 187.406C88.8223 187.406 91.7041 183.75 91.7041 177.682C91.7041 170.991 88.0986 168.262 84.0615 168.262C79.9736 168.262 77.0029 170.966 77.0029 174.762C77.0029 178.329 79.6816 180.741 83.084 180.741C85.4834 180.741 87.2988 179.548 87.959 177.771H88.0352C88.0605 181.706 86.8291 184.372 84.0742 184.372C82.5381 184.372 81.4082 183.674 81.002 182.366H77.2188C77.7012 185.337 80.4688 187.406 84.0615 187.406ZM84.0742 177.897C82.1572 177.897 80.7354 176.526 80.7354 174.609C80.7354 172.756 82.2207 171.321 84.1123 171.321C85.9912 171.321 87.4766 172.781 87.4766 174.673C87.4766 176.552 86.0039 177.897 84.0742 177.897ZM101.314 187.406C105.961 187.406 108.779 183.712 108.779 177.796C108.779 171.88 105.936 168.262 101.314 168.262C96.6934 168.262 93.8369 171.893 93.8369 177.809C93.8369 183.737 96.668 187.406 101.314 187.406ZM101.314 184.334C99.0547 184.334 97.7344 182.011 97.7344 177.809C97.7344 173.645 99.0801 171.334 101.314 171.334C103.562 171.334 104.882 173.632 104.882 177.809C104.882 182.011 103.574 184.334 101.314 184.334ZM114.797 177.961C117.438 177.961 119.164 176.107 119.164 173.162C119.164 170.191 117.425 168.401 114.797 168.401C112.156 168.401 110.417 170.191 110.417 173.175C110.417 176.12 112.144 177.961 114.797 177.961ZM116.384 187L128.8 168.681H126.058L113.629 187H116.384ZM114.797 175.815C113.781 175.815 113.096 174.939 113.096 173.175C113.096 171.385 113.781 170.56 114.797 170.56C115.812 170.56 116.485 171.385 116.485 173.175C116.485 174.939 115.8 175.815 114.797 175.815ZM127.645 187.267C130.285 187.267 132.012 185.413 132.012 182.468C132.012 179.484 130.272 177.694 127.645 177.694C125.004 177.694 123.265 179.497 123.265 182.468C123.265 185.426 124.991 187.267 127.645 187.267ZM127.645 185.108C126.629 185.108 125.943 184.245 125.943 182.468C125.943 180.678 126.629 179.853 127.645 179.853C128.66 179.853 129.333 180.69 129.333 182.468C129.333 184.245 128.647 185.108 127.645 185.108Z" fill="#4A90E2"/>
<path d="M82.6709 157C85.3779 157 87.0566 155.603 87.0566 153.37C87.0566 151.691 85.791 150.435 84.0684 150.303V150.232C85.4131 150.03 86.4502 148.87 86.4502 147.481C86.4502 145.539 84.9561 144.317 82.5742 144.317H77.0547V157H82.6709ZM79.709 146.295H81.8887C83.1279 146.295 83.8398 146.875 83.8398 147.895C83.8398 148.967 83.0312 149.591 81.6162 149.591H79.709V146.295ZM79.709 155.022V151.34H81.9326C83.4971 151.34 84.3496 151.973 84.3496 153.159C84.3496 154.372 83.5234 155.022 81.9941 155.022H79.709ZM91.1436 157.149C92.3213 157.149 93.4902 156.561 94.0176 155.559H94.0703V157H96.5488V150.522C96.5488 148.624 94.9756 147.376 92.5586 147.376C90.0625 147.376 88.5068 148.633 88.4102 150.461H90.7568C90.8799 149.767 91.4863 149.292 92.4443 149.292C93.4111 149.292 94.0264 149.802 94.0264 150.681V151.305L91.6533 151.445C89.3066 151.586 87.9883 152.579 87.9883 154.293C87.9883 155.989 89.3506 157.149 91.1436 157.149ZM91.9873 155.295C91.1172 155.295 90.5371 154.855 90.5371 154.152C90.5371 153.484 91.082 153.054 92.04 152.983L94.0264 152.86V153.546C94.0264 154.565 93.1035 155.295 91.9873 155.295ZM106.771 151.085C106.656 148.949 105.039 147.376 102.49 147.376C99.6689 147.376 97.8672 149.257 97.8672 152.28C97.8672 155.356 99.6689 157.202 102.508 157.202C104.986 157.202 106.647 155.77 106.779 153.546H104.389C104.23 154.574 103.562 155.189 102.534 155.189C101.26 155.189 100.469 154.135 100.469 152.28C100.469 150.461 101.26 149.389 102.525 149.389C103.58 149.389 104.239 150.092 104.389 151.085H106.771ZM108.08 157H110.646V151.621C110.646 150.382 111.358 149.529 112.571 149.529C113.74 149.529 114.338 150.268 114.338 151.48V157H116.904V150.936C116.904 148.756 115.709 147.402 113.617 147.402C112.185 147.402 111.156 148.07 110.655 149.257H110.603V144.317H108.08V157ZM124.788 154.117C124.551 154.838 123.83 155.304 122.89 155.304C121.58 155.304 120.728 154.381 120.728 153.036V152.878H127.223V152.096C127.223 149.23 125.491 147.376 122.749 147.376C119.963 147.376 118.205 149.327 118.205 152.333C118.205 155.348 119.945 157.202 122.846 157.202C125.175 157.202 126.862 155.963 127.144 154.117H124.788ZM122.775 149.274C123.918 149.274 124.7 150.101 124.753 151.305H120.754C120.842 150.127 121.65 149.274 122.775 149.274ZM128.611 157H131.178V144.317H128.611V157ZM137.233 157.202C140.081 157.202 141.9 155.383 141.9 152.28C141.9 149.222 140.055 147.376 137.233 147.376C134.412 147.376 132.566 149.23 132.566 152.28C132.566 155.374 134.386 157.202 137.233 157.202ZM137.233 155.242C135.968 155.242 135.168 154.179 135.168 152.289C135.168 150.417 135.985 149.336 137.233 149.336C138.481 149.336 139.29 150.417 139.29 152.289C139.29 154.179 138.49 155.242 137.233 155.242ZM143.228 157H145.794V151.735C145.794 150.408 146.532 149.635 147.798 149.635C148.167 149.635 148.519 149.696 148.729 149.784V147.525C148.554 147.473 148.299 147.429 148 147.429C146.893 147.429 146.093 148.079 145.759 149.274H145.706V147.578H143.228V157ZM149.626 150.347C149.626 151.762 150.549 152.676 152.368 153.062L153.977 153.396C154.899 153.607 155.225 153.889 155.225 154.39C155.225 155.005 154.627 155.4 153.66 155.4C152.641 155.4 152.052 154.961 151.894 154.135H149.389C149.556 155.989 151.059 157.202 153.66 157.202C156.086 157.202 157.782 155.98 157.782 154.126C157.782 152.746 156.974 151.973 155.005 151.56L153.396 151.217C152.447 151.015 152.096 150.689 152.096 150.206C152.096 149.582 152.685 149.178 153.572 149.178C154.521 149.178 155.093 149.696 155.172 150.461H157.536C157.483 148.615 155.989 147.376 153.572 147.376C151.173 147.376 149.626 148.554 149.626 150.347Z" fill="#9196A5"/>
<path d="M298.062 94.4062C302.822 94.4062 305.704 90.75 305.704 84.6816C305.704 77.9912 302.099 75.2617 298.062 75.2617C293.974 75.2617 291.003 77.9658 291.003 81.7617C291.003 85.3291 293.682 87.7412 297.084 87.7412C299.483 87.7412 301.299 86.5479 301.959 84.7705H302.035C302.061 88.7061 300.829 91.3721 298.074 91.3721C296.538 91.3721 295.408 90.6738 295.002 89.3662H291.219C291.701 92.3369 294.469 94.4062 298.062 94.4062ZM298.074 84.8975C296.157 84.8975 294.735 83.5264 294.735 81.6094C294.735 79.7559 296.221 78.3213 298.112 78.3213C299.991 78.3213 301.477 79.7812 301.477 81.6729C301.477 83.5518 300.004 84.8975 298.074 84.8975ZM315.314 94.4062C319.961 94.4062 322.779 90.7119 322.779 84.7959C322.779 78.8799 319.936 75.2617 315.314 75.2617C310.693 75.2617 307.837 78.8926 307.837 84.8086C307.837 90.7373 310.668 94.4062 315.314 94.4062ZM315.314 91.334C313.055 91.334 311.734 89.0107 311.734 84.8086C311.734 80.6445 313.08 78.334 315.314 78.334C317.562 78.334 318.882 80.6318 318.882 84.8086C318.882 89.0107 317.574 91.334 315.314 91.334ZM328.797 84.9609C331.438 84.9609 333.164 83.1074 333.164 80.1621C333.164 77.1914 331.425 75.4014 328.797 75.4014C326.156 75.4014 324.417 77.1914 324.417 80.1748C324.417 83.1201 326.144 84.9609 328.797 84.9609ZM330.384 94L342.8 75.6807H340.058L327.629 94H330.384ZM328.797 82.8154C327.781 82.8154 327.096 81.9395 327.096 80.1748C327.096 78.3848 327.781 77.5596 328.797 77.5596C329.812 77.5596 330.485 78.3848 330.485 80.1748C330.485 81.9395 329.8 82.8154 328.797 82.8154ZM341.645 94.2666C344.285 94.2666 346.012 92.4131 346.012 89.4678C346.012 86.4844 344.272 84.6943 341.645 84.6943C339.004 84.6943 337.265 86.4971 337.265 89.4678C337.265 92.4258 338.991 94.2666 341.645 94.2666ZM341.645 92.1084C340.629 92.1084 339.943 91.2451 339.943 89.4678C339.943 87.6777 340.629 86.8525 341.645 86.8525C342.66 86.8525 343.333 87.6904 343.333 89.4678C343.333 91.2451 342.647 92.1084 341.645 92.1084Z" fill="#4A90E2"/>
<path d="M291.055 51.3174V64H295.897C299.703 64 301.944 61.6357 301.944 57.6104C301.944 53.585 299.703 51.3174 295.897 51.3174H291.055ZM293.709 53.5059H295.581C297.919 53.5059 299.237 54.9648 299.237 57.6191C299.237 60.3613 297.954 61.8027 295.581 61.8027H293.709V53.5059ZM304.757 53.3037C305.504 53.3037 306.093 52.7061 306.093 51.9854C306.093 51.2559 305.504 50.667 304.757 50.667C304.01 50.667 303.421 51.2559 303.421 51.9854C303.421 52.7061 304.01 53.3037 304.757 53.3037ZM303.482 64H306.049V54.5781H303.482V64ZM313.265 54.4287C311.902 54.4287 310.856 55.1143 310.347 56.2217H310.294V54.5781H307.763V67.0762H310.329V62.418H310.382C310.883 63.4814 311.938 64.1494 313.309 64.1494C315.664 64.1494 317.123 62.3213 317.123 59.2891C317.123 56.248 315.655 54.4287 313.265 54.4287ZM312.403 62.084C311.146 62.084 310.32 60.9941 310.32 59.2891C310.32 57.6016 311.146 56.4854 312.403 56.4854C313.687 56.4854 314.495 57.584 314.495 59.2891C314.495 61.0029 313.687 62.084 312.403 62.084ZM318.512 64H321.078V51.3174H318.512V64ZM327.134 64.2021C329.981 64.2021 331.801 62.3828 331.801 59.2803C331.801 56.2217 329.955 54.376 327.134 54.376C324.312 54.376 322.467 56.2305 322.467 59.2803C322.467 62.374 324.286 64.2021 327.134 64.2021ZM327.134 62.2422C325.868 62.2422 325.068 61.1787 325.068 59.2891C325.068 57.417 325.886 56.3359 327.134 56.3359C328.382 56.3359 329.19 57.417 329.19 59.2891C329.19 61.1787 328.391 62.2422 327.134 62.2422ZM333.128 64H335.694V58.3135C335.694 57.2588 336.354 56.5205 337.329 56.5205C338.278 56.5205 338.85 57.1182 338.85 58.1289V64H341.319V58.2783C341.319 57.2324 341.961 56.5205 342.937 56.5205C343.93 56.5205 344.475 57.1182 344.475 58.208V64H347.041V57.5664C347.041 55.668 345.802 54.4023 343.956 54.4023C342.576 54.4023 341.451 55.1494 341.029 56.3359H340.977C340.66 55.1055 339.711 54.4023 338.349 54.4023C337.065 54.4023 336.055 55.1494 335.659 56.2832H335.606V54.5781H333.128V64ZM351.462 64.1494C352.64 64.1494 353.809 63.5605 354.336 62.5586H354.389V64H356.867V57.5225C356.867 55.624 355.294 54.376 352.877 54.376C350.381 54.376 348.825 55.6328 348.729 57.4609H351.075C351.198 56.7666 351.805 56.292 352.763 56.292C353.729 56.292 354.345 56.8018 354.345 57.6807V58.3047L351.972 58.4453C349.625 58.5859 348.307 59.5791 348.307 61.293C348.307 62.9893 349.669 64.1494 351.462 64.1494ZM352.306 62.2949C351.436 62.2949 350.855 61.8555 350.855 61.1523C350.855 60.4844 351.4 60.0537 352.358 59.9834L354.345 59.8604V60.5459C354.345 61.5654 353.422 62.2949 352.306 62.2949Z" fill="#9196A5"/>
<path d="M298.062 187.406C302.822 187.406 305.704 183.75 305.704 177.682C305.704 170.991 302.099 168.262 298.062 168.262C293.974 168.262 291.003 170.966 291.003 174.762C291.003 178.329 293.682 180.741 297.084 180.741C299.483 180.741 301.299 179.548 301.959 177.771H302.035C302.061 181.706 300.829 184.372 298.074 184.372C296.538 184.372 295.408 183.674 295.002 182.366H291.219C291.701 185.337 294.469 187.406 298.062 187.406ZM298.074 177.897C296.157 177.897 294.735 176.526 294.735 174.609C294.735 172.756 296.221 171.321 298.112 171.321C299.991 171.321 301.477 172.781 301.477 174.673C301.477 176.552 300.004 177.897 298.074 177.897ZM315.314 187.406C319.961 187.406 322.779 183.712 322.779 177.796C322.779 171.88 319.936 168.262 315.314 168.262C310.693 168.262 307.837 171.893 307.837 177.809C307.837 183.737 310.668 187.406 315.314 187.406ZM315.314 184.334C313.055 184.334 311.734 182.011 311.734 177.809C311.734 173.645 313.08 171.334 315.314 171.334C317.562 171.334 318.882 173.632 318.882 177.809C318.882 182.011 317.574 184.334 315.314 184.334ZM328.797 177.961C331.438 177.961 333.164 176.107 333.164 173.162C333.164 170.191 331.425 168.401 328.797 168.401C326.156 168.401 324.417 170.191 324.417 173.175C324.417 176.12 326.144 177.961 328.797 177.961ZM330.384 187L342.8 168.681H340.058L327.629 187H330.384ZM328.797 175.815C327.781 175.815 327.096 174.939 327.096 173.175C327.096 171.385 327.781 170.56 328.797 170.56C329.812 170.56 330.485 171.385 330.485 173.175C330.485 174.939 329.8 175.815 328.797 175.815ZM341.645 187.267C344.285 187.267 346.012 185.413 346.012 182.468C346.012 179.484 344.272 177.694 341.645 177.694C339.004 177.694 337.265 179.497 337.265 182.468C337.265 185.426 338.991 187.267 341.645 187.267ZM341.645 185.108C340.629 185.108 339.943 184.245 339.943 182.468C339.943 180.678 340.629 179.853 341.645 179.853C342.66 179.853 343.333 180.69 343.333 182.468C343.333 184.245 342.647 185.108 341.645 185.108Z" fill="#4A90E2"/>
<path d="M304.484 157V144.317H301.408L297.805 153.423H297.734L294.131 144.317H291.055V157H293.419V148.439H293.489L296.935 157H298.604L302.05 148.439H302.12V157H304.484ZM308.976 157.149C310.153 157.149 311.322 156.561 311.85 155.559H311.902V157H314.381V150.522C314.381 148.624 312.808 147.376 310.391 147.376C307.895 147.376 306.339 148.633 306.242 150.461H308.589C308.712 149.767 309.318 149.292 310.276 149.292C311.243 149.292 311.858 149.802 311.858 150.681V151.305L309.485 151.445C307.139 151.586 305.82 152.579 305.82 154.293C305.82 155.989 307.183 157.149 308.976 157.149ZM309.819 155.295C308.949 155.295 308.369 154.855 308.369 154.152C308.369 153.484 308.914 153.054 309.872 152.983L311.858 152.86V153.546C311.858 154.565 310.936 155.295 309.819 155.295ZM315.884 150.347C315.884 151.762 316.807 152.676 318.626 153.062L320.234 153.396C321.157 153.607 321.482 153.889 321.482 154.39C321.482 155.005 320.885 155.4 319.918 155.4C318.898 155.4 318.31 154.961 318.151 154.135H315.646C315.813 155.989 317.316 157.202 319.918 157.202C322.344 157.202 324.04 155.98 324.04 154.126C324.04 152.746 323.231 151.973 321.263 151.56L319.654 151.217C318.705 151.015 318.354 150.689 318.354 150.206C318.354 149.582 318.942 149.178 319.83 149.178C320.779 149.178 321.351 149.696 321.43 150.461H323.794C323.741 148.615 322.247 147.376 319.83 147.376C317.431 147.376 315.884 148.554 315.884 150.347ZM325.991 145.407V147.578H324.664V149.512H325.991V154.46C325.991 156.297 326.853 157.035 329.067 157.035C329.586 157.035 330.025 156.991 330.289 156.93V155.04C330.131 155.066 329.894 155.084 329.665 155.084C328.909 155.084 328.558 154.741 328.558 154.021V149.512H330.298V147.578H328.558V145.407H325.991ZM337.804 154.117C337.566 154.838 336.846 155.304 335.905 155.304C334.596 155.304 333.743 154.381 333.743 153.036V152.878H340.238V152.096C340.238 149.23 338.507 147.376 335.765 147.376C332.979 147.376 331.221 149.327 331.221 152.333C331.221 155.348 332.961 157.202 335.861 157.202C338.19 157.202 339.878 155.963 340.159 154.117H337.804ZM335.791 149.274C336.934 149.274 337.716 150.101 337.769 151.305H333.77C333.857 150.127 334.666 149.274 335.791 149.274ZM341.565 157H344.132V151.735C344.132 150.408 344.87 149.635 346.136 149.635C346.505 149.635 346.856 149.696 347.067 149.784V147.525C346.892 147.473 346.637 147.429 346.338 147.429C345.23 147.429 344.431 148.079 344.097 149.274H344.044V147.578H341.565V157ZM347.964 150.347C347.964 151.762 348.887 152.676 350.706 153.062L352.314 153.396C353.237 153.607 353.562 153.889 353.562 154.39C353.562 155.005 352.965 155.4 351.998 155.4C350.979 155.4 350.39 154.961 350.231 154.135H347.727C347.894 155.989 349.396 157.202 351.998 157.202C354.424 157.202 356.12 155.98 356.12 154.126C356.12 152.746 355.312 151.973 353.343 151.56L351.734 151.217C350.785 151.015 350.434 150.689 350.434 150.206C350.434 149.582 351.022 149.178 351.91 149.178C352.859 149.178 353.431 149.696 353.51 150.461H355.874C355.821 148.615 354.327 147.376 351.91 147.376C349.511 147.376 347.964 148.554 347.964 150.347Z" fill="#9196A5"/>
<path d="M254 145.804C242.9 145.804 233.902 154.802 233.902 165.902C233.902 174.444 239.231 181.74 246.745 184.649H261.255C268.769 181.74 274.098 174.444 274.098 165.902C274.098 154.802 265.1 145.804 254 145.804Z" fill="#E80054"/>
<path d="M256.655 172.459C256.103 171.927 255.275 170.919 255.182 169.588C254.828 169.77 254.426 169.874 254 169.874C253.939 169.874 253.88 169.871 253.82 169.867V178.457C253.88 178.456 253.94 178.453 254 178.453C254.888 178.453 255.732 178.637 256.498 178.97L257.072 173.615C257.118 173.186 256.966 172.758 256.655 172.459Z" fill="#FFDD40"/>
<path d="M256.498 178.97L257.072 173.615C257.072 173.614 257.072 173.614 257.072 173.614C257.072 173.614 257.072 173.614 257.072 173.614C256.173 175.112 255.025 174.837 254.419 174.538C254.231 174.446 254.021 174.415 253.82 174.448V178.457C253.88 178.456 253.94 178.453 254 178.453C254.888 178.453 255.732 178.637 256.498 178.97Z" fill="#FFB332"/>
<path d="M252.817 169.588C252.724 170.919 251.896 171.927 251.344 172.459C251.033 172.758 250.881 173.186 250.927 173.615L251.502 178.97C252.268 178.637 253.112 178.453 254 178.453L253.999 169.873C253.573 169.873 253.171 169.77 252.817 169.588Z" fill="#FFB332"/>
<path d="M254 178.453L253.999 174.434C253.857 174.431 253.713 174.459 253.581 174.522C251.933 175.296 250.927 173.615 250.927 173.615L251.502 178.97C252.268 178.637 253.112 178.453 254 178.453Z" fill="#FF9100"/>
<path d="M251.686 166.28C251.506 166.633 251.403 167.033 251.403 167.457C251.403 168.891 252.566 170.053 254 170.053C255.434 170.053 256.597 168.891 256.597 167.457C256.597 167.033 256.494 166.633 256.314 166.28C254.899 167.121 253.102 167.122 251.686 166.28Z" fill="#FFDD40"/>
<path d="M259.042 180.808C257.897 179.27 256.065 178.273 254 178.273C251.935 178.273 250.103 179.27 248.958 180.808H259.042Z" fill="#FFDD40"/>
<path d="M255.324 178.413C254.897 178.321 254.454 178.273 254 178.273C251.935 178.273 250.103 179.27 248.958 180.808H255.074C254.314 180.205 254.376 178.839 255.324 178.413Z" fill="#FFB332"/>
<path d="M243.887 147.026C243.885 147.026 243.884 147.026 243.882 147.026C243.906 150.974 244.693 159.979 250.901 165.868C252.624 167.501 255.378 167.5 257.099 165.868C263.307 159.98 264.095 150.975 264.118 147.026H243.887Z" fill="#FFDD40"/>
<path d="M249.857 153.413C249.544 151.091 251.341 149.023 253.684 149.023L264.046 149.023C264.095 148.269 264.115 147.595 264.118 147.026H243.887C243.885 147.026 243.884 147.026 243.882 147.026C243.906 150.974 244.693 159.979 250.901 165.868C252.167 167.067 253.988 167.384 255.548 166.821C251.855 162.722 250.403 157.472 249.857 153.413Z" fill="#FFB332"/>
<path d="M264.116 147.206H243.884C243.214 147.206 242.67 146.662 242.67 145.992C242.67 145.322 243.214 144.778 243.884 144.778H264.116C264.786 144.778 265.33 145.322 265.33 145.992C265.33 146.662 264.786 147.206 264.116 147.206Z" fill="#FFE98D"/>
<path d="M249.764 145.992C249.764 145.321 250.307 144.778 250.977 144.778H243.884C243.214 144.778 242.67 145.321 242.67 145.992C242.67 146.662 243.214 147.206 243.884 147.206H250.977C250.307 147.206 249.764 146.662 249.764 145.992Z" fill="#FFDD40"/>
<path d="M248.044 167.586C247.625 167.319 247.502 166.763 247.768 166.344C248.312 165.491 247.669 164.29 246.589 164.29C246.576 164.29 246.562 164.29 246.549 164.29L246.526 164.291C245.669 164.315 244.825 163.981 244.213 163.375C237.508 156.748 235.532 150.571 234.95 147.479C234.617 145.708 235.941 144.051 237.749 144.001C239.199 143.962 240.475 145.009 240.72 146.44L240.733 146.515C240.893 147.423 241.718 148.089 242.651 148.063L243.704 148.034C244.199 148.022 244.614 148.411 244.628 148.908C244.642 149.404 244.25 149.818 243.754 149.831L242.701 149.861C240.885 149.913 239.276 148.607 238.962 146.828L238.947 146.744C238.852 146.189 238.361 145.786 237.799 145.799C237.086 145.819 236.591 146.471 236.718 147.147C237.26 150.033 239.119 155.812 245.477 162.096C245.742 162.359 246.109 162.504 246.477 162.493L246.499 162.492C249.074 162.421 250.592 165.258 249.285 167.31C249.018 167.73 248.462 167.852 248.044 167.586Z" fill="#FFDD40"/>
<path d="M260.384 180.628H247.616C247.022 180.628 246.537 181.114 246.537 181.708V184.567C247.114 184.798 247.704 185.004 248.307 185.181H259.693C260.296 185.004 260.886 184.798 261.463 184.567V181.708C261.463 181.114 260.978 180.628 260.384 180.628Z" fill="#A05838"/>
<path d="M246.537 181.707V184.567C247.114 184.798 247.704 185.004 248.307 185.181H253.823V184.65C253.823 184.222 254.095 183.92 254.323 183.743C254.465 183.633 254.506 183.435 254.423 183.276C254.226 182.897 254.391 182.556 254.529 182.365C254.608 182.257 254.616 182.116 254.562 181.995C254.323 181.46 254.518 181.105 254.748 180.891C254.825 180.819 254.863 180.724 254.864 180.628H247.616C247.022 180.628 246.537 181.114 246.537 181.707Z" fill="#823C26"/>
<path d="M258.478 182.877H249.522C249.164 182.877 248.875 183.166 248.875 183.524V185.339C250.511 185.77 252.228 186 254 186C255.772 186 257.489 185.77 259.125 185.339V183.524C259.125 183.166 258.836 182.877 258.478 182.877Z" fill="#E9EFFF"/>
<path d="M254.323 183.743C254.465 183.633 254.506 183.435 254.423 183.276C254.35 183.135 254.327 183.001 254.333 182.877H249.522C249.164 182.877 248.875 183.166 248.875 183.524V185.339C250.456 185.755 252.114 185.984 253.823 185.998V184.65C253.823 184.222 254.095 183.92 254.323 183.743Z" fill="#D3DCFB"/>
<path d="M258.478 182.202H249.522C248.793 182.202 248.2 182.795 248.2 183.524V185.149C248.644 185.282 249.093 185.401 249.549 185.504V183.551H258.451V185.504C258.907 185.401 259.356 185.282 259.8 185.149V183.524C259.8 182.795 259.207 182.202 258.478 182.202Z" fill="#D3DCFB"/>
<path d="M254.423 183.276C254.226 182.897 254.391 182.556 254.529 182.365C254.565 182.316 254.585 182.26 254.593 182.202H249.522C248.793 182.202 248.2 182.795 248.2 183.524V185.149C248.644 185.282 249.093 185.401 249.549 185.504V183.551H254.45C254.475 183.461 254.468 183.363 254.423 183.276Z" fill="#BEC8F7"/>
<path d="M254.555 169.249C255.049 169.249 255.45 168.848 255.45 168.353C255.45 167.859 255.049 167.458 254.555 167.458C254.06 167.458 253.659 167.859 253.659 168.353C253.659 168.848 254.06 169.249 254.555 169.249Z" fill="#FFE98D"/>
<path d="M255.686 154.869C256.18 154.869 256.581 154.468 256.581 153.974C256.581 153.479 256.18 153.078 255.686 153.078C255.191 153.078 254.79 153.479 254.79 153.974C254.79 154.468 255.191 154.869 255.686 154.869Z" fill="#FFE98D"/>
<path d="M258.678 153.692C259.565 153.692 260.283 152.973 260.283 152.087C260.283 151.2 259.565 150.482 258.678 150.482C257.792 150.482 257.073 151.2 257.073 152.087C257.073 152.973 257.792 153.692 258.678 153.692Z" fill="#FFE98D"/>
<path d="M237.478 145.474C237.478 145.618 237.45 145.756 237.401 145.883C237.523 145.833 237.656 145.803 237.798 145.799C238.361 145.786 238.852 146.189 238.947 146.744L238.962 146.828C239.276 148.607 240.885 149.913 242.701 149.861L243.754 149.831C244.25 149.818 244.642 149.404 244.628 148.908C244.614 148.411 244.199 148.022 243.704 148.034L242.651 148.063C241.718 148.089 240.893 147.423 240.732 146.515L240.72 146.441C240.475 145.009 239.199 143.962 237.749 144.001C237.271 144.014 236.828 144.14 236.44 144.35C237.021 144.396 237.478 144.881 237.478 145.474Z" fill="#FFB332"/>
<path d="M259.956 167.586C260.375 167.319 260.498 166.763 260.231 166.344C259.688 165.491 260.331 164.29 261.411 164.29C261.424 164.29 261.437 164.29 261.451 164.29L261.473 164.291C262.33 164.315 263.174 163.981 263.787 163.375C270.492 156.748 272.468 150.571 273.049 147.479C273.382 145.708 272.059 144.051 270.251 144.001C268.8 143.962 267.524 145.009 267.28 146.44L267.267 146.515C267.106 147.423 266.282 148.089 265.348 148.063L264.296 148.034C263.801 148.022 263.385 148.411 263.372 148.908C263.358 149.404 263.749 149.818 264.246 149.831L265.298 149.861C267.114 149.913 268.723 148.607 269.038 146.828L269.053 146.744C269.147 146.189 269.638 145.786 270.201 145.799C270.913 145.819 271.409 146.471 271.282 147.147C270.739 150.033 268.88 155.812 262.523 162.096C262.257 162.359 261.89 162.504 261.523 162.493L261.501 162.492C258.926 162.421 257.408 165.258 258.714 167.31C258.982 167.73 259.538 167.852 259.956 167.586Z" fill="#FFDD40"/>
<path d="M270.522 145.474C270.522 145.618 270.55 145.756 270.599 145.883C270.477 145.833 270.344 145.803 270.202 145.799C269.639 145.786 269.148 146.189 269.053 146.744L269.038 146.828C268.724 148.607 267.115 149.913 265.299 149.861L264.246 149.831C263.75 149.818 263.358 149.404 263.372 148.908C263.386 148.411 263.801 148.022 264.296 148.034L265.349 148.063C266.282 148.089 267.107 147.423 267.268 146.515L267.28 146.441C267.525 145.01 268.801 143.962 270.251 144.001C270.729 144.014 271.172 144.141 271.56 144.35C270.979 144.396 270.522 144.881 270.522 145.474Z" fill="#FFB332"/>
<path d="M274.096 165.76C272.23 164.282 268.484 162.103 265.36 165.227C261.008 169.579 258.293 174.852 262.066 177.051C264.359 178.387 264.957 180.905 265.072 182.675C270.51 179.079 274.098 172.91 274.098 165.902C274.098 165.855 274.096 165.808 274.096 165.76Z" fill="#FF4155"/>
<path d="M242.64 165.227C239.516 162.103 235.77 164.282 233.904 165.76C233.904 165.808 233.902 165.855 233.902 165.902C233.902 172.91 237.49 179.079 242.928 182.675C243.043 180.905 243.641 178.387 245.934 177.051C249.707 174.852 246.992 169.578 242.64 165.227Z" fill="#FF4155"/>
<g clip-path="url(#clip0)">
<path d="M40.4991 185.903C52.0704 185.903 61.4508 176.523 61.4508 164.952C61.4508 153.38 52.0704 144 40.4991 144C28.9278 144 19.5474 153.38 19.5474 164.952C19.5474 176.523 28.9278 185.903 40.4991 185.903Z" fill="#44D7B6"/>
<path d="M41.093 185.895C45.2043 185.78 49.2639 184.465 52.7458 181.952C57.1169 178.798 60.1449 174.064 61.1145 168.709C61.121 168.674 61.1271 168.638 61.1333 168.603C62.3029 161.95 60.2219 155.186 55.526 150.353C55.5259 150.353 55.5259 150.353 55.5259 150.353C57.2871 153.475 54.2911 156.876 51.0884 155.809L44.507 153.616C43.0637 153.135 41.5035 153.135 40.0602 153.616L25.2238 158.559C24.466 158.812 24.467 159.884 25.2252 160.135L27.4727 160.88L29.8374 161.663V173.824L36.1175 174.734C40.4711 175.364 39.9376 180.945 35.5569 180.544C35.5087 180.54 35.4606 180.536 35.4125 180.531C32.6425 180.269 31.8752 184.188 34.4887 185.027C36.6072 185.66 38.7853 185.947 40.9799 185.897C41.0176 185.897 41.0553 185.896 41.093 185.895Z" fill="#1FAA8B"/>
<path d="M31.7112 162.46L32.3813 179.976C34.5407 180.507 37.3204 180.827 40.3535 180.827C47.2274 180.827 52.7997 179.184 52.7997 177.158V162.46H31.7112Z" fill="#265CDE"/>
<path d="M27.9075 162.46V177.158C27.9075 178.29 29.6474 179.302 32.3814 179.975V171.354C32.3814 169.76 33.9417 168.633 35.4551 169.134L38.8479 170.258C39.917 170.612 41.0721 170.61 42.1397 170.251L47.2169 168.545C48.8871 167.983 50.6155 169.226 50.6155 170.988V179.234C51.9929 178.644 52.7996 177.929 52.7996 177.158V166.668V162.46H27.9075Z" fill="#0037BD"/>
<path d="M38.8478 168.621L25.5427 164.213L37.8946 158.898L44.9603 157.744L57.4304 161.898C58.1864 162.15 58.1879 163.219 57.4325 163.473L42.1397 168.613C41.0722 168.972 39.917 168.975 38.8478 168.621Z" fill="#05CDFF"/>
<path d="M42.0376 167.766L32.9946 164.771C31.6146 164.314 31.6017 162.366 32.9755 161.891L44.9602 157.744L42.5769 156.95C41.1336 156.469 39.5734 156.469 38.1301 156.95L23.2939 161.893C22.5361 162.145 22.537 163.217 23.2953 163.469L25.5427 164.213L38.8479 168.62C39.917 168.975 41.0722 168.972 42.1397 168.613L43.8886 168.025C43.2649 168.051 42.6377 167.965 42.0376 167.766Z" fill="#05ACFF"/>
<path d="M49.7191 187C49.1135 187 48.6225 186.509 48.6225 185.903V166.836L39.9814 163.719C39.4117 163.514 39.1164 162.885 39.322 162.315C39.5274 161.746 40.1558 161.451 40.7255 161.656L50.0911 165.034C50.5259 165.191 50.8156 165.604 50.8156 166.066V185.903C50.8157 186.509 50.3247 187 49.7191 187Z" fill="#FFDC64"/>
<path d="M47.461 164.856C47.461 164.393 47.1712 163.981 46.7365 163.824L40.7258 161.656C40.156 161.451 39.5276 161.746 39.3222 162.315C39.1167 162.885 39.412 163.514 39.9816 163.719L45.9925 165.887C46.7071 166.145 47.461 165.615 47.461 164.856Z" fill="#FFF5AA"/>
</g>
<path d="M254 95C265.598 95 275 85.598 275 74C275 62.402 265.598 53 254 53C242.402 53 233 62.402 233 74C233 85.598 242.402 95 254 95Z" fill="#7584F2"/>
<path d="M275 74C275 72.7285 274.887 71.4835 274.671 70.2743L267.76 63.3634L240.24 84.6366L250.274 94.6705C251.484 94.887 252.729 95 254 95C265.598 95 275 85.598 275 74Z" fill="#4253CE"/>
<path d="M240.24 63.3634H267.76V84.6366H240.24V63.3634Z" fill="#E9EDF5"/>
<path d="M254.01 63.3634H267.76V84.6366H254.01V63.3634Z" fill="#CDD2E1"/>
<path d="M243.186 66.4416H264.814V81.5584H243.186V66.4416Z" fill="white"/>
<path d="M254.01 66.4416H264.814V81.5584H254.01V66.4416Z" fill="#E9EDF5"/>
<path d="M262.3 88.7897L259.582 86.9992L256.863 88.7897V80.4834H262.3V88.7897Z" fill="#FF6C52"/>
<path d="M259.577 80.4834L259.581 86.9992L262.3 88.7897V80.4834H259.577Z" fill="#FF432E"/>
<path d="M245.517 68.5869H252.642V71.0479H245.517V68.5869Z" fill="#CDD2E1"/>
<path d="M245.517 76.9522H252.642V79.4132H245.517V76.9522Z" fill="#CDD2E1"/>
<path d="M245.517 72.7695H262.995V75.2305H245.517V72.7695Z" fill="#CDD2E1"/>
<path d="M254.01 72.7695H262.995V75.2305H254.01V72.7695Z" fill="#AFB4C8"/>
<path d="M259.581 84.1276C261.858 84.1276 263.704 82.2818 263.704 80.0047C263.704 77.7277 261.858 75.8819 259.581 75.8819C257.304 75.8819 255.458 77.7277 255.458 80.0047C255.458 82.2818 257.304 84.1276 259.581 84.1276Z" fill="#FFCE00"/>
<path d="M259.581 75.8819C259.58 75.8819 259.578 75.8819 259.577 75.8819V84.1274C259.578 84.1274 259.58 84.1275 259.581 84.1275C261.858 84.1275 263.704 82.2816 263.704 80.0046C263.704 77.7277 261.858 75.8819 259.581 75.8819Z" fill="#FDBA12"/>
<path d="M40 95C51.598 95 61 85.598 61 74C61 62.402 51.598 53 40 53C28.402 53 19 62.402 19 74C19 85.598 28.402 95 40 95Z" fill="#E676E1"/>
<path d="M61.0001 74C61.0001 72.7285 60.887 71.4835 60.6706 70.2743L50 65.5L27.5 79.5L36.2744 94.6705C37.4836 94.887 38.7286 95 40.0001 95C51.5981 95 61.0001 85.598 61.0001 74Z" fill="#C141BC"/>
<path d="M55.0786 93.323L50.6242 92.3427L49.2437 96.7011C49.1444 97.0144 48.72 97.0604 48.556 96.7755L43.0454 87.2029C45.7598 86.6147 48.175 85.2208 50.0295 83.2834L55.4873 92.7656C55.6511 93.05 55.3992 93.3936 55.0786 93.323Z" fill="#FD646F"/>
<path d="M55.0786 93.323L50.9613 92.4168C50.7704 92.3748 50.579 92.4853 50.5199 92.6717L49.2437 96.701C49.1444 97.0143 48.72 97.0603 48.556 96.7754L43.8351 88.574L43.0454 87.2028C45.7598 86.6146 48.175 85.2207 50.0295 83.2833L50.8131 84.6439L55.4874 92.7655C55.651 93.0501 55.3991 93.3936 55.0786 93.323Z" fill="#FD646F"/>
<path d="M55.0786 93.3228L50.9616 92.4168C50.7704 92.3752 50.5792 92.4855 50.5203 92.6714L50.9634 91.2944C51.0232 91.1087 51.2146 90.999 51.4051 91.0413L54.9479 91.8288L55.4874 92.7659C55.6514 93.05 55.399 93.3939 55.0786 93.3228Z" fill="#FC4755"/>
<path d="M38.0414 87.088L32.4437 96.8104C32.2797 97.0953 31.8553 97.0493 31.756 96.736L30.4797 92.7066C30.4207 92.5203 30.2292 92.4097 30.0383 92.4517L25.9211 93.3579C25.6005 93.4285 25.3486 93.0848 25.5124 92.8004L30.7185 83.7556C32.6622 85.5982 35.2839 86.634 38.0414 87.088Z" fill="#FD646F"/>
<path d="M31.4554 85.101L26.8163 93.1605L25.9214 93.3577C25.6008 93.4283 25.3489 93.0847 25.5126 92.8002L29.9441 85.101L31.1425 83.0136C31.4652 83.3191 31.8022 83.6094 32.1536 83.8823L31.4554 85.101Z" fill="#FC4755"/>
<path d="M32.9898 95.8612L32.4434 96.8103C32.2795 97.0952 31.8555 97.0499 31.7558 96.7363L30.4794 92.7069C30.4205 92.5203 30.2293 92.4099 30.0381 92.4515L31.4497 92.141C31.6406 92.099 31.832 92.2095 31.891 92.3958L32.9898 95.8612Z" fill="#FC4755"/>
<path d="M30.8446 83.5254L34.5263 85.1857L38.0415 87.088L37.099 88.724C34.4707 88.1904 32.0321 86.9671 30.0166 85.1653C29.9925 85.1441 29.9683 85.1229 29.9441 85.1009L30.8446 83.5254Z" fill="#FC4755"/>
<path d="M50.8131 84.6439L50.0295 83.2834L45.8827 85.1137L43.0454 87.2029L43.3643 87.7566L44.1474 89.1166L48.556 96.7754C48.72 97.0603 49.1444 97.0143 49.2437 96.701L49.5244 95.8147L45.1425 88.1822C47.2638 87.444 49.1949 86.2431 50.8131 84.6439Z" fill="#FC4755"/>
<path d="M54.2147 73.7564C54.2147 77.4538 52.76 80.8116 50.3924 83.2834C48.5379 85.2208 46.1228 86.6147 43.4083 87.2029C42.4705 87.406 41.4979 87.5128 40.4997 87.5128C39.7379 87.5128 38.9913 87.4507 38.2636 87.3309C35.6474 86.9004 33.2798 85.7271 31.3846 84.0338C31.2818 83.9428 31.1813 83.8504 31.0815 83.7556C30.7279 83.4206 30.3923 83.0666 30.0749 82.696C29.7712 82.3398 29.4855 81.9676 29.2187 81.5811C28.4177 80.4221 27.7897 79.1328 27.3718 77.7518C26.9902 76.4875 26.7847 75.1466 26.7847 73.7565C26.7847 66.1592 32.9254 60 40.4997 60C41.8849 60 43.2224 60.2062 44.4822 60.5897C45.8598 61.0074 47.1445 61.6373 48.3007 62.4415C48.6861 62.7091 49.0571 62.9956 49.4115 63.301C49.8861 63.7073 50.332 64.1462 50.7468 64.613C52.9043 67.0439 54.2147 70.247 54.2147 73.7564Z" fill="#FAA515"/>
<path d="M40.4999 83.6094C45.9252 83.6094 50.3232 79.198 50.3232 73.7564C50.3232 68.3147 45.9252 63.9033 40.4999 63.9033C35.0746 63.9033 30.6765 68.3147 30.6765 73.7564C30.6765 79.198 35.0746 83.6094 40.4999 83.6094Z" fill="#FAD207"/>
<path d="M50.3229 73.7564C50.3229 79.1979 45.9248 83.6093 40.4997 83.6093C35.0746 83.6093 30.6765 79.1979 30.6765 73.7564C30.6765 73.3456 30.7015 72.9408 30.7506 72.5437C31.3461 77.4137 35.4842 81.1838 40.4997 81.1838C45.5152 81.1838 49.6534 77.4137 50.2489 72.5437C50.298 72.9409 50.3229 73.3456 50.3229 73.7564Z" fill="#FAA515"/>
<path fill-rule="evenodd" clip-rule="evenodd" d="M40.4997 63.9036C35.0746 63.9036 30.6765 68.315 30.6765 73.7565C30.6765 79.198 35.0746 83.6094 40.4997 83.6094C45.9248 83.6094 50.3229 79.198 50.3229 73.7565C50.3229 68.315 45.9248 63.9036 40.4997 63.9036ZM40.4997 82.4724C35.7079 82.4724 31.81 78.5627 31.81 73.7565C31.81 68.9502 35.7079 65.0406 40.4997 65.0406C45.2915 65.0406 49.1894 68.9502 49.1894 73.7565C49.1894 78.5627 45.2915 82.4724 40.4997 82.4724Z" fill="#FAF063"/>
<path d="M40.8392 68.3078L42.1887 71.0644C42.2436 71.1767 42.3506 71.2545 42.4743 71.2723L45.507 71.708C45.8174 71.7526 45.9415 72.134 45.7168 72.3527L43.5173 74.4945C43.4279 74.5815 43.3873 74.7069 43.4085 74.8297L43.9327 77.8581C43.9862 78.1675 43.6609 78.4034 43.3834 78.2564L40.6768 76.8221C40.5661 76.7635 40.4336 76.7635 40.323 76.8221L37.6163 78.2564C37.3388 78.4035 37.0135 78.1675 37.0671 77.8581L37.5912 74.8297C37.6125 74.7069 37.5718 74.5815 37.4825 74.4945L35.2829 72.3527C35.0582 72.1339 35.1824 71.7526 35.4927 71.708L38.5254 71.2723C38.6491 71.2545 38.756 71.1767 38.8111 71.0644L40.1605 68.3078C40.2987 68.0255 40.701 68.0255 40.8392 68.3078Z" fill="#FAA515"/>
<defs>
<clipPath id="clip0">
<rect width="43" height="43" fill="white" transform="translate(19 144)"/>
</clipPath>
</defs>
</svg>
