<svg width="42" height="42" viewBox="0 0 42 42" fill="none" xmlns="http://www.w3.org/2000/svg">
<path d="M21 42C32.598 42 42 32.598 42 21C42 9.40202 32.598 0 21 0C9.40202 0 0 9.40202 0 21C0 32.598 9.40202 42 21 42Z" fill="#7584F2"/>
<path d="M42.0001 21C42.0001 19.7285 41.887 18.4835 41.6706 17.2743L34.7597 10.3634L7.24048 31.6366L17.2744 41.6705C18.4836 41.887 19.7286 42 21.0001 42C32.5981 42 42.0001 32.598 42.0001 21Z" fill="#4253CE"/>
<path d="M7.24048 10.3634H34.7597V31.6366H7.24048V10.3634Z" fill="#E9EDF5"/>
<path d="M21.0098 10.3634H34.7595V31.6366H21.0098V10.3634Z" fill="#CDD2E1"/>
<path d="M10.1864 13.4417H31.8137V28.5584H10.1864V13.4417Z" fill="white"/>
<path d="M21.0098 13.4417H31.8135V28.5584H21.0098V13.4417Z" fill="#E9EDF5"/>
<path d="M29.3003 35.7898L26.5816 33.9992L23.8628 35.7898V27.4834H29.3003V35.7898Z" fill="#FF6C52"/>
<path d="M26.5769 27.4834L26.5814 33.9992L29.3002 35.7898V27.4834H26.5769Z" fill="#FF432E"/>
<path d="M12.517 15.5869H19.6419V18.0479H12.517V15.5869Z" fill="#CDD2E1"/>
<path d="M12.517 23.9522H19.6419V26.4132H12.517V23.9522Z" fill="#CDD2E1"/>
<path d="M12.517 19.7695H29.9951V22.2305H12.517V19.7695Z" fill="#CDD2E1"/>
<path d="M21.0098 19.7695H29.995V22.2305H21.0098V19.7695Z" fill="#AFB4C8"/>
<path d="M26.5815 31.1276C28.8585 31.1276 30.7044 29.2818 30.7044 27.0047C30.7044 24.7277 28.8585 22.8819 26.5815 22.8819C24.3045 22.8819 22.4586 24.7277 22.4586 27.0047C22.4586 29.2818 24.3045 31.1276 26.5815 31.1276Z" fill="#FFCE00"/>
<path d="M26.5814 22.8819C26.5799 22.8819 26.5785 22.8819 26.5769 22.8819V31.1274C26.5784 31.1274 26.5799 31.1275 26.5814 31.1275C28.8584 31.1275 30.7042 29.2816 30.7042 27.0046C30.7042 24.7277 28.8584 22.8819 26.5814 22.8819Z" fill="#FDBA12"/>
</svg>
