<svg width="42" height="44" viewBox="0 0 42 44" fill="none" xmlns="http://www.w3.org/2000/svg">
<path d="M21 42C32.598 42 42 32.598 42 21C42 9.40202 32.598 0 21 0C9.40202 0 0 9.40202 0 21C0 32.598 9.40202 42 21 42Z" fill="#E676E1"/>
<path d="M42.0001 21C42.0001 19.7285 41.887 18.4835 41.6706 17.2743L31 12.5L8.5 26.5L17.2744 41.6705C18.4836 41.887 19.7286 42 21.0001 42C32.5981 42 42.0001 32.598 42.0001 21Z" fill="#C141BC"/>
<path d="M36.0786 40.3231L31.6242 39.3427L30.2437 43.7011C30.1444 44.0144 29.72 44.0604 29.556 43.7755L24.0454 34.2029C26.7598 33.6147 29.175 32.2208 31.0295 30.2834L36.4873 39.7656C36.6511 40.05 36.3992 40.3936 36.0786 40.3231Z" fill="#FD646F"/>
<path d="M36.0786 40.323L31.9613 39.4168C31.7704 39.3748 31.579 39.4853 31.5199 39.6717L30.2437 43.701C30.1444 44.0143 29.72 44.0603 29.556 43.7754L24.8351 35.574L24.0454 34.2028C26.7598 33.6146 29.175 32.2207 31.0295 30.2833L31.8131 31.6439L36.4874 39.7655C36.651 40.0501 36.3991 40.3936 36.0786 40.323Z" fill="#FD646F"/>
<path d="M36.0786 40.3228L31.9616 39.4168C31.7704 39.3752 31.5792 39.4855 31.5203 39.6714L31.9634 38.2944C32.0232 38.1087 32.2146 37.999 32.4051 38.0413L35.9479 38.8288L36.4874 39.7659C36.6514 40.05 36.399 40.3939 36.0786 40.3228Z" fill="#FC4755"/>
<path d="M19.0414 34.088L13.4437 43.8104C13.2797 44.0953 12.8553 44.0493 12.756 43.736L11.4797 39.7066C11.4207 39.5203 11.2292 39.4097 11.0383 39.4517L6.92105 40.3579C6.60049 40.4285 6.34862 40.0848 6.51237 39.8004L11.7185 30.7556C13.6622 32.5982 16.2839 33.634 19.0414 34.088Z" fill="#FD646F"/>
<path d="M12.4554 32.101L7.81625 40.1605L6.92136 40.3577C6.6008 40.4283 6.34885 40.0847 6.51261 39.8002L10.9441 32.101L12.1425 30.0136C12.4652 30.3191 12.8022 30.6094 13.1536 30.8823L12.4554 32.101Z" fill="#FC4755"/>
<path d="M13.9898 42.8612L13.4434 43.8103C13.2795 44.0952 12.8555 44.0499 12.7558 43.7363L11.4794 39.7069C11.4205 39.5203 11.2293 39.4099 11.0381 39.4515L12.4497 39.141C12.6406 39.099 12.832 39.2095 12.891 39.3958L13.9898 42.8612Z" fill="#FC4755"/>
<path d="M11.8446 30.5254L15.5263 32.1857L19.0415 34.088L18.099 35.7241C15.4707 35.1905 13.0321 33.9671 11.0166 32.1654C10.9925 32.1441 10.9683 32.1229 10.9441 32.1009L11.8446 30.5254Z" fill="#FC4755"/>
<path d="M31.8131 31.6439L31.0295 30.2834L26.8827 32.1137L24.0454 34.2029L24.3643 34.7566L25.1474 36.1166L29.556 43.7754C29.72 44.0603 30.1444 44.0143 30.2437 43.701L30.5244 42.8147L26.1425 35.1822C28.2638 34.444 30.1949 33.2431 31.8131 31.6439Z" fill="#FC4755"/>
<path d="M35.2147 20.7564C35.2147 24.4538 33.76 27.8116 31.3924 30.2834C29.5379 32.2208 27.1228 33.6147 24.4083 34.2029C23.4705 34.406 22.4979 34.5128 21.4997 34.5128C20.7379 34.5128 19.9913 34.4507 19.2636 34.3309C16.6474 33.9004 14.2798 32.7271 12.3846 31.0338C12.2818 30.9428 12.1813 30.8504 12.0815 30.7556C11.7279 30.4206 11.3923 30.0666 11.0749 29.696C10.7712 29.3398 10.4855 28.9676 10.2187 28.5811C9.41771 27.4221 8.78973 26.1328 8.37184 24.7518C7.99022 23.4875 7.78467 22.1466 7.78467 20.7565C7.78467 13.1592 13.9254 7 21.4997 7C22.8849 7 24.2224 7.20615 25.4822 7.58974C26.8598 8.00741 28.1445 8.63728 29.3007 9.44148C29.6861 9.70907 30.0571 9.99555 30.4115 10.301C30.8861 10.7073 31.332 11.1462 31.7468 11.613C33.9043 14.0439 35.2147 17.247 35.2147 20.7564Z" fill="#FAA515"/>
<path d="M21.4999 30.6094C26.9252 30.6094 31.3232 26.198 31.3232 20.7564C31.3232 15.3147 26.9252 10.9033 21.4999 10.9033C16.0746 10.9033 11.6765 15.3147 11.6765 20.7564C11.6765 26.198 16.0746 30.6094 21.4999 30.6094Z" fill="#FAD207"/>
<path d="M31.3229 20.7564C31.3229 26.1979 26.9248 30.6093 21.4997 30.6093C16.0746 30.6093 11.6765 26.1979 11.6765 20.7564C11.6765 20.3456 11.7015 19.9408 11.7506 19.5437C12.3461 24.4137 16.4842 28.1838 21.4997 28.1838C26.5152 28.1838 30.6534 24.4137 31.2489 19.5437C31.298 19.9409 31.3229 20.3456 31.3229 20.7564Z" fill="#FAA515"/>
<path fill-rule="evenodd" clip-rule="evenodd" d="M21.4997 10.9036C16.0746 10.9036 11.6765 15.315 11.6765 20.7565C11.6765 26.198 16.0746 30.6094 21.4997 30.6094C26.9248 30.6094 31.3229 26.198 31.3229 20.7565C31.3229 15.315 26.9248 10.9036 21.4997 10.9036ZM21.4997 29.4724C16.7079 29.4724 12.81 25.5627 12.81 20.7565C12.81 15.9502 16.7079 12.0406 21.4997 12.0406C26.2915 12.0406 30.1894 15.9502 30.1894 20.7565C30.1894 25.5627 26.2915 29.4724 21.4997 29.4724Z" fill="#FAF063"/>
<path d="M21.8392 15.3078L23.1887 18.0644C23.2436 18.1767 23.3506 18.2545 23.4743 18.2723L26.507 18.708C26.8174 18.7526 26.9415 19.134 26.7168 19.3527L24.5173 21.4945C24.4279 21.5815 24.3873 21.7069 24.4085 21.8297L24.9327 24.8581C24.9862 25.1675 24.6609 25.4034 24.3834 25.2564L21.6768 23.8221C21.5661 23.7635 21.4336 23.7635 21.323 23.8221L18.6163 25.2564C18.3388 25.4035 18.0135 25.1676 18.0671 24.8581L18.5912 21.8297C18.6125 21.7069 18.5718 21.5815 18.4825 21.4945L16.2829 19.3527C16.0582 19.1339 16.1824 18.7526 16.4927 18.708L19.5254 18.2723C19.6491 18.2545 19.756 18.1767 19.8111 18.0644L21.1605 15.3078C21.2987 15.0255 21.701 15.0255 21.8392 15.3078Z" fill="#FAA515"/>
</svg>
