<svg width="119" height="19" viewBox="0 0 119 19" fill="none" xmlns="http://www.w3.org/2000/svg">
<path d="M37.4584 8.56273C37.4584 9.13101 37.4341 9.57751 37.3854 9.90224H28.8612C29.1535 11.4772 30.1358 12.2647 31.8081 12.2647C32.6849 12.2647 33.3019 12.0455 33.6591 11.6071H37.1905C36.8009 12.6949 36.1189 13.5473 35.1447 14.1643C34.1868 14.7651 33.0665 15.0655 31.7838 15.0655C29.949 15.0655 28.4553 14.4891 27.3025 13.3363C26.1659 12.1835 25.5977 10.7303 25.5977 8.97676C25.5977 7.22322 26.1578 5.77005 27.2781 4.61725C28.3985 3.44822 29.8354 2.86371 31.5889 2.86371C33.31 2.86371 34.7145 3.3914 35.8023 4.44677C36.9064 5.48591 37.4584 6.85789 37.4584 8.56273ZM31.6133 5.56709C30.1682 5.56709 29.2752 6.28962 28.9343 7.73467H34.2192C34.0569 6.28962 33.1882 5.56709 31.6133 5.56709Z" fill="white"/>
<path d="M49.2125 2.86371C50.7712 2.86371 52.0133 3.37516 52.9387 4.39806C53.8805 5.40472 54.3513 6.76048 54.3513 8.46531V14.7732H51.1608V8.66015C51.1608 7.71843 50.9335 7.00402 50.4789 6.51693C50.0243 6.01359 49.3748 5.76193 48.5305 5.76193C47.5888 5.76193 46.6958 6.25714 45.8515 7.24757V14.7732H42.661V3.15597H45.8515V4.03274C46.8257 3.25339 47.946 2.86371 49.2125 2.86371Z" fill="white"/>
<path d="M62.3064 10.7547C62.485 11.9075 63.3212 12.4838 64.8149 12.4838C66.195 12.4838 66.8851 12.1591 66.8851 11.5097C66.8851 10.9901 66.4873 10.6572 65.6917 10.5111L63.1832 10.0727C62.1927 9.91036 61.3728 9.55316 60.7233 9.00111C60.0739 8.44907 59.7491 7.66972 59.7491 6.66306C59.7491 5.47779 60.2038 4.54419 61.113 3.86226C62.0223 3.18032 63.2238 2.83936 64.7175 2.83936C67.9323 2.83936 69.6453 4.14639 69.8564 6.76047H66.9094C66.8445 5.83499 66.1139 5.37225 64.7175 5.37225C63.516 5.37225 62.9153 5.69698 62.9153 6.34644C62.9153 6.9472 63.3942 7.32875 64.3522 7.49112L66.4467 7.83208C68.7685 8.238 69.9294 9.36644 69.9294 11.2174C69.9294 12.4676 69.4505 13.4256 68.4925 14.0913C67.5345 14.7407 66.2843 15.0655 64.7419 15.0655C64.0599 15.0655 63.4267 14.9924 62.8422 14.8463C62.2577 14.7164 61.7056 14.4972 61.1861 14.1887C60.6665 13.864 60.2444 13.4093 59.9196 12.8248C59.6111 12.2403 59.4244 11.5421 59.3595 10.7303L62.3064 10.7547Z" fill="white"/>
<path d="M83.7234 3.15597H87.1087L81.7994 14.7732H79.0229L73.7136 3.15597H77.0989L80.4111 10.6816L83.7234 3.15597Z" fill="white"/>
<path d="M102.258 8.56273C102.258 9.13101 102.234 9.57751 102.185 9.90224H93.6611C93.9533 11.4772 94.9356 12.2647 96.608 12.2647C97.4848 12.2647 98.1018 12.0455 98.459 11.6071H101.99C101.601 12.6949 100.919 13.5473 99.9446 14.1643C98.9867 14.7651 97.8663 15.0655 96.5836 15.0655C94.7489 15.0655 93.2552 14.4891 92.1024 13.3363C90.9658 12.1835 90.3975 10.7303 90.3975 8.97676C90.3975 7.22322 90.9577 5.77005 92.078 4.61725C93.1983 3.44822 94.6353 2.86371 96.3888 2.86371C98.1099 2.86371 99.5143 3.3914 100.602 4.44677C101.706 5.48591 102.258 6.85789 102.258 8.56273ZM96.4132 5.56709C94.9681 5.56709 94.0751 6.28962 93.7341 7.73467H99.0191C98.8568 6.28962 97.9881 5.56709 96.4132 5.56709Z" fill="white"/>
<path d="M118.999 8.56273C118.999 9.13101 118.975 9.57751 118.926 9.90224H110.402C110.694 11.4772 111.677 12.2647 113.349 12.2647C114.226 12.2647 114.843 12.0455 115.2 11.6071H118.731C118.342 12.6949 117.66 13.5473 116.686 14.1643C115.728 14.7651 114.607 15.0655 113.325 15.0655C111.49 15.0655 109.996 14.4891 108.843 13.3363C107.707 12.1835 107.139 10.7303 107.139 8.97676C107.139 7.22322 107.699 5.77005 108.819 4.61725C109.939 3.44822 111.376 2.86371 113.13 2.86371C114.851 2.86371 116.255 3.3914 117.343 4.44677C118.447 5.48591 118.999 6.85789 118.999 8.56273ZM113.154 5.56709C111.709 5.56709 110.816 6.28962 110.475 7.73467H115.76C115.598 6.28962 114.729 5.56709 113.154 5.56709Z" fill="white"/>
<path fill-rule="evenodd" clip-rule="evenodd" d="M8.06666 1.61523C3.59694 1.7011 0 5.35125 0 9.84151C0 14.3856 3.68372 18.0693 8.22782 18.0693C12.7719 18.0693 16.4556 14.3856 16.4556 9.84151C16.4556 9.788 16.4551 9.73462 16.4541 9.68136H14.195C14.1964 9.73464 14.1971 9.78809 14.1971 9.8417C14.1971 13.1384 11.5246 15.8109 8.22789 15.8109C4.93119 15.8109 2.25869 13.1384 2.25869 9.8417C2.25869 6.59892 4.8445 3.96008 8.06666 3.87464V1.61523Z" fill="white"/>
<path fill-rule="evenodd" clip-rule="evenodd" d="M13.5102 2.4543C10.3182 4.27843 7.42015 5.93455 5.96722 7.17738C5.0773 7.93861 3.67436 10.0157 5.182 12.2342C6.68963 14.4526 9.36989 13.376 10.5216 12.5604C11.8928 11.5144 13.4116 8.47352 15.1063 5.08046C15.9422 3.40695 16.8208 1.64777 17.7456 0C16.3413 0.836419 14.898 1.66124 13.5102 2.4543ZM11.9383 5.80761C10.0581 6.89794 7.85594 8.25661 7.34183 8.71274C6.99454 9.02086 6.44705 9.86159 7.0354 10.7595C7.62374 11.6575 8.6697 11.2217 9.11913 10.8916C9.68101 10.4789 10.7411 8.28493 11.7317 6.23483C11.801 6.0915 11.8699 5.94888 11.9383 5.80761Z" fill="white"/>
</svg>
