<svg width="175" height="27" viewBox="0 0 175 27" fill="none" xmlns="http://www.w3.org/2000/svg">
<path d="M55.0868 12.8061C55.0868 13.6418 55.051 14.2985 54.9794 14.776H42.4439C42.8736 17.0921 44.3182 18.2501 46.7776 18.2501C48.0669 18.2501 48.9743 17.9278 49.4996 17.2831H54.6929C54.1198 18.8829 53.117 20.1364 51.6843 21.0438C50.2756 21.9272 48.6281 22.369 46.7418 22.369C44.0436 22.369 41.8469 21.5213 40.1516 19.826C38.4802 18.1307 37.6445 15.9937 37.6445 13.415C37.6445 10.8363 38.4683 8.69924 40.1158 7.00396C41.7634 5.2848 43.8765 4.42522 46.4552 4.42522C48.9862 4.42522 51.0516 5.20123 52.6514 6.75325C54.275 8.28139 55.0868 10.299 55.0868 12.8061ZM46.491 8.40078C44.366 8.40078 43.0527 9.46332 42.5513 11.5884H50.3233C50.0846 9.46332 48.8071 8.40078 46.491 8.40078Z" fill="white"/>
<path d="M72.3722 4.42522C74.6644 4.42522 76.491 5.17735 77.852 6.68162C79.2369 8.162 79.9293 10.1558 79.9293 12.6629V21.9392H75.2374V12.9494C75.2374 11.5645 74.9032 10.5139 74.2346 9.7976C73.566 9.0574 72.6109 8.6873 71.3693 8.6873C69.9845 8.6873 68.6712 9.41556 67.4296 10.8721V21.9392H62.7377V4.85501H67.4296V6.14438C68.8622 4.99827 70.5098 4.42522 72.3722 4.42522Z" fill="white"/>
<path d="M91.6279 16.0296C91.8906 17.7248 93.1203 18.5725 95.317 18.5725C97.3465 18.5725 98.3613 18.0949 98.3613 17.1398C98.3613 16.3758 97.7763 15.8863 96.6063 15.6714L92.9173 15.0267C91.4608 14.7879 90.255 14.2626 89.2999 13.4508C88.3448 12.639 87.8673 11.4929 87.8673 10.0125C87.8673 8.26945 88.5358 6.89651 89.873 5.89367C91.2101 4.89083 92.977 4.3894 95.1737 4.3894C99.9014 4.3894 102.42 6.31152 102.731 10.1558H98.3971C98.3016 8.79475 97.2271 8.11425 95.1737 8.11425C93.4068 8.11425 92.5233 8.5918 92.5233 9.54689C92.5233 10.4303 93.2277 10.9915 94.6365 11.2302L97.7166 11.7316C101.131 12.3286 102.838 13.988 102.838 16.7101C102.838 18.5486 102.134 19.9574 100.725 20.9363C99.3164 21.8914 97.4779 22.369 95.2095 22.369C94.2067 22.369 93.2755 22.2615 92.4159 22.0466C91.5563 21.8556 90.7445 21.5333 89.9804 21.0796C89.2163 20.602 88.5955 19.9335 88.118 19.0739C87.6643 18.2143 87.3897 17.1876 87.2942 15.9937L91.6279 16.0296Z" fill="white"/>
<path d="M123.123 4.85501H128.102L120.294 21.9392H116.211L108.403 4.85501H113.382L118.253 15.9221L123.123 4.85501Z" fill="white"/>
<path d="M150.381 12.8061C150.381 13.6418 150.345 14.2985 150.273 14.776H137.738C138.168 17.0921 139.612 18.2501 142.071 18.2501C143.361 18.2501 144.268 17.9278 144.793 17.2831H149.987C149.414 18.8829 148.411 20.1364 146.978 21.0438C145.569 21.9272 143.922 22.369 142.036 22.369C139.338 22.369 137.141 21.5213 135.446 19.826C133.774 18.1307 132.938 15.9937 132.938 13.415C132.938 10.8363 133.762 8.69924 135.41 7.00396C137.057 5.2848 139.17 4.42522 141.749 4.42522C144.28 4.42522 146.345 5.20123 147.945 6.75325C149.569 8.28139 150.381 10.299 150.381 12.8061ZM141.785 8.40078C139.66 8.40078 138.347 9.46332 137.845 11.5884H145.617C145.378 9.46332 144.101 8.40078 141.785 8.40078Z" fill="white"/>
<path d="M175 12.8061C175 13.6418 174.964 14.2985 174.892 14.776H162.357C162.787 17.0921 164.231 18.2501 166.691 18.2501C167.98 18.2501 168.887 17.9278 169.413 17.2831H174.606C174.033 18.8829 173.03 20.1364 171.597 21.0438C170.189 21.9272 168.541 22.369 166.655 22.369C163.957 22.369 161.76 21.5213 160.065 19.826C158.393 18.1307 157.558 15.9937 157.558 13.415C157.558 10.8363 158.381 8.69924 160.029 7.00396C161.676 5.2848 163.79 4.42522 166.368 4.42522C168.899 4.42522 170.965 5.20123 172.564 6.75325C174.188 8.28139 175 10.299 175 12.8061ZM166.404 8.40078C164.279 8.40078 162.966 9.46332 162.464 11.5884H170.236C169.998 9.46332 168.72 8.40078 166.404 8.40078Z" fill="white"/>
<path fill-rule="evenodd" clip-rule="evenodd" d="M11.8629 2.58929C5.2897 2.71549 0 8.08338 0 14.6868C0 21.3692 5.41723 26.7865 12.0997 26.7865C18.7822 26.7865 24.1995 21.3692 24.1995 14.6868C24.1995 14.608 24.1987 14.5294 24.1972 14.451H20.8749C20.877 14.5294 20.878 14.608 20.878 14.6868C20.878 19.5349 16.9479 23.4651 12.0998 23.4651C7.25171 23.4651 3.32156 19.5349 3.32156 14.6868C3.32156 9.91796 7.12432 6.03728 11.8629 5.91173V2.58929Z" fill="url(#paint0_linear)"/>
<path fill-rule="evenodd" clip-rule="evenodd" d="M19.8685 3.82289C15.1743 6.50543 10.9125 8.9409 8.77585 10.7686C7.46713 11.888 5.40399 14.9426 7.6211 18.205C9.83821 21.4675 13.7798 19.8842 15.4734 18.6848C17.4899 17.1465 19.7234 12.6747 22.2156 7.68489C23.4449 5.22385 24.737 2.63681 26.097 0.213623C24.0319 1.44365 21.9093 2.65662 19.8685 3.82289ZM17.556 8.7543C14.791 10.3577 11.5526 12.3558 10.7965 13.0265C10.2858 13.4797 9.48069 14.716 10.3459 16.0365C11.2111 17.3571 12.7493 16.7162 13.4102 16.2307C14.2365 15.6238 15.7955 12.3974 17.2523 9.38254C17.3541 9.17177 17.4555 8.96204 17.556 8.7543Z" fill="url(#paint1_linear)"/>
<defs>
<linearGradient id="paint0_linear" x1="24.1995" y1="14.6879" x2="0" y2="14.6879" gradientUnits="userSpaceOnUse">
<stop stop-color="#44D7B6"/>
<stop offset="1" stop-color="#3BB0EA"/>
</linearGradient>
<linearGradient id="paint1_linear" x1="26.097" y1="10.1781" x2="6.64258" y2="10.1781" gradientUnits="userSpaceOnUse">
<stop stop-color="#44D7B6"/>
<stop offset="1" stop-color="#3BB0EA"/>
</linearGradient>
</defs>
</svg>
