<svg width="696" height="720" viewBox="0 0 696 720" fill="none" xmlns="http://www.w3.org/2000/svg">
<circle opacity="0.45" cx="89" cy="448.5" r="88.5" fill="#FDB400"/>
<circle opacity="0.45" cx="89" cy="625.5" r="88.5" fill="#FDB400"/>
<circle cx="266" cy="625.5" r="88.5" fill="#FDB400"/>
<circle cx="266" cy="448.5" r="88.5" fill="#FDB400"/>
<path d="M715.5 539.5C725.5 590 754.618 706.294 727 738C693.909 775.99 596 741.5 535 720C468.5 696.561 354.5 639.187 354.5 539.5C354.5 439.813 435.313 359 535 359C634.687 359 693 445.5 715.5 539.5Z" fill="#FF5670"/>
<rect opacity="0.5" x="354.5" width="355" height="359" fill="#4A90E2"/>
<mask id="mask0" mask-type="alpha" maskUnits="userSpaceOnUse" x="354" y="0" width="356" height="359">
<rect x="354.5" width="355" height="359" fill="#498CDC"/>
</mask>
<g mask="url(#mask0)">
<path d="M293.399 164.324C309.932 227.186 341.09 375.311 389.96 396.058C448.516 420.916 540.649 327.681 598.044 269.579C660.613 206.238 758.38 78.1322 703.328 -35.0555C648.277 -148.243 511.883 -195.367 398.684 -140.31C285.485 -85.2529 267.038 45.1674 293.399 164.324Z" fill="#4A90E2"/>
</g>
</svg>
