<svg width="18" height="30" viewBox="0 0 18 30" fill="none" xmlns="http://www.w3.org/2000/svg">
<path fill-rule="evenodd" clip-rule="evenodd" d="M8.754 18.4499L15.2536 11.9503L14.0582 10.7549L9.59928 15.2137V0.179686H7.90871V15.2137L3.44982 10.7549L2.25437 11.9503L8.754 18.4499Z" fill="#4A90E2"/>
<path d="M4.87 29L3.36 26.65L1.99 29H0.41L2.61 25.48L0.38 22.02H1.99L3.5 24.36L4.86 22.02H6.44L4.25 25.53L6.48 29H4.87ZM8.94547 27.89H11.2455V29H7.54547V22.02H8.94547V27.89ZM14.5453 29.07C14.0586 29.07 13.6186 28.9867 13.2253 28.82C12.8386 28.6533 12.532 28.4133 12.3053 28.1C12.0786 27.7867 11.962 27.4167 11.9553 26.99H13.4553C13.4753 27.2767 13.5753 27.5033 13.7553 27.67C13.942 27.8367 14.1953 27.92 14.5153 27.92C14.842 27.92 15.0986 27.8433 15.2853 27.69C15.472 27.53 15.5653 27.3233 15.5653 27.07C15.5653 26.8633 15.502 26.6933 15.3753 26.56C15.2486 26.4267 15.0886 26.3233 14.8953 26.25C14.7086 26.17 14.4486 26.0833 14.1153 25.99C13.662 25.8567 13.292 25.7267 13.0053 25.6C12.7253 25.4667 12.482 25.27 12.2753 25.01C12.0753 24.7433 11.9753 24.39 11.9753 23.95C11.9753 23.5367 12.0786 23.1767 12.2853 22.87C12.492 22.5633 12.782 22.33 13.1553 22.17C13.5286 22.0033 13.9553 21.92 14.4353 21.92C15.1553 21.92 15.7386 22.0967 16.1853 22.45C16.6386 22.7967 16.8886 23.2833 16.9353 23.91H15.3953C15.382 23.67 15.2786 23.4733 15.0853 23.32C14.8986 23.16 14.6486 23.08 14.3353 23.08C14.062 23.08 13.842 23.15 13.6753 23.29C13.5153 23.43 13.4353 23.6333 13.4353 23.9C13.4353 24.0867 13.4953 24.2433 13.6153 24.37C13.742 24.49 13.8953 24.59 14.0753 24.67C14.262 24.7433 14.522 24.83 14.8553 24.93C15.3086 25.0633 15.6786 25.1967 15.9653 25.33C16.252 25.4633 16.4986 25.6633 16.7053 25.93C16.912 26.1967 17.0153 26.5467 17.0153 26.98C17.0153 27.3533 16.9186 27.7 16.7253 28.02C16.532 28.34 16.2486 28.5967 15.8753 28.79C15.502 28.9767 15.0586 29.07 14.5453 29.07Z" fill="#4A90E2"/>
</svg>
