<svg width="19" height="18" viewBox="0 0 19 18" fill="none" xmlns="http://www.w3.org/2000/svg">
<path d="M17.9999 14.4782H15.9158C15.577 13.3505 14.5408 12.5217 13.3043 12.5217C12.0678 12.5217 11.0324 13.3505 10.6928 14.4782H0.782593C0.350595 14.4782 0 14.8289 0 15.2609C0 15.6929 0.350595 16.0435 0.782593 16.0435H10.6927C11.0316 17.1712 12.0678 18 13.3043 18C14.5408 18 15.5762 17.1712 15.9158 16.0435H17.9999C18.4327 16.0435 18.7825 15.6929 18.7825 15.2609C18.7825 14.8289 18.4327 14.4782 17.9999 14.4782ZM13.3043 16.4348C12.6571 16.4348 12.1304 15.9081 12.1304 15.2609C12.1304 14.6136 12.6571 14.087 13.3043 14.087C13.9515 14.087 14.4782 14.6136 14.4782 15.2609C14.4782 15.9081 13.9515 16.4348 13.3043 16.4348Z" fill="#4A90E2"/>
<path d="M17.9999 1.9565H15.9158C15.5762 0.828779 14.5408 0 13.3043 0C12.0678 0 11.0324 0.828779 10.6927 1.9565H0.782593C0.350595 1.9565 0 2.3071 0 2.73909C0 3.17109 0.350595 3.52169 0.782593 3.52169H10.6927C11.0324 4.64945 12.0678 5.47822 13.3043 5.47822C14.5408 5.47822 15.5762 4.64945 15.9158 3.52172H17.9999C18.4327 3.52172 18.7825 3.17113 18.7825 2.73913C18.7825 2.30713 18.4327 1.9565 17.9999 1.9565ZM13.3043 3.913C12.6571 3.913 12.1304 3.38632 12.1304 2.73909C12.1304 2.09187 12.6571 1.56519 13.3043 1.56519C13.9515 1.56519 14.4782 2.09187 14.4782 2.73909C14.4782 3.38632 13.9515 3.913 13.3043 3.913Z" fill="#4A90E2"/>
<path d="M17.9999 8.21676H8.0898C7.75014 7.08903 6.71475 6.26025 5.47826 6.26025C4.24177 6.26025 3.20635 7.08903 2.86672 8.21676H0.782593C0.350595 8.21676 0 8.56735 0 8.99935C0 9.43135 0.350595 9.78195 0.782593 9.78195H2.86668C3.20635 10.9097 4.24173 11.7385 5.47822 11.7385C6.71472 11.7385 7.75014 10.9097 8.08977 9.78195H17.9999C18.4327 9.78195 18.7825 9.43135 18.7825 8.99935C18.7825 8.56735 18.4327 8.21676 17.9999 8.21676ZM5.47822 10.1733C4.831 10.1733 4.30432 9.64658 4.30432 8.99935C4.30432 8.35212 4.831 7.82544 5.47822 7.82544C6.12545 7.82544 6.65213 8.35212 6.65213 8.99935C6.65213 9.64658 6.12545 10.1733 5.47822 10.1733Z" fill="#4A90E2"/>
</svg>
