<svg width="24" height="22" viewBox="0 0 24 22" fill="none" xmlns="http://www.w3.org/2000/svg">
<path d="M23.229 9.94183L19.6484 6.36126V2.22509C19.6484 1.47722 19.0424 0.871126 18.2934 0.871126C17.5462 0.871126 16.9401 1.47722 16.9401 2.22509V3.65298L14.2741 0.98687C12.956 -0.330521 10.6642 -0.328184 9.34914 0.989254L0.396376 9.94183C-0.132125 10.4714 -0.132125 11.3282 0.396376 11.857C0.925116 12.3864 1.78363 12.3864 2.31218 11.857L11.2641 2.90415C11.5557 2.61406 12.0697 2.61406 12.3598 2.9033L21.3132 11.857C21.5787 12.1217 21.9249 12.2534 22.2709 12.2534C22.6177 12.2534 22.9644 12.1215 23.229 11.857C23.7577 11.3283 23.7577 10.4714 23.229 9.94183Z" fill="#E0E0E0"/>
<path d="M12.2827 5.47463C12.0226 5.21467 11.6015 5.21467 11.3421 5.47463L3.46727 13.3472C3.34295 13.4714 3.27246 13.6411 3.27246 13.8182V19.5601C3.27246 20.9075 4.36495 22 5.71229 22H9.61114V15.9619H14.0129V22H17.9118C19.2591 22 20.3516 20.9075 20.3516 19.5602V13.8182C20.3516 13.6411 20.2817 13.4714 20.1568 13.3472L12.2827 5.47463Z" fill="#E0E0E0"/>
</svg>
