<svg width="21" height="18" viewBox="0 0 21 18" fill="none" xmlns="http://www.w3.org/2000/svg">
<path fill-rule="evenodd" clip-rule="evenodd" d="M0.701294 1.47617C0.701294 0.841044 1.21617 0.326172 1.85129 0.326172H6.62302C7.25815 0.326172 7.77302 0.841044 7.77302 1.47617C7.77302 2.1113 7.25815 2.62617 6.62302 2.62617H3.00129V15.3951H6.62302C7.25815 15.3951 7.77302 15.91 7.77302 16.5451C7.77302 17.1802 7.25815 17.6951 6.62302 17.6951H1.85129C1.21617 17.6951 0.701294 17.1802 0.701294 16.5451V1.47617Z" fill="#E0E0E0"/>
<path fill-rule="evenodd" clip-rule="evenodd" d="M15.3869 3.64567C14.9636 3.22239 14.2773 3.22239 13.8541 3.64567C13.4308 4.06895 13.4308 4.75523 13.8541 5.17851L16.6023 7.92671L6.59502 7.92671L6.59502 10.0945L16.6023 10.0945L13.8541 12.8427C13.4308 13.2659 13.4308 13.9522 13.8541 14.3755C14.2773 14.7988 14.9636 14.7988 15.3869 14.3755L19.9854 9.777C20.4087 9.35372 20.4087 8.66745 19.9854 8.24417L15.3869 3.64567Z" fill="#E0E0E0"/>
</svg>
