<svg width="15" height="24" viewBox="0 0 15 24" fill="none" xmlns="http://www.w3.org/2000/svg">
<path d="M1 6.89422H3.56081C3.72554 4.75273 5.16318 3.41991 7.42448 3.41991C9.65582 3.41991 11.0935 4.78268 11.0935 6.63964C11.0935 8.24202 10.4196 9.18547 8.68242 10.2487C6.63078 11.4767 5.67235 12.8245 5.68732 14.8013V16.179H8.30803V15.2056C8.30803 13.6332 8.84715 12.7946 10.749 11.6714C12.6659 10.5183 13.8789 8.85601 13.8789 6.50486C13.8789 3.41991 11.3031 1.08374 7.52931 1.08374C3.3212 1.08374 1.16473 3.6745 1 6.89422ZM7.00516 23.0078C7.97857 23.0078 8.71237 22.2591 8.71237 21.3006C8.71237 20.3272 7.97857 19.5934 7.00516 19.5934C6.04673 19.5934 5.29796 20.3272 5.29796 21.3006C5.29796 22.2591 6.04673 23.0078 7.00516 23.0078Z" fill="#9196A5" stroke="white" stroke-width="0.5"/>
</svg>
