<svg width="12" height="12" viewBox="0 0 12 12" fill="none" xmlns="http://www.w3.org/2000/svg">
<path d="M6.66 6.00006L10.92 1.74006C11.04 1.62006 11.16 1.38006 11.16 1.20006C11.16 1.02006 11.1 0.780059 10.92 0.660059C10.62 0.360059 10.14 0.360059 9.84 0.660059L5.58 4.92006L1.32 0.660059C1.02 0.360059 0.54 0.360059 0.24 0.660059C0.12 0.780059 0 1.02006 0 1.20006C0 1.38006 0.06 1.62006 0.24 1.74006L4.5 6.00006L0.24 10.2601C0.12 10.3801 0 10.6201 0 10.8001C0 10.9801 0.06 11.2201 0.24 11.3401C0.54 11.6401 1.02 11.6401 1.32 11.3401L5.58 7.08006L9.84 11.3401C9.96 11.4601 10.2 11.5801 10.38 11.5801C10.56 11.5801 10.8 11.5201 10.92 11.3401C11.22 11.0401 11.22 10.5601 10.92 10.2601L6.66 6.00006Z" fill="#9196A5"/>
</svg>
