<svg width="14" height="14" viewBox="0 0 14 14" fill="none" xmlns="http://www.w3.org/2000/svg">
<path d="M12.716 5.85691H8.14454V1.28546C8.14454 0.654253 7.63287 0.142578 7.00166 0.142578C6.37046 0.142578 5.85878 0.654253 5.85878 1.28546V5.85691H1.28741C0.656205 5.85691 0.144531 6.36859 0.144531 6.99979C0.144531 7.631 0.656205 8.1426 1.28741 8.1426H5.85885V12.7141C5.85885 13.3453 6.37052 13.8569 7.00173 13.8569C7.63293 13.8569 8.14454 13.3452 8.14454 12.7141V8.1426H12.716C13.3472 8.1426 13.8589 7.63093 13.8589 6.99972C13.8589 6.36852 13.3471 5.85691 12.716 5.85691Z" fill="#FBFBFD"/>
</svg>
