<svg width="60" height="60" viewBox="0 0 60 60" fill="none" xmlns="http://www.w3.org/2000/svg">
<path fill-rule="evenodd" clip-rule="evenodd" d="M0 30C0 13.4573 13.4585 0 30 0C46.5415 0 60 13.4573 60 30C60 46.5427 46.5415 60 30 60C13.4585 60 0 46.5427 0 30ZM27.7444 40.2375L46.4108 19.7844C47.2671 18.8458 47.1796 17.4095 46.216 16.5743C45.2535 15.7403 43.7765 15.8244 42.9225 16.763L25.7272 35.6038L15.7908 27.8622C14.7852 27.0782 13.3152 27.2373 12.5113 28.2179C11.7064 29.1985 11.8697 30.6291 12.8753 31.412L24.5419 40.5023C24.9724 40.8364 25.4869 41 25.999 41C26.6442 41 27.2847 40.7409 27.7444 40.2375Z" fill="#44D7B6"/>
</svg>
