<svg width="15" height="15" viewBox="0 0 15 15" fill="none" xmlns="http://www.w3.org/2000/svg">
<path d="M7.5 0C3.36433 0 0 3.36433 0 7.5C0 11.6357 3.36433 15 7.5 15C11.6357 15 15 11.6357 15 7.5C15 3.36433 11.6357 0 7.5 0ZM7.5 3.12504C7.84504 3.12504 8.12496 3.40496 8.12496 3.75C8.12496 4.09504 7.84504 4.37496 7.5 4.37496C7.15496 4.37496 6.87504 4.09504 6.87504 3.75C6.87504 3.40496 7.15496 3.12504 7.5 3.12504ZM8.90625 11.875H6.09375C5.74814 11.875 5.46879 11.595 5.46879 11.25C5.46879 10.905 5.74814 10.625 6.09375 10.625H6.87504V6.87504H6.40629C6.06068 6.87504 5.78121 6.595 5.78121 6.24996C5.78121 5.90504 6.06068 5.625 6.40629 5.625H7.5C7.84561 5.625 8.12496 5.90504 8.12496 6.24996V10.625H8.90625C9.25186 10.625 9.53121 10.905 9.53121 11.25C9.53121 11.595 9.25186 11.875 8.90625 11.875Z" fill="#4A90E2"/>
</svg>
