<svg width="418" height="405" viewBox="0 0 418 405" fill="none" xmlns="http://www.w3.org/2000/svg">
<path d="M65.4204 47.0779C65.4204 27.0034 47.282 11.1668 26.4937 15.0657C13.423 17.5193 3.00205 28.1989 0.709091 41.2964C-0.71843 49.4868 0.96783 57.1865 4.70615 63.5479H4.68831L4.77753 63.6728C6.02661 65.7784 7.59688 67.2862 9.17607 69.4989L28.1086 94.5787C30.464 97.7014 35.148 97.7014 37.5034 94.5787L56.1237 69.9182C56.1237 69.9182 59.5943 65.7784 60.8613 63.6461L60.9326 63.5568H60.9237C63.7609 58.7122 65.4204 53.1003 65.4204 47.0779ZM32.8105 61.2817C24.8877 61.2817 18.4639 54.8579 18.4639 46.9352C18.4639 39.0124 24.8877 32.5886 32.8105 32.5886C40.7332 32.5886 47.157 39.0124 47.157 46.9352C47.166 54.8579 40.7421 61.2817 32.8105 61.2817Z" fill="#757575"/>
<path d="M417.117 244.843C417.117 235.992 409.123 229.015 399.96 230.728C394.196 231.808 389.601 236.519 388.593 242.291C387.96 245.905 388.709 249.295 390.351 252.106H390.342L390.387 252.159C390.94 253.087 391.627 253.756 392.323 254.729L400.665 265.783C401.7 267.157 403.77 267.157 404.805 265.783L413.013 254.907C413.013 254.907 414.547 253.078 415.101 252.141L415.127 252.106H415.118C416.394 249.973 417.117 247.502 417.117 244.843ZM402.744 251.106C399.246 251.106 396.418 248.278 396.418 244.781C396.418 241.283 399.246 238.455 402.744 238.455C406.241 238.455 409.069 241.283 409.069 244.781C409.069 248.269 406.241 251.106 402.744 251.106Z" fill="#757575"/>
<path d="M367.552 358.219C381.607 344.164 381.607 321.375 367.552 307.32C353.496 293.265 330.708 293.265 316.653 307.32C302.597 321.375 302.597 344.164 316.653 358.219C330.708 372.274 353.496 372.274 367.552 358.219Z" fill="#757575"/>
<path d="M342.11 362.729C325.595 362.729 312.149 349.293 312.149 332.769C312.149 316.246 325.586 302.809 342.11 302.809C358.633 302.809 372.07 316.246 372.07 332.769C372.07 349.293 358.624 362.729 342.11 362.729ZM342.11 307.939C328.414 307.939 317.28 319.074 317.28 332.769C317.28 346.465 328.414 357.599 342.11 357.599C355.805 357.599 366.939 346.465 366.939 332.769C366.939 319.074 355.796 307.939 342.11 307.939Z" fill="white"/>
<path d="M341.904 343.012C335.82 343.012 330.868 338.06 330.868 331.975C330.868 325.891 335.82 320.939 341.904 320.939C347.989 320.939 352.941 325.891 352.941 331.975C352.941 338.069 347.989 343.012 341.904 343.012ZM341.904 326.078C338.648 326.078 335.998 328.728 335.998 331.984C335.998 335.241 338.648 337.891 341.904 337.891C345.161 337.891 347.811 335.241 347.811 331.984C347.811 328.728 345.161 326.078 341.904 326.078Z" fill="white"/>
<path d="M341.904 331.984H327.959L330.395 336.285L297.571 351.327L298.677 353.174L331.608 338.301L333.866 342.575L341.904 331.984Z" fill="#E0E0E0"/>
<path d="M297.571 351.327L297.223 350.988C295.501 349.311 293.012 348.686 290.71 349.364L277.612 353.174L284.902 356.377L281.975 364.166L294.261 359.785C297.036 358.795 298.829 356.109 298.677 353.174L297.571 351.327Z" fill="#E0E0E0"/>
<path d="M138.741 358.875C138.741 358.866 138.84 358.84 139.009 358.786C139.205 358.733 139.455 358.652 139.785 358.563C140.481 358.367 141.48 358.081 142.765 357.716C145.379 356.984 149.153 355.922 153.918 354.584L153.82 354.762C153.249 352.853 152.606 350.703 151.919 348.41L151.884 348.303L151.973 348.231C154.765 345.903 157.522 342.834 159.753 339.077C160.868 337.195 161.751 335.089 162.358 332.841C162.991 330.593 163.081 328.139 162.777 325.703C162.019 320.841 159.548 315.889 155.443 312.32C151.393 308.725 145.995 306.343 140.258 305.781C135.976 305.361 131.72 306.352 128.062 308.216C124.35 310.01 121.245 312.722 118.979 315.862C116.695 319.012 115.491 322.688 115.071 326.248C115.018 327.149 114.875 328.032 114.902 328.915C114.929 329.799 114.955 330.664 114.973 331.529C115.134 333.242 115.41 334.902 115.865 336.472C116.338 338.034 116.945 339.506 117.677 340.862C118.426 342.209 119.309 343.422 120.246 344.511C122.146 346.688 124.332 348.312 126.456 349.525C130.738 351.952 134.709 352.933 137.519 353.353L137.582 353.362L137.59 353.424C137.965 355.191 138.242 356.547 138.438 357.475C138.527 357.921 138.599 358.269 138.652 358.519C138.724 358.75 138.741 358.866 138.741 358.875C138.741 358.884 138.706 358.768 138.652 358.545C138.59 358.295 138.509 357.965 138.402 357.528C138.179 356.591 137.858 355.226 137.439 353.451L137.519 353.522C134.664 353.139 130.676 352.202 126.322 349.784C124.163 348.57 121.932 346.938 119.987 344.743C119.024 343.646 118.123 342.414 117.346 341.04C116.588 339.666 115.964 338.167 115.482 336.579C115.009 334.982 114.723 333.296 114.554 331.556C114.527 330.682 114.5 329.799 114.465 328.906C114.438 328.014 114.581 327.113 114.634 326.194C115.045 322.572 116.267 318.807 118.596 315.586C120.906 312.374 124.074 309.608 127.848 307.779C131.559 305.87 135.931 304.862 140.303 305.281C146.156 305.852 151.643 308.279 155.765 311.946C157.834 313.775 159.548 315.934 160.77 318.289C161.127 318.851 161.359 319.476 161.617 320.074C161.876 320.671 162.153 321.269 162.322 321.894C162.51 322.509 162.715 323.125 162.884 323.741C163 324.374 163.107 324.999 163.223 325.623C163.527 328.121 163.429 330.637 162.768 332.93C162.144 335.223 161.234 337.356 160.092 339.265C157.808 343.066 155.033 346.135 152.178 348.481L152.231 348.303C152.901 350.605 153.525 352.755 154.087 354.673L154.132 354.816L153.989 354.852C149.171 356.136 145.344 357.153 142.703 357.849C141.418 358.179 140.428 358.447 139.732 358.626C139.411 358.706 139.161 358.768 138.973 358.813C138.822 358.866 138.732 358.884 138.741 358.875Z" fill="#E0E0E0"/>
<path d="M155.336 358.884C155.372 359.018 151.901 360.08 147.583 361.258C143.265 362.444 139.732 363.292 139.696 363.167C139.66 363.033 143.131 361.971 147.449 360.794C151.768 359.607 155.301 358.759 155.336 358.884Z" fill="#E0E0E0"/>
<path d="M151.892 366.183C151.946 366.299 150.777 366.896 149.207 367.262C147.646 367.637 146.334 367.646 146.325 367.512C146.316 367.369 147.574 367.155 149.091 366.78C150.617 366.432 151.839 366.058 151.892 366.183Z" fill="#E0E0E0"/>
<path d="M141.927 358.001C141.918 358.001 141.891 357.921 141.837 357.751C141.784 357.555 141.712 357.305 141.632 356.993C141.454 356.288 141.204 355.315 140.883 354.075C140.24 351.497 139.33 347.83 138.215 343.315C137.653 341.04 137.046 338.551 136.395 335.874C136.234 335.223 136.002 334.563 135.61 334.036C135.244 333.492 134.548 333.207 133.986 333.492C133.424 333.769 133.156 334.509 133.147 335.196C133.129 335.892 133.468 336.57 133.941 337.115C134.914 338.221 136.547 338.694 138.072 338.488C139.616 338.301 140.981 337.204 141.695 335.749C142.426 334.304 142.596 332.546 142.212 330.914C142.016 330.102 141.695 329.281 141.106 328.728C140.544 328.184 139.589 327.987 138.964 328.433C138.349 328.88 138.242 329.852 138.563 330.566C138.884 331.315 139.544 331.886 140.231 332.395C141.596 333.403 143.167 334.152 144.79 334.277C145.593 334.34 146.414 334.233 147.128 333.929C147.842 333.608 148.484 333.117 148.957 332.511C149.43 331.904 149.742 331.181 149.778 330.441C149.823 329.7 149.591 328.969 149.1 328.442C148.627 327.916 147.913 327.613 147.271 327.809C146.628 327.996 146.147 328.585 145.915 329.219C145.469 330.53 145.861 331.993 146.022 333.332C146.45 336.044 146.941 338.56 147.387 340.862C148.306 345.421 149.055 349.124 149.582 351.729C149.831 352.987 150.037 353.977 150.179 354.682C150.242 354.994 150.286 355.253 150.322 355.449C150.349 355.628 150.367 355.717 150.358 355.717C150.349 355.717 150.322 355.637 150.278 355.458C150.224 355.262 150.162 355.012 150.081 354.7C149.912 353.995 149.689 353.014 149.394 351.764C148.814 349.213 147.985 345.51 147.048 340.924C146.584 338.631 146.075 336.115 145.62 333.394C145.522 332.707 145.406 332.02 145.335 331.306C145.263 330.593 145.254 329.816 145.513 329.076C145.781 328.353 146.316 327.648 147.146 327.39C147.985 327.122 148.886 327.523 149.43 328.139C150.01 328.755 150.286 329.629 150.233 330.468C150.197 331.315 149.84 332.136 149.323 332.796C148.805 333.474 148.109 334.01 147.315 334.367C146.512 334.714 145.62 334.822 144.755 334.759C142.997 334.625 141.356 333.84 139.937 332.787C139.232 332.27 138.509 331.654 138.117 330.762C137.733 329.897 137.813 328.701 138.679 328.041C139.571 327.425 140.74 327.72 141.436 328.38C142.15 329.049 142.48 329.95 142.685 330.807C143.095 332.555 142.917 334.411 142.123 335.973C141.364 337.534 139.848 338.756 138.144 338.961C136.475 339.184 134.709 338.676 133.611 337.427C133.085 336.82 132.692 336.026 132.71 335.205C132.728 334.42 133.013 333.528 133.799 333.126C134.182 332.93 134.637 332.93 135.021 333.073C135.422 333.216 135.717 333.501 135.949 333.804C136.395 334.42 136.627 335.125 136.796 335.803C137.43 338.48 138.019 340.978 138.563 343.253C139.625 347.785 140.481 351.461 141.079 354.048C141.364 355.298 141.579 356.279 141.739 356.993C141.802 357.305 141.855 357.564 141.9 357.76C141.927 357.912 141.935 358.001 141.927 358.001Z" fill="#E0E0E0"/>
<path d="M154.765 362.221C154.801 362.355 151.991 363.229 148.484 364.193C144.978 365.147 142.114 365.826 142.078 365.692C142.042 365.558 144.853 364.684 148.359 363.72C151.866 362.765 154.73 362.096 154.765 362.221Z" fill="#E0E0E0"/>
<path d="M397.292 403.423C397.292 403.548 312.141 403.655 207.138 403.655C102.09 403.655 16.965 403.548 16.965 403.423C16.965 403.298 102.09 403.191 207.138 403.191C312.15 403.191 397.292 403.289 397.292 403.423Z" fill="#15213F"/>
<path d="M381.581 44.5262H32.864V66.8669H381.581V44.5262Z" fill="#E0E0E0"/>
<path d="M381.527 87.3876H32.8105V282.958H381.527V87.3876Z" fill="white"/>
<path d="M32.864 66.7063H80.7484L85.486 52.8861H163.107L167.845 66.7063H381.581V87.8604H32.864V66.7063Z" fill="#EBEBEB"/>
<path d="M44.3734 53.4393C44.3734 54.8847 43.1957 56.0624 41.7504 56.0624C40.305 56.0624 39.1273 54.8847 39.1273 53.4393C39.1273 51.994 40.305 50.8163 41.7504 50.8163C43.2046 50.8163 44.3734 51.9851 44.3734 53.4393Z" fill="#15213F"/>
<path d="M52.4835 53.4393C52.4835 54.8847 51.3058 56.0624 49.8604 56.0624C48.4151 56.0624 47.2374 54.8847 47.2374 53.4393C47.2374 51.994 48.4151 50.8163 49.8604 50.8163C51.3147 50.8163 52.4835 51.9851 52.4835 53.4393Z" fill="#15213F"/>
<path d="M60.5936 53.4393C60.5936 54.8847 59.4159 56.0624 57.9706 56.0624C56.5252 56.0624 55.3475 54.8847 55.3475 53.4393C55.3475 51.994 56.5252 50.8163 57.9706 50.8163C59.4249 50.8163 60.5936 51.9851 60.5936 53.4393Z" fill="#15213F"/>
<path d="M343.038 83.6492H103.794C100.127 83.6492 97.156 80.6782 97.156 77.0113C97.156 73.3443 100.127 70.3733 103.794 70.3733H343.038C346.705 70.3733 349.676 73.3443 349.676 77.0113C349.676 80.6782 346.705 83.6492 343.038 83.6492Z" fill="#FAFAFA"/>
<path d="M109.522 77.8945V80.1339H108.389V78.064C108.389 77.4306 108.094 77.1361 107.595 77.1361C107.051 77.1361 106.658 77.4752 106.658 78.1889V80.125H105.525V74.7183H106.658V76.6097C106.961 76.3064 107.398 76.1458 107.907 76.1458C108.826 76.1636 109.522 76.6989 109.522 77.8945Z" fill="#E0E0E0"/>
<path d="M113.073 79.9465C112.841 80.116 112.493 80.1963 112.145 80.1963C111.217 80.1963 110.682 79.7235 110.682 78.7867V77.1807H110.075V76.3063H110.682V75.3517H111.815V76.3063H112.787V77.1807H111.815V78.7777C111.815 79.1168 111.993 79.2952 112.306 79.2952C112.475 79.2952 112.645 79.2417 112.761 79.1525L113.073 79.9465Z" fill="#E0E0E0"/>
<path d="M116.16 79.9465C115.928 80.116 115.58 80.1963 115.232 80.1963C114.304 80.1963 113.769 79.7235 113.769 78.7867V77.1807H113.162V76.3063H113.769V75.3517H114.902V76.3063H115.874V77.1807H114.902V78.7777C114.902 79.1168 115.08 79.2952 115.393 79.2952C115.562 79.2952 115.732 79.2417 115.848 79.1525L116.16 79.9465Z" fill="#E0E0E0"/>
<path d="M121.067 78.1799C121.067 79.4112 120.21 80.1963 119.113 80.1963C118.622 80.1963 118.221 80.0447 117.935 79.7235V81.5525H116.802V76.2171H117.891V76.6721C118.176 76.3331 118.596 76.1636 119.122 76.1636C120.219 76.1636 121.067 76.9487 121.067 78.1799ZM119.916 78.1799C119.916 77.5019 119.488 77.0915 118.917 77.0915C118.346 77.0915 117.918 77.5019 117.918 78.1799C117.918 78.858 118.346 79.2684 118.917 79.2684C119.488 79.2684 119.916 78.858 119.916 78.1799Z" fill="#E0E0E0"/>
<path d="M121.549 76.8685C121.549 76.4492 121.861 76.1726 122.254 76.1726C122.646 76.1726 122.958 76.4492 122.958 76.8685C122.958 77.2879 122.646 77.5823 122.254 77.5823C121.861 77.5823 121.549 77.2789 121.549 76.8685ZM121.549 79.4827C121.549 79.0633 121.861 78.7868 122.254 78.7868C122.646 78.7868 122.958 79.0633 122.958 79.4827C122.958 79.902 122.646 80.1964 122.254 80.1964C121.861 80.1964 121.549 79.902 121.549 79.4827Z" fill="#E0E0E0"/>
<path d="M125.76 74.0045H126.768L124.368 80.8655H123.36L125.76 74.0045Z" fill="#E0E0E0"/>
<path d="M128.089 74.0045H129.097L126.697 80.8655H125.689L128.089 74.0045Z" fill="#E0E0E0"/>
<path d="M342.823 122.558H134.379C127.874 122.558 122.61 117.285 122.61 110.79C122.61 104.295 127.883 99.0219 134.379 99.0219H342.823C349.328 99.0219 354.592 104.295 354.592 110.79C354.592 117.294 349.319 122.558 342.823 122.558Z" fill="#FAFAFA"/>
<path d="M342.823 122.558C342.797 122.46 344.626 122.772 347.641 121.47C349.104 120.783 350.853 119.65 352.245 117.705C352.941 116.741 353.565 115.608 353.976 114.305C354.377 113.003 354.574 111.531 354.467 109.996C354.36 108.461 353.94 106.855 353.146 105.348C352.352 103.831 351.148 102.448 349.64 101.342C348.132 100.226 346.258 99.4947 344.251 99.236C343.243 99.12 342.199 99.1468 341.137 99.1468C340.075 99.1468 338.987 99.1468 337.89 99.1557C329.066 99.1646 319.028 99.1736 307.921 99.1914C263.507 99.2092 202.159 99.236 134.405 99.2628C132.335 99.2985 130.257 99.807 128.49 100.895C126.706 101.939 125.26 103.501 124.252 105.285C122.28 108.89 122.405 113.529 124.627 116.937C125.689 118.659 127.241 120.051 128.999 121.006C130.783 121.934 132.773 122.398 134.789 122.344C138.849 122.344 142.881 122.344 146.878 122.344C162.858 122.353 178.266 122.353 192.952 122.362C222.314 122.38 248.75 122.398 270.957 122.415C293.155 122.442 311.124 122.469 323.543 122.487C329.744 122.505 334.562 122.522 337.845 122.531C339.478 122.54 340.718 122.549 341.565 122.558C342.395 122.54 342.823 122.558 342.823 122.558C342.823 122.558 342.395 122.576 341.556 122.585C340.709 122.594 339.469 122.594 337.836 122.612C334.562 122.621 329.744 122.638 323.534 122.656C311.106 122.674 293.146 122.701 270.948 122.728C248.741 122.745 222.305 122.754 192.943 122.781C178.257 122.781 162.849 122.79 146.869 122.799C142.872 122.799 138.849 122.799 134.78 122.799C132.719 122.861 130.622 122.371 128.776 121.407C126.947 120.417 125.323 118.971 124.225 117.178C121.915 113.636 121.781 108.818 123.833 105.062C124.877 103.206 126.384 101.582 128.24 100.503C130.069 99.3698 132.237 98.8345 134.388 98.7988C202.141 98.8256 263.489 98.8524 307.903 98.8702C319.002 98.8791 329.048 98.897 337.872 98.9059C338.978 98.9059 340.058 98.9059 341.119 98.9148C342.181 98.9148 343.234 98.897 344.26 99.013C346.312 99.2806 348.221 100.03 349.747 101.172C351.281 102.296 352.504 103.715 353.307 105.258C354.11 106.802 354.529 108.435 354.636 109.996C354.743 111.557 354.538 113.047 354.119 114.368C353.699 115.688 353.057 116.839 352.352 117.803C350.933 119.757 349.149 120.89 347.677 121.568C346.169 122.237 344.92 122.415 344.09 122.522C343.252 122.558 342.823 122.558 342.823 122.558Z" fill="#15213F"/>
<path d="M139.161 113.297L139.607 112.307C140.08 112.655 140.794 112.896 141.472 112.896C142.248 112.896 142.56 112.637 142.56 112.289C142.56 111.227 139.268 111.959 139.268 109.853C139.268 108.89 140.044 108.087 141.65 108.087C142.364 108.087 143.087 108.256 143.613 108.586L143.211 109.586C142.685 109.282 142.141 109.139 141.641 109.139C140.865 109.139 140.562 109.434 140.562 109.791C140.562 110.835 143.854 110.112 143.854 112.191C143.854 113.137 143.069 113.948 141.454 113.948C140.562 113.957 139.66 113.69 139.161 113.297Z" fill="#E0E0E0"/>
<path d="M148.913 112.039H145.62C145.745 112.583 146.2 112.913 146.869 112.913C147.333 112.913 147.663 112.78 147.958 112.494L148.627 113.226C148.226 113.69 147.619 113.931 146.834 113.931C145.326 113.931 144.353 112.985 144.353 111.691C144.353 110.388 145.344 109.452 146.673 109.452C147.949 109.452 148.939 110.308 148.939 111.709C148.939 111.798 148.921 111.932 148.913 112.039ZM145.602 111.299H147.744C147.655 110.745 147.244 110.388 146.673 110.388C146.102 110.397 145.692 110.745 145.602 111.299Z" fill="#E0E0E0"/>
<path d="M153.507 111.37V113.85H152.33V113.306C152.098 113.699 151.643 113.913 151 113.913C149.983 113.913 149.377 113.351 149.377 112.592C149.377 111.825 149.921 111.29 151.241 111.29H152.24C152.24 110.745 151.919 110.433 151.241 110.433C150.777 110.433 150.304 110.585 149.992 110.835L149.537 109.951C150.01 109.612 150.715 109.425 151.411 109.425C152.74 109.443 153.507 110.058 153.507 111.37ZM152.249 112.485V112.039H151.384C150.795 112.039 150.608 112.262 150.608 112.548C150.608 112.86 150.875 113.074 151.322 113.074C151.741 113.074 152.098 112.878 152.249 112.485Z" fill="#E0E0E0"/>
<path d="M157.353 109.443V110.612C157.246 110.603 157.165 110.594 157.067 110.594C156.371 110.594 155.907 110.977 155.907 111.807V113.859H154.649V109.505H155.854V110.076C156.166 109.657 156.684 109.443 157.353 109.443Z" fill="#E0E0E0"/>
<path d="M157.745 111.682C157.745 110.371 158.754 109.443 160.172 109.443C161.082 109.443 161.805 109.835 162.117 110.549L161.136 111.075C160.904 110.665 160.556 110.478 160.154 110.478C159.512 110.478 159.012 110.924 159.012 111.682C159.012 112.441 159.512 112.887 160.154 112.887C160.547 112.887 160.895 112.708 161.136 112.289L162.117 112.824C161.805 113.52 161.082 113.922 160.172 113.922C158.754 113.922 157.745 112.994 157.745 111.682Z" fill="#E0E0E0"/>
<path d="M167.265 111.361V113.85H166.007V111.557C166.007 110.852 165.686 110.531 165.124 110.531C164.517 110.531 164.08 110.906 164.08 111.7V113.85H162.822V107.846H164.08V109.951C164.419 109.612 164.901 109.434 165.463 109.434C166.489 109.443 167.265 110.041 167.265 111.361Z" fill="#E0E0E0"/>
<path d="M170.388 113.128C170.388 112.655 170.736 112.351 171.173 112.351C171.61 112.351 171.958 112.655 171.958 113.128C171.958 113.591 171.61 113.922 171.173 113.922C170.736 113.922 170.388 113.591 170.388 113.128Z" fill="#E0E0E0"/>
<path d="M172.511 113.128C172.511 112.655 172.859 112.351 173.296 112.351C173.734 112.351 174.082 112.655 174.082 113.128C174.082 113.591 173.734 113.922 173.296 113.922C172.859 113.922 172.511 113.591 172.511 113.128Z" fill="#E0E0E0"/>
<path d="M174.626 113.128C174.626 112.655 174.974 112.351 175.411 112.351C175.848 112.351 176.196 112.655 176.196 113.128C176.196 113.591 175.848 113.922 175.411 113.922C174.974 113.922 174.626 113.591 174.626 113.128Z" fill="#E0E0E0"/>
<path d="M98.3427 143.043C98.3427 143.168 89.9738 143.275 79.66 143.275C69.3372 143.275 60.9773 143.168 60.9773 143.043C60.9773 142.918 69.3372 142.811 79.66 142.811C89.9738 142.811 98.3427 142.918 98.3427 143.043Z" fill="black"/>
<path d="M99.8059 153.723H60.9773V192.551H99.8059V153.723Z" fill="#44D7B7"/>
<path d="M335.739 162.877C335.739 163.002 287.543 163.109 228.104 163.109C168.639 163.109 120.46 163.002 120.46 162.877C120.46 162.752 168.648 162.645 228.104 162.645C287.543 162.645 335.739 162.743 335.739 162.877Z" fill="black"/>
<path d="M179.346 177.491C179.346 177.616 166.65 177.723 150.982 177.723C135.315 177.723 122.619 177.616 122.619 177.491C122.619 177.366 135.315 177.259 150.982 177.259C166.641 177.259 179.346 177.366 179.346 177.491Z" fill="black"/>
<path d="M301.336 191.052C301.336 191.177 261.321 191.284 211.982 191.284C162.617 191.284 122.619 191.177 122.619 191.052C122.619 190.927 162.626 190.82 211.982 190.82C261.321 190.811 301.336 190.918 301.336 191.052Z" fill="#E0E0E0"/>
<path d="M98.3427 212.59C98.3427 212.715 89.9738 212.822 79.66 212.822C69.3372 212.822 60.9773 212.715 60.9773 212.59C60.9773 212.465 69.3372 212.358 79.66 212.358C89.9738 212.358 98.3427 212.465 98.3427 212.59Z" fill="black"/>
<path d="M99.8059 223.27H60.9773V262.098H99.8059V223.27Z" fill="#44D7B7"/>
<path d="M348.534 232.415C348.534 232.54 297.473 232.647 234.501 232.647C171.512 232.647 120.46 232.54 120.46 232.415C120.46 232.29 171.512 232.183 234.501 232.183C297.473 232.183 348.534 232.29 348.534 232.415Z" fill="black"/>
<path d="M179.346 247.038C179.346 247.163 166.65 247.27 150.982 247.27C135.315 247.27 122.619 247.163 122.619 247.038C122.619 246.913 135.315 246.806 150.982 246.806C166.641 246.806 179.346 246.913 179.346 247.038Z" fill="black"/>
<path d="M332.456 260.59C332.456 260.715 285.473 260.822 227.542 260.822C169.585 260.822 122.611 260.715 122.611 260.59C122.611 260.466 169.576 260.359 227.542 260.359C285.482 260.359 332.456 260.466 332.456 260.59Z" fill="#E0E0E0"/>
<path d="M381.581 283.431C381.581 281.905 381.509 189.937 381.393 44.5352L381.581 44.7226C285.053 44.7315 163.982 44.7493 32.8908 44.7672H32.864L33.096 44.5352C33.0871 129.803 33.0781 210.832 33.0781 283.431L32.864 283.217C238.561 283.342 379.689 283.422 381.581 283.431C379.689 283.431 238.561 283.52 32.864 283.645H32.6499V283.431C32.641 210.824 32.641 129.803 32.632 44.5352V44.3032H32.864H32.8908C163.982 44.3211 285.053 44.3389 381.581 44.3478H381.768V44.5352C381.661 189.928 381.581 281.896 381.581 283.431Z" fill="#15213F"/>
<path d="M153.686 61.835C153.686 61.9599 141.373 62.067 126.188 62.067C110.994 62.067 98.6906 61.9599 98.6906 61.835C98.6906 61.7101 111.003 61.603 126.188 61.603C141.373 61.603 153.686 61.7101 153.686 61.835Z" fill="black"/>
<path d="M104.08 105.749H55.2404V120.461H104.08V105.749Z" fill="#455A64"/>
<path d="M190.56 144.283C190.56 144.408 175.375 144.515 156.648 144.515C137.912 144.515 122.726 144.408 122.726 144.283C122.726 144.158 137.912 144.051 156.648 144.051C175.375 144.051 190.56 144.158 190.56 144.283Z" fill="#44D7B7"/>
<path d="M190.56 212.59C190.56 212.715 175.375 212.822 156.648 212.822C137.912 212.822 122.726 212.715 122.726 212.59C122.726 212.465 137.912 212.358 156.648 212.358C175.375 212.358 190.56 212.465 190.56 212.59Z" fill="#44D7B7"/>
<path d="M338.336 114.707C335.213 114.707 332.67 112.164 332.67 109.041C332.67 105.919 335.213 103.376 338.336 103.376C341.458 103.376 344.001 105.919 344.001 109.041C344.001 112.164 341.458 114.707 338.336 114.707ZM338.336 104.259C335.704 104.259 333.562 106.4 333.562 109.032C333.562 111.664 335.704 113.806 338.336 113.806C340.968 113.806 343.109 111.664 343.109 109.032C343.109 106.4 340.968 104.259 338.336 104.259Z" fill="#44D7B7"/>
<path d="M345.304 117.223C345.188 117.223 345.081 117.178 344.991 117.098L341.298 113.431C341.119 113.261 341.119 112.976 341.298 112.797C341.467 112.628 341.753 112.619 341.931 112.797L345.625 116.464C345.803 116.634 345.803 116.919 345.625 117.098C345.527 117.178 345.411 117.223 345.304 117.223Z" fill="#44D7B7"/>
<path d="M251.632 176.492C251.632 176.617 237.017 176.724 219.004 176.724C200.981 176.724 186.367 176.617 186.367 176.492C186.367 176.367 200.972 176.26 219.004 176.26C237.026 176.26 251.632 176.358 251.632 176.492Z" fill="black"/>
<path d="M293.806 175.483C293.806 175.608 286.16 175.715 276.738 175.715C267.308 175.715 259.67 175.608 259.67 175.483C259.67 175.359 267.308 175.251 276.738 175.251C286.16 175.251 293.806 175.359 293.806 175.483Z" fill="black"/>
<path d="M251.319 247.038C251.319 247.163 236.705 247.27 218.692 247.27C200.669 247.27 186.055 247.163 186.055 247.038C186.055 246.913 200.66 246.806 218.692 246.806C236.714 246.806 251.319 246.913 251.319 247.038Z" fill="black"/>
<path d="M76.1715 265.399C68.9358 269.147 63.3863 275.606 59.3893 282.717C55.4011 289.828 52.8227 297.626 50.2799 305.37L48.0494 345.305C56.4718 330.976 63.2346 314.131 65.0547 297.608C63.19 297.438 61.3164 297.278 59.4517 297.108C63.2079 296.537 66.3663 293.816 68.3737 290.586C70.3812 287.356 71.4161 283.636 72.4243 279.969C70.1492 280.308 67.8652 280.647 65.59 280.986C70.9343 277.408 74.8154 271.698 76.1715 265.399Z" fill="#455A64"/>
<g opacity="0.3">
<g opacity="0.3">
<path opacity="0.3" d="M76.1715 265.399C68.9358 269.147 63.3863 275.606 59.3893 282.717C55.4011 289.828 52.8227 297.626 50.2799 305.37L48.0494 345.305C56.4718 330.976 63.2346 314.131 65.0547 297.608C63.19 297.438 61.3164 297.278 59.4517 297.108C63.2079 296.537 66.3663 293.816 68.3737 290.586C70.3812 287.356 71.4161 283.636 72.4243 279.969C70.1492 280.308 67.8652 280.647 65.59 280.986C70.9343 277.408 74.8154 271.698 76.1715 265.399Z" fill="black"/>
</g>
</g>
<path d="M46.8002 354.655C46.8002 354.655 28.5191 332.769 28.7332 311.883H36.1206C36.1206 311.883 28.0997 306.61 28.7332 303.657C29.3666 300.704 29.5808 289.525 29.5808 289.525L36.3347 291.211C36.3347 291.211 31.267 288.677 30.6336 284.671C30.0001 280.665 32.1146 262.098 32.1146 262.098C32.1146 262.098 40.3407 270.753 42.8746 279.612C45.4084 288.472 52.0553 298.812 50.1014 325.819C48.1385 352.817 46.8002 354.655 46.8002 354.655Z" fill="#455A64"/>
<path d="M56.0702 356.725C56.0702 356.725 75.8771 343.529 80.2756 326.694L74.3425 325.079C74.3425 325.079 81.9441 322.589 82.0779 320.082C82.2117 317.575 84.4868 308.528 84.4868 308.528L78.6875 308.412C78.6875 308.412 83.3091 307.485 84.701 304.398C86.0839 301.31 88.4571 285.92 88.4571 285.92C88.4571 285.92 79.9455 291.077 75.9752 297.644C72.0049 304.21 64.3945 311.071 60.0584 333.216C55.7134 355.351 56.0702 356.725 56.0702 356.725Z" fill="#455A64"/>
<path d="M37.102 281.173C37.111 281.173 37.1377 281.245 37.1734 281.397C37.218 281.575 37.2716 281.798 37.3429 282.066C37.4857 282.69 37.682 283.565 37.9318 284.662C38.4403 286.919 39.1184 290.194 39.8946 294.253C41.456 302.372 43.2939 313.641 44.7482 326.167C46.1936 338.703 46.9698 350.096 47.2999 358.358C47.4694 362.489 47.5586 365.825 47.5765 368.136C47.5854 369.26 47.5854 370.153 47.5943 370.795C47.5943 371.081 47.5854 371.304 47.5854 371.491C47.5854 371.643 47.5765 371.723 47.5676 371.723C47.5586 371.723 47.5497 371.643 47.5408 371.491C47.5319 371.313 47.514 371.081 47.5051 370.804C47.4783 370.162 47.4426 369.269 47.398 368.145C47.3267 365.834 47.1839 362.498 46.9698 358.376C46.5504 350.132 45.7207 338.747 44.2843 326.221C42.83 313.703 41.0456 302.435 39.5645 294.307C38.8329 290.247 38.2084 286.964 37.7444 284.698C37.5303 283.591 37.3608 282.717 37.2359 282.083C37.1913 281.807 37.1467 281.584 37.1199 281.405C37.102 281.254 37.0931 281.173 37.102 281.173Z" fill="#15213F"/>
<path d="M44.2664 368.056C44.2664 368.056 27.5376 349.07 22.345 337.596L26.2707 335.919C23.4246 336.392 20.516 335.17 18.3123 333.314C16.1086 331.458 14.4937 329.022 12.9056 326.613L18.0714 325.739C13.3695 324.419 9.23862 321.216 6.78506 316.995C12.8788 317.995 18.3926 321.349 22.9428 325.534C26.6276 328.924 29.7414 332.859 32.7303 336.874C34.1935 338.837 35.4693 340.924 36.531 343.128C39.3325 348.945 44.2753 361.088 44.2664 368.056Z" fill="#455A64"/>
<path d="M80.5344 296.965C80.5433 296.965 80.5165 297.037 80.463 297.162C80.3916 297.313 80.3113 297.492 80.2132 297.715C79.9633 298.232 79.6332 298.937 79.205 299.829C78.3128 301.658 77.0459 304.308 75.5202 307.6C72.451 314.185 68.4004 323.366 64.4034 333.697C60.4152 344.038 57.2301 353.558 55.071 360.49C53.9914 363.961 53.1438 366.771 52.5728 368.716C52.2873 369.662 52.0642 370.402 51.8947 370.956C51.8233 371.188 51.7609 371.375 51.7074 371.536C51.6627 371.669 51.636 371.732 51.6271 371.732C51.6181 371.732 51.6271 371.66 51.6627 371.527C51.6984 371.366 51.752 371.17 51.8055 370.938C51.9483 370.385 52.1445 369.626 52.3944 368.672C52.9118 366.709 53.7148 363.881 54.7498 360.392C56.8286 353.424 59.9691 343.877 63.9662 333.528C67.9722 323.187 72.0674 314.006 75.2168 307.458C76.7871 304.183 78.0986 301.551 79.0355 299.749C79.4905 298.875 79.8563 298.188 80.1239 297.679C80.2399 297.465 80.3381 297.287 80.4184 297.144C80.4897 297.019 80.5344 296.965 80.5344 296.965Z" fill="#15213F"/>
<path d="M45.685 376.193C45.6493 376.193 45.5601 375.711 45.4173 374.837C45.2835 373.962 45.0604 372.695 44.7482 371.152C44.1325 368.047 43.053 363.809 41.3489 359.295C39.6359 354.78 37.6462 350.881 36.0581 348.151C35.2641 346.786 34.6038 345.688 34.1221 344.939C33.6492 344.19 33.3994 343.761 33.4261 343.744C33.4529 343.726 33.7473 344.118 34.2737 344.832C34.8001 345.546 35.505 346.616 36.3436 347.973C38.0121 350.676 40.0641 354.584 41.7861 359.125C43.4991 363.666 44.534 367.958 45.0694 371.089C45.337 372.651 45.5155 373.927 45.5958 374.81C45.685 375.702 45.7117 376.184 45.685 376.193Z" fill="#15213F"/>
<path d="M67.758 371.723H31.1421V379.191H67.758V371.723Z" fill="#44D7B7"/>
<path d="M34.6306 379.2L38.592 404.315H60.7186L64.4123 379.2H34.6306Z" fill="#44D7B7"/>
<path d="M65.5097 379.2C65.5097 379.325 58.5862 379.432 50.039 379.432C41.4917 379.432 34.5682 379.325 34.5682 379.2C34.5682 379.075 41.4917 378.968 50.039 378.968C58.5862 378.968 65.5097 379.066 65.5097 379.2Z" fill="#15213F"/>
<path d="M224.99 385.784V404.315L262.356 404.137C262.088 400.38 241.576 392.886 241.576 392.886L241.987 385.793H224.99V385.784Z" fill="#455A64"/>
<g opacity="0.6">
<g opacity="0.6">
<g opacity="0.6">
<g opacity="0.6">
<g opacity="0.6">
<g opacity="0.6">
<g opacity="0.6">
<g opacity="0.6">
<g opacity="0.6">
<g opacity="0.6">
<g opacity="0.6">
<path opacity="0.6" d="M231.031 391.2C230.317 391.423 229.826 392.279 230.005 393.047C230.183 393.814 231.013 394.34 231.727 394.135C232.449 393.93 233.056 392.913 232.797 392.172C232.539 391.432 231.539 390.861 230.888 391.244" fill="white"/>
</g>
</g>
</g>
</g>
</g>
</g>
</g>
</g>
</g>
</g>
</g>
<path d="M224.99 404.306V401.344L260.67 401.763C260.67 401.763 262.525 402.879 262.365 404.119L224.99 404.306Z" fill="#15213F"/>
<path d="M241.576 393.234C241.576 393.43 240.666 393.528 239.783 394.162C238.882 394.769 238.436 395.607 238.266 395.536C238.097 395.5 238.356 394.349 239.435 393.6C240.515 392.841 241.612 393.056 241.576 393.234Z" fill="#15213F"/>
<path d="M246.475 394.947C246.519 395.134 245.734 395.473 245.136 396.294C244.512 397.097 244.369 397.98 244.182 397.972C244.012 398.007 243.869 396.883 244.637 395.875C245.395 394.858 246.466 394.769 246.475 394.947Z" fill="#15213F"/>
<path d="M248.678 399.667C248.518 399.711 248.25 398.757 248.696 397.695C249.142 396.633 249.99 396.205 250.07 396.366C250.177 396.526 249.633 397.097 249.276 397.972C248.893 398.837 248.857 399.649 248.678 399.667Z" fill="#15213F"/>
<path d="M241.211 387.961C241.139 388.14 240.301 387.881 239.275 387.97C238.249 388.041 237.455 388.416 237.356 388.247C237.249 388.113 238.017 387.381 239.23 387.301C240.443 387.212 241.3 387.809 241.211 387.961Z" fill="#15213F"/>
<path d="M241.425 394.064C241.452 394.064 241.55 393.671 241.505 392.931C241.452 392.208 241.228 391.119 240.515 390.013C240.158 389.469 239.685 388.925 239.052 388.479C238.748 388.264 238.275 388.032 237.794 388.255C237.338 388.47 237.08 388.978 237.062 389.478C237.106 391.387 238.481 393.145 240.345 393.814C242.263 394.483 244.28 393.653 245.395 392.315C245.663 391.976 245.93 391.628 246.064 391.173C246.127 390.95 246.162 390.691 246.073 390.432C245.993 390.183 245.788 389.977 245.565 389.897C245.11 389.745 244.735 389.879 244.396 390.013C244.075 390.165 243.789 390.334 243.53 390.513C242.469 391.218 241.791 392.038 241.398 392.627C240.997 393.225 240.854 393.609 240.881 393.618C240.961 393.707 241.657 392.154 243.727 390.852C244.226 390.566 244.878 390.156 245.413 390.334C245.645 390.432 245.734 390.7 245.627 391.03C245.529 391.351 245.288 391.673 245.038 391.976C244.03 393.163 242.201 393.885 240.524 393.287C238.864 392.725 237.615 391.048 237.562 389.522C237.57 389.166 237.749 388.844 237.999 388.719C238.24 388.595 238.552 388.702 238.828 388.88C239.399 389.264 239.863 389.763 240.22 390.254C240.925 391.262 241.193 392.279 241.309 392.966C241.398 393.662 241.38 394.064 241.425 394.064Z" fill="#15213F"/>
<path d="M211.331 388.461L211.964 393.234L211.545 403.985L197.537 404.324L197.038 393.234L198.626 386.641L211.331 388.461Z" fill="#455A64"/>
<path d="M204.621 403.173C204.532 403.173 204.737 399.89 205.068 395.83C205.398 391.771 205.746 388.469 205.826 388.469C205.915 388.469 205.71 391.753 205.38 395.821C205.041 399.872 204.702 403.173 204.621 403.173Z" fill="#15213F"/>
<path d="M211.599 402.192L197.448 402.361V404.324L211.607 404.306L211.599 402.192Z" fill="#15213F"/>
<path d="M197.484 396.009C197.466 395.991 197.582 395.786 197.841 395.438C198.1 395.09 198.51 394.617 199.09 394.099C199.67 393.582 200.419 393.02 201.356 392.583C202.284 392.136 203.417 391.815 204.622 391.824C207.048 391.824 209.083 393.011 210.082 394.197C210.599 394.777 210.92 395.331 211.108 395.723C211.286 396.116 211.358 396.348 211.331 396.357C211.251 396.401 210.92 395.482 209.868 394.403C208.851 393.323 206.914 392.252 204.613 392.252C202.32 392.244 200.428 393.394 199.286 394.331C198.108 395.295 197.537 396.062 197.484 396.009Z" fill="#15213F"/>
<path d="M204.559 88.3689L204.407 136.807L225.187 137.797L225.784 126.02C225.784 126.02 233.163 127.483 235.072 120.631C236.286 116.25 235.982 82.418 235.982 82.418L204.559 88.3689Z" fill="#B78876"/>
<path d="M238.721 85.8174C235.447 86.7542 234.733 92.1074 234.733 92.1074L229.603 103.447C226.989 101.404 223.474 101.52 222.814 106.115C222.332 109.434 226.463 110.103 226.463 110.103C224.063 114.189 222.43 117.499 218.932 121.389C215.141 125.601 213.026 126.029 208.913 126.091H204.381C204.381 126.091 202.159 118.891 198.055 100.896C193.496 80.9281 217.112 83.4976 221.493 78.4032C228.622 70.0968 249.035 82.8642 238.721 85.8174Z" fill="#15213F"/>
<path d="M244.485 81.4723C244.146 79.3488 242.112 77.5644 239.962 77.7072C240.729 76.6276 240.363 75.0038 239.373 74.1205C238.382 73.2373 236.946 73.0053 235.634 73.2105C234.323 73.4068 233.101 73.9867 231.905 74.5488C231.691 73.5317 230.406 71.8543 229.496 71.3636C227.667 70.3733 226.525 70.3733 225.49 70.3733C219.111 70.3733 215.756 74.7451 212.33 79.1882C211.741 79.9555 211.161 80.8031 210.26 81.1511C209.654 81.383 208.984 81.3563 208.333 81.3652C203.48 81.4633 198.778 84.3808 196.547 88.6991C194.317 93.0173 192.648 103.001 198.421 109.184L201.9 116.955L235.206 90.5638C235.447 90.6887 237.535 91.7058 239.141 90.8582C243.129 88.7615 241.461 85.2552 241.461 85.2552C241.782 85.0946 244.824 83.6046 244.485 81.4723Z" fill="#15213F"/>
<path d="M213.659 107.435C213.793 107.417 213.999 109.104 213.544 111.111C213.097 113.128 212.187 114.555 212.071 114.484C211.929 114.412 212.598 112.931 213.026 110.995C213.472 109.059 213.508 107.435 213.659 107.435Z" fill="#455A64"/>
<path d="M216.176 105.053C216.318 105.062 216.345 106.659 215.979 108.595C215.622 110.531 215.016 112.012 214.882 111.968C214.739 111.923 215.114 110.397 215.462 108.497C215.819 106.606 216.024 105.044 216.176 105.053Z" fill="#455A64"/>
<path d="M223.367 97.059C223.42 97.1304 222.831 97.5586 222.082 98.433C221.332 99.2984 220.467 100.655 219.843 102.296C219.218 103.938 218.87 105.517 218.602 106.65C218.344 107.792 218.165 108.497 218.085 108.479C218.013 108.47 218.067 107.739 218.237 106.579C218.415 105.419 218.701 103.804 219.352 102.1C220.003 100.396 220.958 99.004 221.805 98.1742C222.662 97.3356 223.34 97.0144 223.367 97.059Z" fill="#455A64"/>
<path d="M226.275 91.6255C226.338 91.6076 226.552 92.0983 226.677 92.937C226.811 93.7757 226.811 94.9712 226.498 96.2471C226.177 97.514 225.606 98.5757 225.098 99.2449C224.589 99.9229 224.17 100.253 224.125 100.208C223.991 100.11 225.401 98.5489 225.99 96.1132C226.623 93.6865 226.115 91.6433 226.275 91.6255Z" fill="#455A64"/>
<path d="M201.481 103.715C201.41 103.84 200.776 103.626 200.062 103.224C199.349 102.823 198.831 102.403 198.903 102.269C198.974 102.145 199.607 102.359 200.321 102.76C201.026 103.162 201.552 103.59 201.481 103.715Z" fill="#455A64"/>
<path d="M211.518 98.549C211.652 98.5669 211.572 99.5929 210.92 100.655C210.278 101.716 209.413 102.269 209.332 102.162C209.234 102.046 209.885 101.359 210.474 100.387C211.072 99.4055 211.367 98.5133 211.518 98.549Z" fill="#455A64"/>
<path d="M214.605 96.8895C214.739 96.9163 214.525 98.1475 213.677 99.4055C212.848 100.672 211.795 101.351 211.715 101.235C211.616 101.119 212.455 100.298 213.24 99.1111C214.034 97.9334 214.463 96.8449 214.605 96.8895Z" fill="#455A64"/>
<path d="M229.951 76.6008C229.915 76.6454 229.559 76.3064 228.809 75.8781C228.06 75.4677 226.864 75.0127 225.329 74.977C223.813 74.9324 221.939 75.2893 220.217 76.351C218.495 77.4038 216.97 79.1257 215.863 81.1957C215.06 82.7035 214.498 84.2648 214.097 85.737L214.016 86.0403L213.74 85.8976C212.196 85.0856 210.564 84.7288 209.1 84.7109C207.637 84.6663 206.343 84.9429 205.326 85.2819C203.274 85.9868 202.302 86.9057 202.248 86.8254C202.23 86.8076 202.462 86.5756 202.944 86.2098C203.426 85.8529 204.184 85.3801 205.219 84.9875C206.254 84.5949 207.584 84.2737 209.109 84.2827C210.626 84.2737 212.339 84.6128 213.981 85.4515L213.615 85.612C214.007 84.1042 214.57 82.4983 215.408 80.9458C216.55 78.8135 218.147 77.0202 219.967 75.9317C221.796 74.8432 223.759 74.5041 225.338 74.6023C226.935 74.6915 228.167 75.2179 228.907 75.6997C229.273 75.9584 229.55 76.1636 229.701 76.3332C229.88 76.5027 229.96 76.5919 229.951 76.6008Z" fill="#455A64"/>
<path d="M240.881 79.2418C240.845 79.2329 241.461 79.0901 242.076 79.786C242.353 80.1251 242.611 80.6515 242.558 81.3028C242.495 81.9541 242.04 82.6232 241.353 83.0247C240.666 83.444 239.73 83.5868 238.829 83.3727C237.918 83.1764 237.044 82.6946 236.223 82.1057C235.394 81.5258 234.599 80.8567 233.681 80.357C232.753 79.8574 231.709 79.4916 230.611 79.2775C228.399 78.8671 226.204 79.1169 224.348 79.7057C222.483 80.3035 220.931 81.2046 219.718 82.0611C217.291 83.8098 216.095 85.2641 216.024 85.1928C215.997 85.1749 216.274 84.7913 216.845 84.1667C217.416 83.5511 218.29 82.6768 219.503 81.7578C220.717 80.8477 222.278 79.8842 224.205 79.2418C226.124 78.5994 228.399 78.3228 230.718 78.76C231.869 78.983 232.967 79.3667 233.939 79.902C234.921 80.4373 235.724 81.1332 236.518 81.7043C237.303 82.2842 238.115 82.7392 238.936 82.9355C239.756 83.1407 240.559 83.0426 241.175 82.6946C241.8 82.3645 242.201 81.7935 242.272 81.2582C242.353 80.7139 242.156 80.2232 241.924 79.902C241.416 79.2418 240.845 79.2953 240.881 79.2418Z" fill="#455A64"/>
<path d="M337.684 116.402C336.899 115.706 326.318 120.149 326.318 120.149C326.318 120.149 318.422 126.341 315.174 129.999L313.167 131.667L283.135 155.016L246.198 139.653L238.186 160.262C238.186 160.262 279.656 176.768 285.972 173.94C292.842 170.871 318.404 144.114 318.457 144.024L322.151 140.465C322.151 140.465 324.105 140.429 325.586 140.34C327.067 140.25 331.403 137.369 331.403 137.369C331.403 137.369 332.028 136.244 332.242 134.844C332.456 133.443 331.439 133.006 331.439 133.006C331.439 133.006 331.68 132.096 331.51 130.918C331.341 129.74 329.771 128.375 329.771 128.375C329.771 128.375 330.395 127.867 330.761 126.51C331.127 125.154 329.369 123.87 329.369 123.87C329.369 123.87 335.507 119.694 336.997 118.962C338.487 118.231 338.469 117.098 337.684 116.402Z" fill="#B78876"/>
<path d="M251.632 327.434C251.756 326.078 251.819 325.034 251.819 324.383L255.986 257.798C255.986 257.798 252.479 238.357 250.82 233.191L235.911 227.418L216.051 235.154C215.917 233.548 215.836 232.566 215.836 232.566L186.581 242.675C186.581 242.675 185.823 262.634 186.581 268.71C186.822 270.663 187.589 275.704 188.517 281.646C188.517 281.646 189.463 294.557 189.65 295.279C190.355 297.911 190.525 304.362 190.525 310.821C190.525 319.03 190.971 328.799 191.479 333.448C191.988 338.096 192.238 389.157 192.238 389.157H213.829L216.604 307.815C217.068 299.098 217.764 285.768 218.219 276.124L223.286 306.155C223.286 307.253 226.373 324.427 226.373 324.427C226.373 324.427 225.24 332.484 225.053 340.719C224.696 355.86 222.921 389.148 222.921 389.148H244.057C244.048 389.157 250.4 341.085 251.632 327.434Z" fill="#15213F"/>
<path d="M255.272 253.81C255.245 253.854 254.478 253.506 253.327 252.775C252.176 252.043 250.65 250.919 249.151 249.465C247.652 248.01 246.475 246.529 245.707 245.396C244.94 244.272 244.556 243.514 244.61 243.487C244.672 243.451 245.145 244.138 245.975 245.209C246.796 246.28 248 247.707 249.481 249.135C250.962 250.562 252.426 251.713 253.523 252.507C254.594 253.292 255.307 253.747 255.272 253.81Z" fill="#455A64"/>
<path d="M217.585 265.908C217.558 265.926 217.416 265.685 217.175 265.248C216.934 264.811 216.613 264.15 216.265 263.33C215.56 261.679 214.775 259.306 214.302 256.593C213.829 253.881 213.767 251.383 213.874 249.59C213.927 248.689 213.999 247.966 214.079 247.475C214.159 246.976 214.213 246.708 214.239 246.708C214.311 246.717 214.213 247.814 214.195 249.599C214.177 251.374 214.284 253.837 214.748 256.513C215.221 259.181 215.943 261.536 216.568 263.205C217.184 264.873 217.648 265.872 217.585 265.908Z" fill="#455A64"/>
<path d="M220.726 290.979C220.69 290.988 220.592 290.568 220.449 289.819C220.297 288.971 220.101 287.901 219.86 286.634C219.387 283.841 218.772 280.165 218.085 276.097C216.889 268.629 216.077 263.544 215.703 261.179C215.801 261.144 216.22 262.812 216.72 265.489C217.237 268.174 217.88 271.904 218.558 276.017C219.227 280.139 219.807 283.868 220.19 286.58C220.36 287.865 220.512 288.936 220.628 289.792C220.726 290.551 220.761 290.97 220.726 290.979Z" fill="#455A64"/>
<path d="M169.772 179.918C169.772 179.918 166.917 199.983 166.391 207.023C166.07 211.252 170.37 216.873 173.653 217.292C176.99 217.711 188 218.363 188 218.363L188.919 205.774L188.633 203.267L185.198 202.615L186.233 182.657L169.772 179.918Z" fill="#B78876"/>
<path d="M185.778 183.326C185.814 183.326 185.859 183.71 185.903 184.414C185.957 185.119 186.001 186.136 186.028 187.394C186.082 189.919 186.028 193.399 185.814 197.244C185.6 201.09 185.296 204.551 185.047 207.058C184.922 208.308 184.806 209.325 184.717 210.021C184.627 210.716 184.565 211.109 184.529 211.1C184.493 211.1 184.502 210.708 184.529 210.003C184.574 209.2 184.636 208.2 184.708 207.023C184.877 204.409 185.091 200.991 185.341 197.209C185.555 193.372 185.671 189.901 185.698 187.385C185.707 186.208 185.716 185.208 185.725 184.405C185.725 183.719 185.751 183.326 185.778 183.326Z" fill="#AA6550"/>
<g opacity="0.3">
<g opacity="0.3">
<path opacity="0.3" d="M186.867 243.05C192.488 245.138 198.644 245.316 204.621 244.79C210.59 244.263 216.497 243.077 222.465 242.506C231.495 241.649 240.649 242.238 249.49 244.254C250.115 244.397 250.766 244.549 251.4 244.433C252.033 244.317 252.658 243.871 252.756 243.237C252.907 242.238 251.819 241.542 250.891 241.149C230.576 232.602 206.629 233.137 186.715 242.586" fill="black"/>
</g>
</g>
<path d="M272.928 148.771L241.246 132.997C232.922 132.024 226.186 132.337 226.186 132.337H205.21C205.21 132.337 179.792 139.831 175.598 146.746L164.704 179.4L186.242 182.657L188.928 206.122C188.928 206.122 186.26 233.289 186.26 237.233C186.26 241.176 186.599 242.684 186.599 242.684C186.599 242.684 229.683 236.135 240.292 239.588C250.9 243.041 253.773 242.684 253.773 242.684C253.773 242.684 252.89 231.407 252.095 224.867L249.633 192.132L247.813 167.133L267.754 173.235L272.928 148.771Z" fill="#44D7B7"/>
<path d="M186.037 182.907C185.957 182.916 185.751 181.559 185.27 179.382C184.788 177.214 183.994 174.234 182.78 171.049C181.558 167.864 180.166 165.081 179.087 163.091C178.578 162.172 178.141 161.387 177.784 160.753C177.472 160.2 177.311 159.888 177.347 159.87C177.374 159.852 177.588 160.138 177.954 160.664C178.319 161.191 178.819 161.967 179.399 162.948C180.559 164.902 182.022 167.686 183.253 170.898C184.485 174.11 185.234 177.125 185.627 179.32C185.823 180.417 185.948 181.31 186.01 181.934C186.046 182.559 186.073 182.907 186.037 182.907Z" fill="#15213F"/>
<path d="M226.677 192.177C226.695 192.186 226.65 192.328 226.57 192.605C226.463 192.935 226.329 193.328 226.168 193.809C225.99 194.336 225.767 194.969 225.472 195.701C225.178 196.432 224.866 197.271 224.455 198.172C223.679 199.992 222.644 202.116 221.404 204.409C220.137 206.693 218.638 209.155 216.916 211.636C215.176 214.107 213.374 216.355 211.661 218.327C209.93 220.29 208.288 221.985 206.843 223.332C206.138 224.028 205.46 224.608 204.871 225.135C204.291 225.661 203.765 226.089 203.337 226.437C202.935 226.758 202.614 227.017 202.337 227.231C202.106 227.41 201.981 227.499 201.972 227.481C201.963 227.472 202.07 227.356 202.284 227.16C202.534 226.928 202.846 226.642 203.221 226.303C203.631 225.938 204.14 225.491 204.702 224.947C205.264 224.403 205.933 223.814 206.62 223.109C208.03 221.735 209.636 220.022 211.34 218.059C213.026 216.079 214.81 213.83 216.541 211.377C218.254 208.914 219.753 206.47 221.038 204.204C222.296 201.928 223.358 199.832 224.161 198.038C224.589 197.155 224.919 196.325 225.231 195.603C225.553 194.889 225.802 194.264 225.999 193.747C226.195 193.274 226.356 192.89 226.48 192.569C226.596 192.31 226.659 192.177 226.677 192.177Z" fill="#15213F"/>
<path d="M241.318 135.156C241.407 135.201 240.131 136.468 239.649 139.135C239.399 140.447 239.399 142.062 239.676 143.819C239.944 145.577 240.479 147.477 241.014 149.476C242.112 153.473 243.263 157.033 244.146 159.602C244.565 160.816 244.913 161.833 245.199 162.645C245.449 163.359 245.573 163.769 245.538 163.778C245.511 163.787 245.324 163.412 245.02 162.716C244.717 162.02 244.307 160.994 243.825 159.727C242.861 157.184 241.648 153.616 240.55 149.61C240.015 147.611 239.489 145.693 239.239 143.891C238.971 142.097 239.016 140.429 239.31 139.073C239.596 137.717 240.113 136.7 240.533 136.066C240.979 135.424 241.3 135.138 241.318 135.156Z" fill="#15213F"/>
<path d="M181.522 169.532C181.558 169.568 180.987 170.139 179.836 170.683C178.694 171.228 176.91 171.674 174.965 171.379C173.02 171.085 171.441 170.121 170.513 169.265C169.567 168.399 169.201 167.695 169.246 167.668C169.308 167.623 169.772 168.248 170.727 169.015C171.673 169.782 173.189 170.639 175.036 170.924C176.874 171.201 178.578 170.835 179.711 170.38C180.844 169.934 181.478 169.47 181.522 169.532Z" fill="white"/>
<path d="M242.255 154.802C242.272 154.811 242.174 155.043 241.987 155.489C241.799 155.935 241.487 156.578 241.05 157.381C240.158 158.978 238.721 161.253 236.339 163.546C233.975 165.812 230.576 168.069 226.284 169.015C224.152 169.488 221.823 169.657 219.468 169.309C217.094 168.988 214.766 168.069 212.562 166.856C208.181 164.411 204.479 161.315 200.428 159.834C196.413 158.291 192.372 158.469 189.24 159.219C186.073 159.977 183.762 161.36 182.29 162.404C180.827 163.492 180.14 164.242 180.104 164.197C180.104 164.197 180.737 163.394 182.183 162.252C183.637 161.146 185.957 159.709 189.16 158.889C192.327 158.086 196.449 157.863 200.571 159.424C204.72 160.914 208.449 164.028 212.776 166.437C214.944 167.632 217.21 168.524 219.521 168.846C221.823 169.193 224.098 169.042 226.186 168.587C230.388 167.677 233.752 165.5 236.107 163.296C238.481 161.066 239.953 158.844 240.889 157.283C241.344 156.497 241.675 155.864 241.898 155.436C242.121 155.016 242.246 154.793 242.255 154.802Z" fill="white"/>
<path d="M262.097 143.355C262.124 143.346 262.284 143.703 262.507 144.381C262.722 145.059 262.954 146.076 263.025 147.361C263.087 148.637 262.998 150.19 262.525 151.822C262.07 153.455 261.258 155.186 260.018 156.712C258.769 158.246 257.261 159.352 256.039 160.468C254.799 161.565 253.853 162.734 253.336 163.867C252.809 164.991 252.684 166.017 252.747 166.704C252.8 167.4 252.952 167.766 252.907 167.784C252.89 167.793 252.845 167.703 252.774 167.525C252.702 167.347 252.622 167.079 252.568 166.722C252.452 166.008 252.524 164.92 253.041 163.733C253.532 162.529 254.504 161.288 255.753 160.155C256.976 158.996 258.466 157.898 259.661 156.417C262.088 153.446 262.766 149.842 262.695 147.37C262.632 144.863 261.99 143.382 262.097 143.355Z" fill="white"/>
<path d="M210.555 218.577C210.564 218.604 210.233 218.728 209.627 218.898C209.02 219.068 208.128 219.3 207.004 219.46C205.88 219.594 204.479 219.701 202.998 219.228C202.266 218.996 201.534 218.595 200.901 218.05C200.268 217.497 199.741 216.819 199.188 216.177C198.635 215.525 198.046 214.963 197.395 214.526C196.734 214.089 196.039 213.777 195.352 213.545C193.969 213.09 192.621 213.054 191.524 213.179C190.427 213.304 189.57 213.625 189.008 213.893C188.437 214.151 188.143 214.339 188.125 214.303C188.116 214.285 188.375 214.044 188.928 213.732C189.481 213.411 190.346 213.036 191.479 212.858C192.612 212.688 194.013 212.688 195.476 213.143C196.208 213.366 196.949 213.696 197.644 214.152C198.34 214.615 198.983 215.222 199.536 215.882C200.098 216.543 200.616 217.194 201.195 217.72C201.784 218.238 202.445 218.613 203.132 218.836C204.506 219.299 205.862 219.246 206.968 219.148C209.181 218.88 210.537 218.497 210.555 218.577Z" fill="white"/>
<path d="M251.587 216.676C251.596 216.685 251.498 216.775 251.301 216.917C251.105 217.051 250.829 217.292 250.418 217.515C249.633 218.006 248.42 218.604 246.814 219.023C245.208 219.415 243.209 219.674 241.023 219.362C238.846 219.094 236.5 218.22 234.439 216.721C232.396 215.213 230.772 213.438 229.175 211.992C227.596 210.52 225.99 209.414 224.5 208.772C223.019 208.111 221.689 207.942 220.788 207.951C219.878 207.969 219.387 208.102 219.379 208.058C219.379 208.04 219.495 208.004 219.726 207.942C219.958 207.87 220.315 207.808 220.779 207.772C221.698 207.701 223.081 207.826 224.625 208.468C226.168 209.084 227.846 210.199 229.451 211.671C231.084 213.117 232.708 214.883 234.698 216.346C236.696 217.801 238.944 218.657 241.068 218.934C243.182 219.264 245.145 219.05 246.716 218.702C248.295 218.327 249.508 217.792 250.311 217.354C251.141 216.926 251.56 216.632 251.587 216.676Z" fill="white"/>
<path d="M327.424 89.5467C319.109 85.5853 311.909 79.0812 307.135 70.4179C301.256 59.7472 299.882 47.4259 303.272 35.7203C306.663 24.0146 314.407 14.3253 325.078 8.44568C347.106 -3.69717 374.907 4.35048 387.05 26.3789C392.929 37.0496 394.303 49.3798 390.913 61.0766C387.523 72.7733 379.778 82.4626 369.108 88.3512C355.751 95.7207 340.254 95.6583 327.424 89.5467ZM365.45 10.016C353.476 4.31479 339.023 4.25234 326.55 11.1223C316.593 16.6093 309.366 25.6473 306.208 36.5678C303.049 47.4884 304.325 58.9888 309.812 68.9458C315.299 78.9028 324.337 86.1296 335.258 89.288C346.178 92.4464 357.679 91.1705 367.636 85.6835C377.593 80.1965 384.819 71.1585 387.978 60.2379C391.136 49.3174 389.86 37.8169 384.373 27.86C379.921 19.7766 373.203 13.7097 365.45 10.016Z" fill="#15213F"/>
<path d="M404.403 139.412C401.735 141.054 398.247 140.224 396.605 137.565L366.77 89.2256C366.485 88.7705 366.627 88.1639 367.091 87.8873L373.453 83.9616C373.899 83.685 374.488 83.8099 374.773 84.2471L406.152 131.453C407.918 134.112 407.133 137.726 404.403 139.412Z" fill="#15213F"/>
<path d="M328.521 87.2448C320.206 83.2835 313.006 76.7793 308.233 68.1161C302.353 57.4453 300.979 45.124 304.37 33.4184C307.76 21.7127 315.504 12.0234 326.175 6.1438C348.203 -5.99905 376.004 2.0486 388.147 24.077C394.027 34.7478 395.401 47.078 392.01 58.7747C388.62 70.4804 380.876 80.1608 370.205 86.0493C356.849 93.4189 341.351 93.3564 328.521 87.2448ZM366.547 7.71408C354.574 2.01291 340.12 1.95046 327.647 8.8204C317.69 14.3074 310.463 23.3454 307.305 34.266C304.146 45.1865 305.422 56.687 310.909 66.6439C316.396 76.6009 325.434 83.8277 336.355 86.9861C347.275 90.1445 358.776 88.8686 368.733 83.3816C378.69 77.8946 385.917 68.8566 389.075 57.936C392.233 47.0155 390.958 35.515 385.471 25.5581C381.018 17.4748 374.3 11.4078 366.547 7.71408Z" fill="#455A64"/>
<path d="M405.625 138.653L405.161 138.939C403.083 140.224 400.352 139.572 399.068 137.494L367.341 86.085L375.335 81.1511L407.062 132.56C408.356 134.647 407.704 137.369 405.625 138.653Z" fill="#455A64"/>
<path d="M314.139 35.2652C314.112 35.2563 314.202 34.7567 314.389 33.8555C314.478 33.4005 314.603 32.8474 314.808 32.2317C315.005 31.6072 315.192 30.8845 315.522 30.1172C315.674 29.7336 315.834 29.3321 316.004 28.9127C316.173 28.4934 316.396 28.083 316.602 27.6458C317.003 26.7536 317.547 25.8703 318.092 24.9246C319.26 23.0778 320.706 21.1417 322.463 19.3216C324.239 17.5193 326.13 16.0204 327.942 14.7981C328.869 14.2271 329.744 13.6561 330.627 13.2368C331.064 13.0227 331.466 12.7818 331.885 12.6033C332.295 12.4249 332.697 12.2554 333.081 12.0948C333.83 11.7468 334.553 11.5416 335.168 11.3275C335.784 11.1044 336.328 10.9617 336.783 10.8635C337.684 10.6494 338.175 10.5423 338.184 10.5691C338.193 10.5959 337.702 10.7565 336.828 11.0241C336.391 11.149 335.846 11.3096 335.249 11.5594C334.642 11.7914 333.937 12.0234 333.197 12.3803C332.822 12.5498 332.429 12.7282 332.028 12.9067C331.626 13.094 331.225 13.3349 330.797 13.558C329.94 13.9862 329.084 14.5572 328.165 15.1372C326.38 16.3595 324.524 17.8495 322.776 19.6249C321.045 21.4272 319.608 23.3187 318.44 25.1387C317.886 26.0666 317.342 26.941 316.932 27.8064C316.718 28.2347 316.495 28.6451 316.316 29.0555C316.147 29.4659 315.977 29.8585 315.817 30.2421C315.477 30.9827 315.272 31.6964 315.049 32.312C314.817 32.9187 314.675 33.463 314.559 33.9091C314.318 34.7834 314.166 35.2741 314.139 35.2652Z" fill="#E0E0E0"/>
</svg>
