<svg width="150" height="150" viewBox="0 0 150 150" fill="none" xmlns="http://www.w3.org/2000/svg">
<path d="M75 0C33.6462 0 0 33.6433 0 75C0 116.357 33.6462 150 75 150C116.354 150 150 116.357 150 75C150 33.6433 116.354 0 75 0ZM116.027 49.4609L69.3609 100.594C68.2117 101.852 66.6105 102.5 64.9976 102.5C63.7172 102.5 62.4309 102.091 61.3547 101.256L32.1884 78.53C29.6742 76.5727 29.2659 72.9963 31.2784 70.5447C33.2879 68.0932 36.9629 67.6955 39.477 69.6556L64.318 89.0094L107.306 41.9074C109.441 39.561 113.134 39.3508 115.54 41.4359C117.949 43.5238 118.168 47.1145 116.027 49.4609Z" fill="#00D34F"/>
</svg>
