<svg width="13" height="19" viewBox="0 0 13 19" fill="none" xmlns="http://www.w3.org/2000/svg">
<path d="M6.4983 3.66309C4.74984 3.66309 3.32715 5.08577 3.32715 6.83423C3.32715 8.58268 4.74984 10.0054 6.4983 10.0054C8.24676 10.0054 9.66945 8.58268 9.66945 6.83423C9.66945 5.08577 8.24676 3.66309 6.4983 3.66309Z" fill="#4A90E2"/>
<path d="M5.78662 14.491L5.76958 14.4754L5.36553 14.1098L4.41467 13.2495L3.38078 13.3608L2.74808 13.4285L2.59807 13.4449L2.11501 13.4967L0.59375 16.7294L2.94958 16.7606L4.47443 18.5558L6.20807 14.8723L5.78662 14.491Z" fill="#4A90E2"/>
<path d="M10.8811 13.4967L10.3981 13.4449L10.2481 13.4289L9.61538 13.3608L8.58149 13.2495L7.63062 14.1098L7.22657 14.4754L7.20954 14.491L6.78809 14.8723L8.52172 18.5558L10.0466 16.7606L12.4024 16.7294L10.8811 13.4967Z" fill="#4A90E2"/>
<path d="M12.0538 6.83445L12.9999 4.72253L10.9931 3.57013L10.5173 1.30527L8.21619 1.5524L6.49998 0L4.78378 1.55243L2.48267 1.3053L2.00686 3.57013L0 4.72249L0.946151 6.83442L0 8.94634L2.00686 10.0987L2.48267 12.3636L2.65808 12.3447L3.29114 12.2766L3.92384 12.2088L4.09345 12.1907H4.09381L4.78378 12.1164L5.30272 12.5857L5.85028 13.0811L6.02098 13.2355L6.27173 13.4623L6.50002 13.6688L6.7283 13.4623L6.97905 13.2355L7.14975 13.0811L7.57555 12.6962L7.57591 12.6959L8.21622 12.1164L9.33452 12.2364H9.33488L9.44868 12.2487L9.70886 12.2766H9.70922L10.3419 12.3448L10.5173 12.3636L10.9931 10.0987L13 8.94638L12.0538 6.83445ZM6.49998 11.0927C4.15213 11.0927 2.24167 9.18263 2.24167 6.83442C2.24167 4.48656 4.15213 2.5761 6.49998 2.5761C8.84784 2.5761 10.7583 4.48656 10.7583 6.83442C10.7583 9.18263 8.84784 11.0927 6.49998 11.0927Z" fill="#4A90E2"/>
</svg>
