<svg width="12" height="12" viewBox="0 0 12 12" fill="none" xmlns="http://www.w3.org/2000/svg">
<path d="M7.07992 6.00006L11.3399 1.74006C11.4599 1.62006 11.5799 1.38006 11.5799 1.20006C11.5799 1.02006 11.5199 0.780059 11.3399 0.660059C11.0399 0.360059 10.5599 0.360059 10.2599 0.660059L5.99992 4.92006L1.73992 0.660059C1.43992 0.360059 0.959922 0.360059 0.659922 0.660059C0.539922 0.780059 0.419922 1.02006 0.419922 1.20006C0.419922 1.38006 0.479922 1.62006 0.659922 1.74006L4.91992 6.00006L0.659922 10.2601C0.539922 10.3801 0.419922 10.6201 0.419922 10.8001C0.419922 10.9801 0.479922 11.2201 0.659922 11.3401C0.959922 11.6401 1.43992 11.6401 1.73992 11.3401L5.99992 7.08006L10.2599 11.3401C10.3799 11.4601 10.6199 11.5801 10.7999 11.5801C10.9799 11.5801 11.2199 11.5201 11.3399 11.3401C11.6399 11.0401 11.6399 10.5601 11.3399 10.2601L7.07992 6.00006Z" fill="#9196A5"/>
</svg>
