<svg width="20" height="17" viewBox="0 0 20 17" fill="none" xmlns="http://www.w3.org/2000/svg">
<path d="M19.3853 12.4267C19.3853 11.7107 18.9241 11.106 18.2854 10.8782V5.1811L19.3853 4.72762L9.99975 0.961914L0.614258 4.72762L9.99975 8.49337L17.1855 5.62273V10.8782C16.5468 11.106 16.0857 11.7107 16.0857 12.4267C16.0857 13.0822 16.4728 13.6449 17.0279 13.9108L16.1142 16.6521L17.1571 17.0001L17.7355 15.2649L18.3138 17.0001L19.3568 16.6521L18.443 13.9108C18.9981 13.6449 19.3853 13.0822 19.3853 12.4267Z" fill="#FF5D5D"/>
<path d="M10.0002 9.67879L5.05078 7.69141V9.12724C5.05078 10.6949 7.17854 11.8769 10.0002 11.8769C12.8218 11.8769 14.9495 10.6949 14.9495 9.12724V7.69141L10.0002 9.67879Z" fill="#FF5D5D"/>
</svg>
