<svg width="18" height="16" viewBox="0 0 18 16" fill="none" xmlns="http://www.w3.org/2000/svg">
<path d="M9.6212 8.05405C9.45583 8.20331 9.24097 8.28592 9.0182 8.28592C8.79543 8.28592 8.58058 8.20331 8.4152 8.05405L0.783203 1.11505C1.08268 0.909901 1.4372 0.800097 1.8002 0.800049H16.2002C16.5632 0.800097 16.9177 0.909901 17.2172 1.11505L9.6212 8.05405Z" fill="#4A90E2"/>
<path d="M18 2.83398V12.5C18 13.2161 17.7155 13.9028 17.2092 14.4092C16.7028 14.9155 16.0161 15.2 15.3 15.2H2.7C1.98392 15.2 1.29716 14.9155 0.790812 14.4092C0.284464 13.9028 0 13.2161 0 12.5V2.83398L7.812 9.96198C8.14145 10.2481 8.56364 10.4048 9 10.403C9.44181 10.4021 9.86785 10.2387 10.197 9.94398L18 2.83398Z" fill="#4A90E2"/>
</svg>
