<svg width="13" height="11" viewBox="0 0 13 11" fill="none" xmlns="http://www.w3.org/2000/svg">
<path d="M1.46587 11.0003H10.9662C11.6662 11.0003 12.2163 10.4503 12.2163 9.75027V3.75005C12.2163 3.05002 11.6662 2.5 10.9662 2.5H1.46587C0.765841 2.5 0.21582 3.05002 0.21582 3.75005V9.75027C0.21582 10.4503 0.765841 11.0003 1.46587 11.0003Z" fill="#9A27FE"/>
<path d="M7.96499 3.00007C7.81498 3.00007 7.71498 2.90007 7.71498 2.75006V1.75003C7.71498 1.60002 7.61498 1.50002 7.46497 1.50002H4.96487C4.81487 1.50002 4.71486 1.60002 4.71486 1.75003V2.75006C4.71486 2.90007 4.61486 3.00007 4.46485 3.00007C4.31485 3.00007 4.21484 2.90007 4.21484 2.75006V1.75003C4.21484 1.35001 4.56486 1 4.96487 1H7.46497C7.86499 1 8.215 1.35001 8.215 1.75003V2.75006C8.215 2.90007 8.115 3.00007 7.96499 3.00007Z" fill="#9A27FE" stroke="#9A27FE" stroke-width="0.4"/>
</svg>
