<svg width="18" height="14" viewBox="0 0 18 14" fill="none" xmlns="http://www.w3.org/2000/svg">
<mask id="mask0" mask-type="alpha" maskUnits="userSpaceOnUse" x="0" y="0" width="18" height="14">
<rect width="18" height="14" fill="#C4C4C4"/>
</mask>
<g mask="url(#mask0)">
<g filter="url(#filter0_d)">
<path d="M2.70223 13.9385H15.4908C16.4331 13.9385 17.1735 13.1981 17.1735 12.2558V4.1788C17.1735 3.23648 16.4331 2.49609 15.4908 2.49609H2.70223C1.75992 2.49609 1.01953 3.23648 1.01953 4.1788V12.2558C1.01953 13.1981 1.75992 13.9385 2.70223 13.9385Z" fill="#9A27FE"/>
<path d="M11.4505 3.16888C11.2485 3.16888 11.1139 3.03427 11.1139 2.83234V1.48618C11.1139 1.28426 10.9793 1.14964 10.7774 1.14964H7.41197C7.21004 1.14964 7.07543 1.28426 7.07543 1.48618V2.83234C7.07543 3.03427 6.94081 3.16888 6.73888 3.16888C6.53696 3.16888 6.40234 3.03427 6.40234 2.83234V1.48618C6.40234 0.947719 6.8735 0.476562 7.41197 0.476562H10.7774C11.3158 0.476562 11.787 0.947719 11.787 1.48618V2.83234C11.787 3.03427 11.6524 3.16888 11.4505 3.16888Z" fill="#9A27FE" stroke="#9A27FE" stroke-width="0.538445"/>
<path d="M9.09683 8.55275C9.02952 8.55275 9.02952 8.55275 8.96221 8.55275L1.22178 5.86043C1.08716 5.79312 0.952548 5.5912 1.01986 5.38927C1.08716 5.25466 1.28909 5.12004 1.49101 5.18735L9.09683 7.87967L16.7026 5.18735C16.9046 5.12004 17.0392 5.18735 17.1065 5.38927C17.1738 5.5912 17.1065 5.72581 16.9046 5.79312L9.16413 8.48544C9.16413 8.55275 9.16413 8.55275 9.09683 8.55275V8.55275Z" fill="#EAD3FF" stroke="#EAD2FF" stroke-width="0.538445"/>
</g>
</g>
<defs>
<filter id="filter0_d" x="-31.5743" y="-32.0996" width="81.2816" height="78.3448" filterUnits="userSpaceOnUse" color-interpolation-filters="sRGB">
<feFlood flood-opacity="0" result="BackgroundImageFix"/>
<feColorMatrix in="SourceAlpha" type="matrix" values="0 0 0 0 0 0 0 0 0 0 0 0 0 0 0 0 0 0 127 0"/>
<feOffset/>
<feGaussianBlur stdDeviation="16.1533"/>
<feColorMatrix type="matrix" values="0 0 0 0 0.999957 0 0 0 0 0.999957 0 0 0 0 0.999957 0 0 0 0.62 0"/>
<feBlend mode="normal" in2="BackgroundImageFix" result="effect1_dropShadow"/>
<feBlend mode="normal" in="SourceGraphic" in2="effect1_dropShadow" result="shape"/>
</filter>
</defs>
</svg>
