<svg width="20" height="20" viewBox="0 0 20 20" fill="none" xmlns="http://www.w3.org/2000/svg">
<mask id="mask0" mask-type="alpha" maskUnits="userSpaceOnUse" x="0" y="0" width="20" height="20">
<rect width="20" height="20" fill="#C4C4C4"/>
</mask>
<g mask="url(#mask0)">
<path d="M18.9702 14.4648C18.9702 13.7487 18.5091 13.144 17.8703 12.9163V7.21918L18.9702 6.76571L9.58472 3L0.199219 6.76571L9.58472 10.5315L16.7705 7.66082V12.9163C16.1318 13.144 15.6706 13.7487 15.6706 14.4648C15.6706 15.1203 16.0578 15.683 16.6129 15.9489L15.6991 18.6902L16.742 19.0382L17.3204 17.303L17.8988 19.0382L18.9417 18.6902L18.028 15.9489C18.5831 15.683 18.9702 15.1203 18.9702 14.4648Z" fill="#FF5D5D"/>
<path d="M9.58415 11.7159L4.63477 9.72852V11.1643C4.63477 12.732 6.76252 13.914 9.58415 13.914C12.4058 13.914 14.5335 12.732 14.5335 11.1643V9.72852L9.58415 11.7159Z" fill="#FF5D5D"/>
</g>
</svg>
