<svg width="21" height="20" viewBox="0 0 21 20" fill="none" xmlns="http://www.w3.org/2000/svg">
<mask id="mask0" mask-type="alpha" maskUnits="userSpaceOnUse" x="0" y="0" width="21" height="20">
<rect x="0.5" width="20" height="20" fill="#C4C4C4"/>
</mask>
<g mask="url(#mask0)">
<path d="M10.4993 4.16406C8.75081 4.16406 7.32812 5.58675 7.32812 7.3352C7.32812 9.08366 8.75081 10.5063 10.4993 10.5063C12.2477 10.5063 13.6704 9.08366 13.6704 7.3352C13.6704 5.58675 12.2477 4.16406 10.4993 4.16406Z" fill="#4A90E2"/>
<path d="M9.78662 14.9915L9.76958 14.9759L9.36553 14.6103L8.41467 13.75L7.38078 13.8613L6.74808 13.929L6.59807 13.9453L6.11501 13.9972L4.59375 17.2299L6.94958 17.2611L8.47443 19.0563L10.2081 15.3727L9.78662 14.9915Z" fill="#4A90E2"/>
<path d="M14.8821 13.9972L14.3991 13.9453L14.2491 13.9294L13.6164 13.8613L12.5825 13.75L11.6316 14.6103L11.2275 14.9759L11.2105 14.9915L10.7891 15.3727L12.5227 19.0563L14.0476 17.2611L16.4034 17.2299L14.8821 13.9972Z" fill="#4A90E2"/>
<path d="M16.0538 7.33445L16.9999 5.22253L14.9931 4.07013L14.5173 1.80527L12.2162 2.0524L10.5 0.5L8.78378 2.05243L6.48267 1.8053L6.00686 4.07013L4 5.22249L4.94615 7.33442L4 9.44634L6.00686 10.5987L6.48267 12.8636L6.65808 12.8447L7.29114 12.7766L7.92384 12.7088L8.09345 12.6907H8.09381L8.78378 12.6164L9.30272 13.0857L9.85028 13.5811L10.021 13.7355L10.2717 13.9623L10.5 14.1688L10.7283 13.9623L10.9791 13.7355L11.1498 13.5811L11.5756 13.1962L11.5759 13.1959L12.2162 12.6164L13.3345 12.7364H13.3349L13.4487 12.7487L13.7089 12.7766H13.7092L14.3419 12.8448L14.5173 12.8636L14.9931 10.5987L17 9.44638L16.0538 7.33445ZM10.5 11.5927C8.15213 11.5927 6.24167 9.68263 6.24167 7.33442C6.24167 4.98656 8.15213 3.0761 10.5 3.0761C12.8478 3.0761 14.7583 4.98656 14.7583 7.33442C14.7583 9.68263 12.8478 11.5927 10.5 11.5927Z" fill="#4A90E2"/>
</g>
</svg>