<svg width="20" height="20" viewBox="0 0 20 20" fill="none" xmlns="http://www.w3.org/2000/svg">
<mask id="mask0" mask-type="alpha" maskUnits="userSpaceOnUse" x="0" y="0" width="20" height="20">
<rect width="20" height="20" fill="#C4C4C4"/>
</mask>
<g mask="url(#mask0)">
<g filter="url(#filter0_d)">
<path d="M3.70028 16.4619H16.4888C17.4311 16.4619 18.1715 15.7215 18.1715 14.7792V6.70223C18.1715 5.75992 17.4311 5.01953 16.4888 5.01953H3.70028C2.75797 5.01953 2.01758 5.75992 2.01758 6.70223V14.7792C2.01758 15.7215 2.75797 16.4619 3.70028 16.4619Z" fill="#9A27FE"/>
<path d="M12.4485 5.69232C12.2466 5.69232 12.112 5.55771 12.112 5.35578V4.00962C12.112 3.8077 11.9773 3.67308 11.7754 3.67308H8.41001C8.20809 3.67308 8.07347 3.8077 8.07347 4.00962V5.35578C8.07347 5.55771 7.93886 5.69232 7.73693 5.69232C7.53501 5.69232 7.40039 5.55771 7.40039 5.35578V4.00962C7.40039 3.47116 7.87155 3 8.41001 3H11.7754C12.3139 3 12.785 3.47116 12.785 4.00962V5.35578C12.785 5.55771 12.6504 5.69232 12.4485 5.69232Z" fill="#9A27FE" stroke="#9A27FE" stroke-width="0.538445"/>
<path d="M10.0949 11.0762C10.0276 11.0762 10.0276 11.0762 9.96026 11.0762L2.21983 8.38387C2.08521 8.31656 1.95059 8.11464 2.0179 7.91271C2.08521 7.7781 2.28714 7.64348 2.48906 7.71079L10.0949 10.4031L17.7007 7.71079C17.9026 7.64348 18.0372 7.71079 18.1045 7.91271C18.1718 8.11464 18.1045 8.24925 17.9026 8.31656L10.1622 11.0089C10.1622 11.0762 10.1622 11.0762 10.0949 11.0762V11.0762Z" fill="#EAD3FF" stroke="#EAD2FF" stroke-width="0.538445"/>
</g>
</g>
<defs>
<filter id="filter0_d" x="-30.5762" y="-29.5762" width="81.2816" height="78.3448" filterUnits="userSpaceOnUse" color-interpolation-filters="sRGB">
<feFlood flood-opacity="0" result="BackgroundImageFix"/>
<feColorMatrix in="SourceAlpha" type="matrix" values="0 0 0 0 0 0 0 0 0 0 0 0 0 0 0 0 0 0 127 0"/>
<feOffset/>
<feGaussianBlur stdDeviation="16.1533"/>
<feColorMatrix type="matrix" values="0 0 0 0 0.999957 0 0 0 0 0.999957 0 0 0 0 0.999957 0 0 0 0.62 0"/>
<feBlend mode="normal" in2="BackgroundImageFix" result="effect1_dropShadow"/>
<feBlend mode="normal" in="SourceGraphic" in2="effect1_dropShadow" result="shape"/>
</filter>
</defs>
</svg>
