<svg width="20" height="20" viewBox="0 0 20 20" fill="none" xmlns="http://www.w3.org/2000/svg">
<mask id="mask0" mask-type="alpha" maskUnits="userSpaceOnUse" x="0" y="0" width="20" height="20">
<rect width="20" height="20" fill="#C4C4C4"/>
</mask>
<g mask="url(#mask0)">
<path d="M11.8568 16.6308C11.8568 17.2427 11.456 17.7607 10.9022 17.9366C10.7711 17.9782 10.6317 18.0008 10.4868 18.0008C9.73035 18.0008 9.11719 17.3876 9.11719 16.6308L10.9855 15.7598L11.2498 16.0238L11.8568 16.6308Z" fill="#44D7B6"/>
<path d="M10.4387 10.9126C12.1664 10.9126 13.5669 9.51208 13.5669 7.78443C13.5669 6.05678 12.1664 4.65625 10.4387 4.65625C8.71108 4.65625 7.31055 6.05678 7.31055 7.78443C7.31055 9.51208 8.71108 10.9126 10.4387 10.9126Z" fill="#FDE7E0"/>
<path d="M15.81 6.63555V8.9311L14.3638 9.19154C14.1973 9.64948 13.952 10.0694 13.6445 10.4353L14.1428 11.8192L12.1545 12.9671L11.206 11.8444C10.9723 11.8854 10.7322 11.907 10.4873 11.907L9.8418 11.005L10.4873 9.9632C11.691 9.96289 12.6666 8.98728 12.6666 7.78353C12.6666 6.57977 11.691 5.60416 10.4873 5.60385L9.8418 4.48594L10.4873 3.66009C10.7322 3.66009 10.9723 3.68171 11.206 3.72268L12.1545 2.59961L14.1428 3.74756L13.6445 5.13172C13.952 5.49738 14.1973 5.91757 14.3638 6.37551L15.81 6.63555Z" fill="#44D7B6"/>
<path d="M10.4867 2.18555V13.7278L9.5412 14.4531L8.93379 13.7278C8.69304 13.7278 8.47519 13.6303 8.31738 13.4725C8.15957 13.3147 8.0621 13.0965 8.0621 12.8561C8.0621 12.505 7.88685 12.1758 7.59253 11.9847C6.12574 11.0337 5.15629 9.38067 5.16017 7.50146C5.16595 4.60728 7.51572 2.2272 10.4093 2.1862C10.4351 2.18589 10.4609 2.18555 10.4867 2.18555Z" fill="#44D7B6"/>
<path d="M12.2369 15.1793H8.73766C8.36478 15.1793 8.0625 14.877 8.0625 14.5041V14.4037C8.0625 14.0308 8.36478 13.7285 8.73766 13.7285H12.2369C12.6098 13.7285 12.9121 14.0308 12.9121 14.4037V14.5041C12.9121 14.877 12.6098 15.1793 12.2369 15.1793Z" fill="#44D7B6"/>
<path d="M12.2369 16.6304H8.73766C8.36478 16.6304 8.0625 16.3282 8.0625 15.9553V15.8548C8.0625 15.482 8.36478 15.1797 8.73766 15.1797H12.2369C12.6098 15.1797 12.9121 15.482 12.9121 15.8548V15.9553C12.9121 16.3281 12.6098 16.6304 12.2369 16.6304Z" fill="#44D7B6"/>
<path d="M11.4403 7.78365C11.4403 8.32034 11.0176 8.75859 10.487 8.78313C10.4712 8.78378 10.4557 8.78409 10.4399 8.78409C9.88739 8.78409 9.43945 8.33615 9.43945 7.78365C9.43945 7.23083 9.88739 6.7832 10.4399 6.7832C10.4557 6.7832 10.4712 6.78352 10.487 6.78417C11.0176 6.8087 11.4403 7.24664 11.4403 7.78365Z" fill="#FDE7E0"/>
<path d="M4.0234 6.74084C4.00774 6.74084 3.99186 6.73931 3.97593 6.73612L2.19488 6.38183C2.06376 6.35577 1.97863 6.22833 2.00469 6.09724C2.03076 5.96614 2.15801 5.88095 2.28929 5.90704L4.07033 6.26133C4.20146 6.28739 4.28659 6.41484 4.26052 6.54593C4.23762 6.66112 4.13649 6.74084 4.0234 6.74084Z" fill="#44D7B6"/>
<path d="M5.53025 3.68079C5.4736 3.68079 5.41669 3.66101 5.37075 3.62073L4.00627 2.42403C3.90577 2.33591 3.89577 2.18297 3.9839 2.08247C4.07202 1.98193 4.22496 1.97193 4.32546 2.06009L5.68991 3.25679C5.79041 3.34491 5.80041 3.49785 5.71229 3.59835C5.66444 3.65292 5.5975 3.68079 5.53025 3.68079Z" fill="#44D7B6"/>
<path d="M4.94313 14.3469C4.88651 14.3469 4.82957 14.3271 4.78363 14.2868C4.68313 14.1987 4.6731 14.0458 4.76123 13.9453L5.95799 12.5805C6.04615 12.48 6.19905 12.47 6.29955 12.5581C6.40005 12.6462 6.41009 12.7992 6.32196 12.8997L5.1252 14.2644C5.07735 14.319 5.01042 14.3469 4.94313 14.3469Z" fill="#44D7B6"/>
<path d="M2.52532 10.7278C2.42447 10.7278 2.33035 10.6643 2.29613 10.5635C2.25313 10.4369 2.32094 10.2995 2.4475 10.2565L4.16602 9.67307C4.29264 9.6301 4.43008 9.69788 4.47302 9.82444C4.51599 9.95101 4.44821 10.0885 4.32164 10.1314L2.60313 10.7149C2.57735 10.7237 2.5511 10.7278 2.52532 10.7278Z" fill="#44D7B6"/>
<path d="M11.4396 7.78463C11.4396 8.32132 11.0169 8.75958 10.4863 8.78411V6.78516C11.0169 6.80969 11.4396 7.24763 11.4396 7.78463Z" fill="#44D7B6"/>
</g>
</svg>
