<svg width="14" height="16" viewBox="0 0 14 16" fill="none" xmlns="http://www.w3.org/2000/svg">
<path d="M9.85778 14.6301C9.85778 15.242 9.45697 15.7599 8.90315 15.9359C8.77212 15.9775 8.63271 16.0001 8.4878 16.0001C7.73133 16.0001 7.11816 15.3869 7.11816 14.6301L8.98643 13.759L9.25074 14.023L9.85778 14.6301Z" fill="#44D7B6"/>
<path d="M8.4397 8.91237C10.1673 8.91237 11.5679 7.51183 11.5679 5.78419C11.5679 4.05654 10.1673 2.65601 8.4397 2.65601C6.71206 2.65601 5.31152 4.05654 5.31152 5.78419C5.31152 7.51183 6.71206 8.91237 8.4397 8.91237Z" fill="#FDE7E0"/>
<path d="M13.809 4.63652V6.93207L12.3629 7.19251C12.1963 7.65045 11.9511 8.07033 11.6435 8.4363L12.1418 9.82016L10.1535 10.9681L9.20502 9.84535C8.97136 9.88635 8.73126 9.90794 8.48629 9.90794L7.84082 9.00593L8.48629 7.96417C9.69005 7.96386 10.6657 6.98826 10.6657 5.7845C10.6657 4.58074 9.69005 3.60514 8.48629 3.60483L7.84082 2.48691L8.48629 1.66106C8.73123 1.66106 8.97136 1.68269 9.20502 1.72366L10.1535 0.600586L12.1418 1.74853L11.6435 3.1327C11.9511 3.49836 12.1963 3.91855 12.3629 4.37649L13.809 4.63652Z" fill="#44D7B6"/>
<path d="M8.48674 0.186523V11.7288L7.5412 12.4541L6.93379 11.7288C6.69304 11.7288 6.47519 11.6313 6.31738 11.4735C6.15957 11.3157 6.0621 11.0975 6.0621 10.8571C6.0621 10.5059 5.88685 10.1768 5.59253 9.98573C4.12574 9.03466 3.15629 7.38164 3.16017 5.50244C3.16595 2.60826 5.51572 0.22818 8.40927 0.18718C8.43508 0.186867 8.46093 0.186523 8.48674 0.186523Z" fill="#44D7B6"/>
<path d="M10.2369 13.1795H6.73766C6.36478 13.1795 6.0625 12.8772 6.0625 12.5044V12.4039C6.0625 12.031 6.36478 11.7288 6.73766 11.7288H10.2369C10.6098 11.7288 10.9121 12.031 10.9121 12.4039V12.5044C10.9121 12.8772 10.6098 13.1795 10.2369 13.1795Z" fill="#44D7B6"/>
<path d="M10.2369 14.6302H6.73766C6.36478 14.6302 6.0625 14.3279 6.0625 13.955V13.8546C6.0625 13.4817 6.36478 13.1794 6.73766 13.1794H10.2369C10.6098 13.1794 10.9121 13.4817 10.9121 13.8546V13.955C10.9121 14.3279 10.6098 14.6302 10.2369 14.6302Z" fill="#44D7B6"/>
<path d="M9.43937 5.78414C9.43937 6.32083 9.01658 6.75908 8.48605 6.78361C8.47023 6.78427 8.45473 6.78458 8.43892 6.78458C7.88642 6.78458 7.43848 6.33664 7.43848 5.78414C7.43848 5.23132 7.88642 4.78369 8.43892 4.78369C8.45473 4.78369 8.47023 4.784 8.48605 4.78466C9.01658 4.80919 9.43937 5.24713 9.43937 5.78414Z" fill="#FDE7E0"/>
<path d="M2.0234 4.74084C2.00774 4.74084 1.99186 4.73931 1.97593 4.73612L0.194882 4.38183C0.0637555 4.35577 -0.0213701 4.22833 0.00469261 4.09724C0.0307553 3.96614 0.158006 3.88095 0.289289 3.90704L2.07033 4.26133C2.20146 4.28739 2.28659 4.41484 2.26052 4.54593C2.23762 4.66112 2.13649 4.74084 2.0234 4.74084Z" fill="#44D7B6"/>
<path d="M3.53123 1.68079C3.47457 1.68079 3.41767 1.66101 3.37173 1.62073L2.00725 0.424031C1.90675 0.335906 1.89675 0.182967 1.98487 0.0824661C2.073 -0.0180659 2.22594 -0.028066 2.32644 0.060091L3.69089 1.25679C3.79139 1.34491 3.80139 1.49785 3.71326 1.59835C3.66542 1.65292 3.59848 1.68079 3.53123 1.68079Z" fill="#44D7B6"/>
<path d="M2.94411 12.3462C2.88749 12.3462 2.83055 12.3264 2.78461 12.2861C2.68411 12.198 2.67408 12.045 2.7622 11.9445L3.95896 10.5798C4.04712 10.4793 4.20003 10.4692 4.30053 10.5574C4.40103 10.6455 4.41106 10.7984 4.32294 10.8989L3.12618 12.2637C3.07833 12.3183 3.01139 12.3462 2.94411 12.3462Z" fill="#44D7B6"/>
<path d="M0.526292 8.72856C0.425448 8.72856 0.331322 8.66505 0.297103 8.56424C0.254103 8.43768 0.321916 8.30021 0.448479 8.25724L2.16699 7.6738C2.29362 7.63083 2.43106 7.69861 2.47399 7.82518C2.51696 7.95174 2.44918 8.08921 2.32262 8.13218L0.604105 8.71562C0.578324 8.7244 0.552074 8.72856 0.526292 8.72856Z" fill="#44D7B6"/>
<path d="M9.44062 5.78439C9.44062 6.32108 9.01784 6.75933 8.4873 6.78387V4.78491C9.01784 4.80944 9.44062 5.24738 9.44062 5.78439Z" fill="#44D7B6"/>
</svg>
