<svg width="89" height="30" viewBox="0 0 89 30" fill="none" xmlns="http://www.w3.org/2000/svg">
<path opacity="0.2" d="M88.5 3.5C88.5 0.7 86.5 0 85.5 0C87.1 1.6 86.1667 4 85.5 5H0L10.5 17.5L0 30H85.5C87.9 30 88.5 28.3333 88.5 27.5V3.5Z" fill="#4A90E2"/>
<path d="M24.4113 19.9023H20.2414L19.3048 22.5H17.9513L21.7521 12.5469H22.9005L26.7082 22.5H25.3615L24.4113 19.9023ZM20.6379 18.8223H24.0216L22.3263 14.167L20.6379 18.8223ZM30.6014 20.7568L33.4451 12.5469H34.8807L31.1893 22.5H30.0271L26.3426 12.5469H27.7713L30.6014 20.7568ZM41.7065 17.8994H37.393V21.4268H42.4037V22.5H36.0805V12.5469H42.3354V13.627H37.393V16.8262H41.7065V17.8994ZM47.5479 18.4736H45.21V22.5H43.8907V12.5469H47.1856C48.3067 12.5469 49.168 12.8021 49.7696 13.3125C50.3757 13.8229 50.6788 14.5658 50.6788 15.541C50.6788 16.1608 50.5102 16.7008 50.1729 17.1611C49.8402 17.6214 49.3754 17.9655 48.7784 18.1934L51.1163 22.418V22.5H49.7081L47.5479 18.4736ZM45.21 17.4004H47.2266C47.8783 17.4004 48.3956 17.2318 48.7784 16.8945C49.1658 16.5573 49.3595 16.1061 49.3595 15.541C49.3595 14.9258 49.1749 14.4541 48.8057 14.126C48.4412 13.7979 47.9125 13.6315 47.2198 13.627H45.21V17.4004ZM57.8806 19.9023H53.7107L52.7741 22.5H51.4206L55.2214 12.5469H56.3698L60.1775 22.5H58.8308L57.8806 19.9023ZM54.1071 18.8223H57.4909L55.7956 14.167L54.1071 18.8223ZM68.6439 21.1943C68.3067 21.6774 67.835 22.0397 67.2289 22.2812C66.6273 22.5182 65.9255 22.6367 65.1234 22.6367C64.3122 22.6367 63.5921 22.4476 62.9632 22.0693C62.3343 21.6865 61.8467 21.1442 61.5004 20.4424C61.1586 19.7406 60.9831 18.9271 60.974 18.002V17.1338C60.974 15.6344 61.3226 14.4723 62.0199 13.6475C62.7217 12.8226 63.7061 12.4102 64.973 12.4102C66.0121 12.4102 66.8483 12.6768 67.4818 13.21C68.1153 13.7386 68.5026 14.4906 68.6439 15.4658H67.3314C67.0853 14.1488 66.3015 13.4902 64.9798 13.4902C64.1003 13.4902 63.4326 13.8001 62.9769 14.4199C62.5257 15.0352 62.2979 15.9284 62.2933 17.0996V17.9131C62.2933 19.0296 62.5485 19.9183 63.0589 20.5791C63.5694 21.2354 64.2598 21.5635 65.1302 21.5635C65.6224 21.5635 66.0531 21.5088 66.4222 21.3994C66.7914 21.29 67.0967 21.1055 67.3382 20.8457V18.6104H65.0345V17.5439H68.6439V21.1943ZM76.3242 17.8994H72.0107V21.4268H77.0215V22.5H70.6982V12.5469H76.9531V13.627H72.0107V16.8262H76.3242V17.8994Z" fill="#4A90E2"/>
</svg>
