<svg width="91" height="32" viewBox="0 0 91 32" fill="none" xmlns="http://www.w3.org/2000/svg">
<path d="M90.5 4.5C90.5 1.7 88.5 1 87.5 1C89.1 2.6 88.1667 5 87.5 6H2L12.5 18.5L2 31H87.5C89.9 31 90.5 29.3333 90.5 28.5V4.5Z" fill="white" stroke="#9196A5"/>
<path d="M26.4113 20.9023H22.2414L21.3048 23.5H19.9513L23.7521 13.5469H24.9005L28.7082 23.5H27.3615L26.4113 20.9023ZM22.6379 19.8223H26.0216L24.3263 15.167L22.6379 19.8223ZM32.6014 21.7568L35.4451 13.5469H36.8807L33.1893 23.5H32.0271L28.3426 13.5469H29.7713L32.6014 21.7568ZM43.7065 18.8994H39.393V22.4268H44.4037V23.5H38.0805V13.5469H44.3354V14.627H39.393V17.8262H43.7065V18.8994ZM49.5479 19.4736H47.21V23.5H45.8907V13.5469H49.1856C50.3067 13.5469 51.168 13.8021 51.7696 14.3125C52.3757 14.8229 52.6788 15.5658 52.6788 16.541C52.6788 17.1608 52.5102 17.7008 52.1729 18.1611C51.8402 18.6214 51.3754 18.9655 50.7784 19.1934L53.1163 23.418V23.5H51.7081L49.5479 19.4736ZM47.21 18.4004H49.2266C49.8783 18.4004 50.3956 18.2318 50.7784 17.8945C51.1658 17.5573 51.3595 17.1061 51.3595 16.541C51.3595 15.9258 51.1749 15.4541 50.8057 15.126C50.4412 14.7979 49.9125 14.6315 49.2198 14.627H47.21V18.4004ZM59.8806 20.9023H55.7107L54.7741 23.5H53.4206L57.2214 13.5469H58.3698L62.1775 23.5H60.8308L59.8806 20.9023ZM56.1071 19.8223H59.4909L57.7956 15.167L56.1071 19.8223ZM70.6439 22.1943C70.3067 22.6774 69.835 23.0397 69.2289 23.2812C68.6273 23.5182 67.9255 23.6367 67.1234 23.6367C66.3122 23.6367 65.5921 23.4476 64.9632 23.0693C64.3343 22.6865 63.8467 22.1442 63.5004 21.4424C63.1586 20.7406 62.9831 19.9271 62.974 19.002V18.1338C62.974 16.6344 63.3226 15.4723 64.0199 14.6475C64.7217 13.8226 65.7061 13.4102 66.973 13.4102C68.0121 13.4102 68.8483 13.6768 69.4818 14.21C70.1153 14.7386 70.5026 15.4906 70.6439 16.4658H69.3314C69.0853 15.1488 68.3015 14.4902 66.9798 14.4902C66.1003 14.4902 65.4326 14.8001 64.9769 15.4199C64.5257 16.0352 64.2979 16.9284 64.2933 18.0996V18.9131C64.2933 20.0296 64.5485 20.9183 65.0589 21.5791C65.5694 22.2354 66.2598 22.5635 67.1302 22.5635C67.6224 22.5635 68.0531 22.5088 68.4222 22.3994C68.7914 22.29 69.0967 22.1055 69.3382 21.8457V19.6104H67.0345V18.5439H70.6439V22.1943ZM78.3242 18.8994H74.0107V22.4268H79.0215V23.5H72.6982V13.5469H78.9531V14.627H74.0107V17.8262H78.3242V18.8994Z" fill="#9196A5"/>
</svg>
