<svg width="102" height="30" viewBox="0 0 102 30" fill="none" xmlns="http://www.w3.org/2000/svg">
<path d="M102 3.5C102 0.7 100 0 99 0C100.6 1.6 99.6667 4 99 5H0.5L11 17.5L0.5 30H99C101.4 30 102 28.3333 102 27.5V3.5Z" fill="#465789"/>
<path d="M24.1161 17.8994H19.8026V21.4268H24.8134V22.5H18.4901V12.5469H24.745V13.627H19.8026V16.8262H24.1161V17.8994ZM29.5542 16.3613L31.94 12.5469H33.4849L30.3404 17.4824L33.5601 22.5H32.0015L29.5542 18.6172L27.0933 22.5H25.5415L28.7681 17.4824L25.6167 12.5469H27.1548L29.5542 16.3613ZM42.088 19.3418C41.965 20.3945 41.5754 21.208 40.9191 21.7822C40.2674 22.3519 39.3992 22.6367 38.3146 22.6367C37.1388 22.6367 36.1955 22.2152 35.4845 21.3721C34.7782 20.529 34.425 19.401 34.425 17.9883V17.0312C34.425 16.1061 34.589 15.2926 34.9172 14.5908C35.2498 13.889 35.7192 13.3512 36.3254 12.9775C36.9315 12.5993 37.6333 12.4102 38.4308 12.4102C39.4881 12.4102 40.3358 12.7064 40.9738 13.2988C41.6118 13.8867 41.9832 14.7025 42.088 15.7461H40.7687C40.6548 14.9531 40.4064 14.3789 40.0236 14.0234C39.6453 13.668 39.1144 13.4902 38.4308 13.4902C37.5923 13.4902 36.9338 13.8001 36.4552 14.4199C35.9813 15.0397 35.7443 15.9215 35.7443 17.0654V18.0293C35.7443 19.1094 35.9699 19.9684 36.4211 20.6064C36.8722 21.2445 37.5034 21.5635 38.3146 21.5635C39.0438 21.5635 39.602 21.3994 39.9894 21.0713C40.3813 20.7386 40.6411 20.1621 40.7687 19.3418H42.088ZM49.3719 17.8994H45.0584V21.4268H50.0691V22.5H43.7459V12.5469H50.0008V13.627H45.0584V16.8262H49.3719V17.8994ZM52.8823 21.4268H57.5991V22.5H51.5629V12.5469H52.8823V21.4268ZM60.2755 21.4268H64.9923V22.5H58.9561V12.5469H60.2755V21.4268ZM71.9753 17.8994H67.6618V21.4268H72.6726V22.5H66.3493V12.5469H72.6042V13.627H67.6618V16.8262H71.9753V17.8994ZM81.8158 22.5H80.4964L75.4857 14.8301V22.5H74.1664V12.5469H75.4857L80.5101 20.251V12.5469H81.8158V22.5ZM90.6787 13.627H87.4795V22.5H86.1738V13.627H82.9814V12.5469H90.6787V13.627Z" fill="white"/>
</svg>
