<svg width="67" height="30" viewBox="0 0 67 30" fill="none" xmlns="http://www.w3.org/2000/svg">
<path d="M66.5 3.5C66.5 0.7 64.5 0 63.5 0C65.1 1.6 64.1667 4 63.5 5H0L10.5 17.5L0 30H63.5C65.9 30 66.5 28.3333 66.5 27.5V3.5Z" fill="#9196A5"/>
<path d="M26.4434 21.1943C26.1062 21.6774 25.6345 22.0397 25.0284 22.2812C24.4268 22.5182 23.725 22.6367 22.9229 22.6367C22.1117 22.6367 21.3917 22.4476 20.7628 22.0693C20.1339 21.6865 19.6462 21.1442 19.2999 20.4424C18.9581 19.7406 18.7826 18.9271 18.7735 18.002V17.1338C18.7735 15.6344 19.1221 14.4723 19.8194 13.6475C20.5212 12.8226 21.5056 12.4102 22.7725 12.4102C23.8116 12.4102 24.6479 12.6768 25.2813 13.21C25.9148 13.7386 26.3022 14.4906 26.4434 15.4658H25.1309C24.8848 14.1488 24.101 13.4902 22.7794 13.4902C21.8998 13.4902 21.2322 13.8001 20.7764 14.4199C20.3253 15.0352 20.0974 15.9284 20.0928 17.0996V17.9131C20.0928 19.0296 20.3481 19.9183 20.8585 20.5791C21.3689 21.2354 22.0593 21.5635 22.9298 21.5635C23.422 21.5635 23.8526 21.5088 24.2218 21.3994C24.5909 21.29 24.8962 21.1055 25.1378 20.8457V18.6104H22.8341V17.5439H26.4434V21.1943ZM36.154 17.8447C36.154 18.82 35.99 19.6722 35.6618 20.4014C35.3337 21.126 34.8689 21.6797 34.2673 22.0625C33.6657 22.4453 32.9639 22.6367 32.1618 22.6367C31.378 22.6367 30.683 22.4453 30.0769 22.0625C29.4708 21.6751 28.9991 21.126 28.6618 20.415C28.3292 19.6995 28.1583 18.8724 28.1491 17.9336V17.2158C28.1491 16.2588 28.3155 15.4134 28.6482 14.6797C28.9808 13.946 29.4502 13.3854 30.0564 12.998C30.667 12.6061 31.3643 12.4102 32.1482 12.4102C32.9457 12.4102 33.6475 12.6038 34.2536 12.9912C34.8643 13.374 35.3337 13.9323 35.6618 14.666C35.99 15.3952 36.154 16.2451 36.154 17.2158V17.8447ZM34.8484 17.2021C34.8484 16.0218 34.6114 15.1172 34.1374 14.4883C33.6635 13.8548 33.0004 13.5381 32.1482 13.5381C31.3187 13.5381 30.6648 13.8548 30.1862 14.4883C29.7123 15.1172 29.4685 15.9922 29.4548 17.1133V17.8447C29.4548 18.9886 29.6941 19.8887 30.1726 20.5449C30.6556 21.1966 31.3187 21.5225 32.1618 21.5225C33.0095 21.5225 33.6657 21.2148 34.1306 20.5996C34.5954 19.9798 34.8347 19.0934 34.8484 17.9404V17.2021ZM45.639 17.8447C45.639 18.82 45.475 19.6722 45.1468 20.4014C44.8187 21.126 44.3539 21.6797 43.7523 22.0625C43.1507 22.4453 42.4489 22.6367 41.6468 22.6367C40.863 22.6367 40.168 22.4453 39.5619 22.0625C38.9558 21.6751 38.4841 21.126 38.1468 20.415C37.8142 19.6995 37.6433 18.8724 37.6341 17.9336V17.2158C37.6341 16.2588 37.8005 15.4134 38.1332 14.6797C38.4658 13.946 38.9352 13.3854 39.5414 12.998C40.152 12.6061 40.8493 12.4102 41.6332 12.4102C42.4307 12.4102 43.1325 12.6038 43.7386 12.9912C44.3493 13.374 44.8187 13.9323 45.1468 14.666C45.475 15.3952 45.639 16.2451 45.639 17.2158V17.8447ZM44.3334 17.2021C44.3334 16.0218 44.0964 15.1172 43.6224 14.4883C43.1485 13.8548 42.4854 13.5381 41.6332 13.5381C40.8037 13.5381 40.1498 13.8548 39.6712 14.4883C39.1973 15.1172 38.9535 15.9922 38.9398 17.1133V17.8447C38.9398 18.9886 39.1791 19.8887 39.6576 20.5449C40.1406 21.1966 40.8037 21.5225 41.6468 21.5225C42.4945 21.5225 43.1507 21.2148 43.6156 20.5996C44.0804 19.9798 44.3197 19.0934 44.3334 17.9404V17.2021ZM47.4678 22.5V12.5469H50.2773C51.1432 12.5469 51.9089 12.7383 52.5742 13.1211C53.2396 13.5039 53.7523 14.0485 54.1123 14.7549C54.4769 15.4613 54.6615 16.2725 54.666 17.1885V17.8242C54.666 18.763 54.4837 19.5856 54.1191 20.292C53.7591 20.9984 53.2419 21.5407 52.5674 21.9189C51.8975 22.2972 51.1159 22.4909 50.2227 22.5H47.4678ZM48.7803 13.627V21.4268H50.1611C51.1728 21.4268 51.959 21.1123 52.5195 20.4834C53.0846 19.8545 53.3672 18.959 53.3672 17.7969V17.2158C53.3672 16.0856 53.1006 15.2083 52.5674 14.584C52.0387 13.9551 51.2868 13.6361 50.3115 13.627H48.7803Z" fill="white"/>
</svg>
