<svg width="60" height="30" viewBox="0 0 60 30" fill="none" xmlns="http://www.w3.org/2000/svg">
<path d="M60 3.5C60 0.7 58 0 57 0C58.6 1.6 57.6667 4 57 5H0.5L11 17.5L0.5 30H57C59.4 30 60 28.3333 60 27.5V3.5Z" fill="#FF5670"/>
<path d="M27.7195 22.5H26.4001L21.3894 14.8301V22.5H20.07V12.5469H21.3894L26.4138 20.251V12.5469H27.7195V22.5ZM35.5365 17.8994H31.223V21.4268H36.2338V22.5H29.9105V12.5469H36.1654V13.627H31.223V16.8262H35.5365V17.8994ZM39.874 19.3623L40.0654 20.6748L40.3457 19.4922L42.3145 12.5469H43.4219L45.3428 19.4922L45.6162 20.6953L45.8281 19.3555L47.373 12.5469H48.6924L46.2793 22.5H45.083L43.0322 15.2471L42.875 14.4883L42.7178 15.2471L40.5918 22.5H39.3955L36.9893 12.5469H38.3018L39.874 19.3623Z" fill="white"/>
</svg>
