<svg width="15" height="14" viewBox="0 0 15 14" fill="none" xmlns="http://www.w3.org/2000/svg">
<path d="M8.36608 6.99058L13.7174 1.6393C13.8681 1.48856 14.0188 1.18708 14.0188 0.960969C14.0188 0.734859 13.9435 0.433378 13.7174 0.282638C13.3405 -0.0942127 12.7376 -0.0942127 12.3607 0.282638L7.00942 5.63392L1.65814 0.282638C1.28129 -0.0942127 0.678331 -0.0942127 0.301481 0.282638C0.15074 0.433378 0 0.734859 0 0.960969C0 1.18708 0.0753701 1.48856 0.301481 1.6393L5.65276 6.99058L0.301481 12.3419C0.15074 12.4926 0 12.7941 0 13.0202C0 13.2463 0.0753701 13.5478 0.301481 13.6985C0.678331 14.0754 1.28129 14.0754 1.65814 13.6985L7.00942 8.34724L12.3607 13.6985C12.5114 13.8493 12.8129 14 13.039 14C13.2651 14 13.5666 13.9246 13.7174 13.6985C14.0942 13.3217 14.0942 12.7187 13.7174 12.3419L8.36608 6.99058Z" fill="#232D4C"/>
</svg>
