<svg width="291" height="134" viewBox="0 0 291 134" fill="none" xmlns="http://www.w3.org/2000/svg">
<path d="M0.498047 85.0996C0.600586 86.9819 2.18994 88.1758 4.57764 88.1758C7.03857 88.1758 8.60596 86.9233 8.60596 84.9312C8.60596 83.3931 7.69775 82.5068 5.48584 82.0381L4.32861 81.7964C2.95898 81.5034 2.41699 80.9907 2.41699 80.2217C2.41699 79.2549 3.3252 78.6543 4.56299 78.6543C5.84473 78.6543 6.71631 79.3062 6.81885 80.3682H8.4082C8.35693 78.5225 6.82617 77.2554 4.58496 77.2554C2.33643 77.2554 0.74707 78.5005 0.74707 80.3096C0.74707 81.833 1.70654 82.8145 3.82324 83.2612L4.97314 83.5029C6.38672 83.8105 6.94336 84.3232 6.94336 85.1436C6.94336 86.0884 5.98389 86.7769 4.64355 86.7769C3.2373 86.7769 2.24121 86.147 2.09473 85.0996H0.498047ZM10.3564 78.4712V80.2949H9.23584V81.5474H10.3564V85.9712C10.3564 87.458 10.9644 88.0513 12.5244 88.0513C12.876 88.0513 13.2275 88.022 13.4033 87.978V86.7256C13.3008 86.7476 13.0444 86.7622 12.8833 86.7622C12.2388 86.7622 11.9458 86.4619 11.9458 85.7954V81.5474H13.4106V80.2949H11.9458V78.4712H10.3564ZM21.3208 80.2949H19.7388V84.7847C19.7388 85.9858 19.0503 86.7769 17.9077 86.7769C16.8164 86.7769 16.2598 86.147 16.2598 84.9751V80.2949H14.6777V85.2827C14.6777 87.0479 15.7031 88.1392 17.3804 88.1392C18.5596 88.1392 19.3433 87.6191 19.7681 86.6963H19.8047V88H21.3208V80.2949ZM25.7812 88.1318C26.9019 88.1318 27.7808 87.5679 28.2349 86.689H28.2642V88H29.8022V77.4312H28.2129V81.5767H28.1836C27.7515 80.7271 26.8726 80.1704 25.7666 80.1704C23.833 80.1704 22.5439 81.7158 22.5439 84.1475C22.5439 86.5791 23.833 88.1318 25.7812 88.1318ZM26.1987 81.5034C27.4146 81.5034 28.2275 82.5508 28.2275 84.1475C28.2275 85.7588 27.4146 86.7915 26.1987 86.7915C24.9463 86.7915 24.1626 85.7734 24.1626 84.1475C24.1626 82.5288 24.9463 81.5034 26.1987 81.5034ZM36.5332 85.7368C36.3208 86.4106 35.6543 86.8647 34.7534 86.8647C33.4863 86.8647 32.6807 85.9785 32.6807 84.6382V84.543H38.1226V84.001C38.1226 81.6646 36.7896 80.1558 34.6509 80.1558C32.4756 80.1558 31.084 81.7671 31.084 84.1841C31.084 86.6157 32.4536 88.1465 34.7168 88.1465C36.4819 88.1465 37.8149 87.1431 38.0347 85.7368H36.5332ZM34.6509 81.4302C35.7568 81.4302 36.5039 82.2578 36.5405 83.437H32.688C32.7686 82.2725 33.5449 81.4302 34.6509 81.4302ZM39.353 88H40.9351V83.5103C40.9351 82.3164 41.6528 81.5254 42.7661 81.5254C43.8647 81.5254 44.4067 82.1626 44.4067 83.3198V88H45.9961V83.0122C45.9961 81.2471 45.022 80.1631 43.3228 80.1631C42.1362 80.1631 41.3159 80.7051 40.8984 81.584H40.8618V80.2949H39.353V88ZM47.9883 78.4712V80.2949H46.8677V81.5474H47.9883V85.9712C47.9883 87.458 48.5962 88.0513 50.1562 88.0513C50.5078 88.0513 50.8594 88.022 51.0352 87.978V86.7256C50.9326 86.7476 50.6763 86.7622 50.5151 86.7622C49.8706 86.7622 49.5776 86.4619 49.5776 85.7954V81.5474H51.0425V80.2949H49.5776V78.4712H47.9883ZM52.207 82.4775C52.207 83.5981 52.9321 84.3013 54.397 84.6382L55.6494 84.9312C56.4917 85.1216 56.7773 85.4146 56.7773 85.9126C56.7773 86.5425 56.1914 86.938 55.2393 86.938C54.2725 86.938 53.7231 86.5425 53.5767 85.7368H52.0093C52.1558 87.2017 53.313 88.1465 55.2393 88.1465C57.0557 88.1465 58.3667 87.1797 58.3667 85.7734C58.3667 84.6602 57.7661 84.0449 56.1914 83.6787L54.939 83.3931C54.104 83.2026 53.7524 82.873 53.7524 82.3896C53.7524 81.7744 54.3237 81.3569 55.1807 81.3569C56.0669 81.3569 56.6162 81.8257 56.7041 82.5728H58.1909C58.1396 81.1519 56.9751 80.1558 55.1807 80.1558C53.4082 80.1558 52.207 81.1006 52.207 82.4775ZM69.7192 88H71.4551L67.6392 77.4312H65.8667L62.0508 88H63.7573L64.7241 85.1436H68.7524L69.7192 88ZM66.7163 79.189H66.7603L68.335 83.8252H65.1416L66.7163 79.189ZM76.4429 80.1704C75.3296 80.1704 74.4434 80.7344 73.9893 81.6206H73.96V80.2949H72.4292V90.5488H74.0112V86.7329H74.0479C74.4873 87.5898 75.3662 88.1318 76.4722 88.1318C78.4058 88.1318 79.6875 86.5864 79.6875 84.1475C79.6875 81.7085 78.3984 80.1704 76.4429 80.1704ZM76.0254 86.7915C74.8096 86.7915 74.0039 85.7515 74.0039 84.1475C74.0039 82.5581 74.8169 81.5034 76.0254 81.5034C77.2778 81.5034 78.0615 82.5361 78.0615 84.1475C78.0615 85.7661 77.2778 86.7915 76.0254 86.7915ZM84.9243 80.1704C83.811 80.1704 82.9248 80.7344 82.4707 81.6206H82.4414V80.2949H80.9106V90.5488H82.4927V86.7329H82.5293C82.9688 87.5898 83.8477 88.1318 84.9536 88.1318C86.8872 88.1318 88.1689 86.5864 88.1689 84.1475C88.1689 81.7085 86.8799 80.1704 84.9243 80.1704ZM84.5068 86.7915C83.291 86.7915 82.4854 85.7515 82.4854 84.1475C82.4854 82.5581 83.2983 81.5034 84.5068 81.5034C85.7593 81.5034 86.543 82.5361 86.543 84.1475C86.543 85.7661 85.7593 86.7915 84.5068 86.7915ZM89.4507 88H91.0327V77.4312H89.4507V88ZM93.501 79.0498C94.0063 79.0498 94.4092 78.6396 94.4092 78.1416C94.4092 77.6362 94.0063 77.2334 93.501 77.2334C92.9956 77.2334 92.5854 77.6362 92.5854 78.1416C92.5854 78.6396 92.9956 79.0498 93.501 79.0498ZM92.71 88H94.292V80.2949H92.71V88ZM101.016 85.7368C100.803 86.4106 100.137 86.8647 99.2358 86.8647C97.9688 86.8647 97.1631 85.9785 97.1631 84.6382V84.543H102.605V84.001C102.605 81.6646 101.272 80.1558 99.1333 80.1558C96.958 80.1558 95.5664 81.7671 95.5664 84.1841C95.5664 86.6157 96.936 88.1465 99.1992 88.1465C100.964 88.1465 102.297 87.1431 102.517 85.7368H101.016ZM99.1333 81.4302C100.239 81.4302 100.986 82.2578 101.023 83.437H97.1704C97.251 82.2725 98.0273 81.4302 99.1333 81.4302ZM106.729 88.1318C107.849 88.1318 108.728 87.5679 109.182 86.689H109.211V88H110.75V77.4312H109.16V81.5767H109.131C108.699 80.7271 107.82 80.1704 106.714 80.1704C104.78 80.1704 103.491 81.7158 103.491 84.1475C103.491 86.5791 104.78 88.1318 106.729 88.1318ZM107.146 81.5034C108.362 81.5034 109.175 82.5508 109.175 84.1475C109.175 85.7588 108.362 86.7915 107.146 86.7915C105.894 86.7915 105.11 85.7734 105.11 84.1475C105.11 82.5288 105.894 81.5034 107.146 81.5034Z" fill="#232D4C"/>
<path d="M17.9727 134H24.1387V128.307H28.2207V123.129H24.1387V102.998H14.9863C8.62695 112.344 5.25391 117.758 2.54688 122.893V128.307H17.9727V134ZM8.19727 123.129C10.668 118.51 13.4824 114.105 17.9727 107.639H18.1016V123.301H8.19727V123.129ZM31.3145 112.43H37.3301C37.3301 109.443 39.6719 107.359 42.7656 107.359C45.5586 107.359 47.4707 109.25 47.4707 111.742C47.4707 113.891 46.5898 115.373 42.6582 119.154L31.6797 129.553V134H54.2168V128.844H40.166V128.715L46.6758 122.484C51.918 117.479 53.7871 115.137 53.7871 111.334C53.7871 106.178 49.4043 102.311 42.7656 102.311C36.041 102.311 31.3145 106.457 31.3145 112.43Z" fill="#4A90E2"/>
<path d="M14.5605 21H18.9492L12.0859 1.27148H7.23242L0.382812 21H4.62109L6.125 16.2148H13.0566L14.5605 21ZM9.54297 5.04492H9.63867L12.168 13.125H7.01367L9.54297 5.04492ZM20.6309 21H24.623V12.5918C24.623 10.6914 25.7578 9.37891 27.5488 9.37891C29.3398 9.37891 30.2422 10.4727 30.2422 12.3867V21H34.2344V11.5527C34.2344 8.12109 32.4023 6.07031 29.1484 6.07031C26.8926 6.07031 25.3477 7.13672 24.5684 8.95508H24.4863V6.34375H20.6309V21ZM42.2051 21.2324C44.3652 21.2324 46.0605 20.0977 46.7715 18.4844H46.8398V21H50.7773V1.27148H46.7852V8.85938H46.7031C45.9922 7.23242 44.3516 6.11133 42.2324 6.11133C38.5547 6.11133 36.2305 8.99609 36.2305 13.6445C36.2305 18.334 38.541 21.2324 42.2051 21.2324ZM43.5586 9.31055C45.541 9.31055 46.8125 11.0059 46.8125 13.6719C46.8125 16.3516 45.541 18.0195 43.5586 18.0195C41.5488 18.0195 40.3184 16.3652 40.3184 13.6719C40.3184 10.9922 41.5488 9.31055 43.5586 9.31055ZM53.4434 21H57.4355V12.8105C57.4355 10.7461 58.584 9.54297 60.5527 9.54297C61.127 9.54297 61.6738 9.63867 62.002 9.77539V6.26172C61.7285 6.17969 61.332 6.11133 60.8672 6.11133C59.1445 6.11133 57.9004 7.12305 57.3809 8.98242H57.2988V6.34375H53.4434V21ZM69.877 21.3145C74.3066 21.3145 77.1367 18.4844 77.1367 13.6582C77.1367 8.90039 74.2656 6.0293 69.877 6.0293C65.4883 6.0293 62.6172 8.91406 62.6172 13.6582C62.6172 18.4707 65.4473 21.3145 69.877 21.3145ZM69.877 18.2656C67.9082 18.2656 66.6641 16.6113 66.6641 13.6719C66.6641 10.7598 67.9355 9.07812 69.877 9.07812C71.8184 9.07812 73.0762 10.7598 73.0762 13.6719C73.0762 16.6113 71.832 18.2656 69.877 18.2656ZM81.252 4.36133C82.4141 4.36133 83.3301 3.43164 83.3301 2.31055C83.3301 1.17578 82.4141 0.259766 81.252 0.259766C80.0898 0.259766 79.1738 1.17578 79.1738 2.31055C79.1738 3.43164 80.0898 4.36133 81.252 4.36133ZM79.2695 21H83.2617V6.34375H79.2695V21ZM91.3691 21.2324C93.5293 21.2324 95.2246 20.0977 95.9355 18.4844H96.0039V21H99.9414V1.27148H95.9492V8.85938H95.8672C95.1562 7.23242 93.5156 6.11133 91.3965 6.11133C87.7188 6.11133 85.3945 8.99609 85.3945 13.6445C85.3945 18.334 87.7051 21.2324 91.3691 21.2324ZM92.7227 9.31055C94.7051 9.31055 95.9766 11.0059 95.9766 13.6719C95.9766 16.3516 94.7051 18.0195 92.7227 18.0195C90.7129 18.0195 89.4824 16.3652 89.4824 13.6719C89.4824 10.9922 90.7129 9.31055 92.7227 9.31055ZM108.5 1.27148V21H116.033C121.953 21 125.439 17.3223 125.439 11.0605C125.439 4.79883 121.953 1.27148 116.033 1.27148H108.5ZM112.629 4.67578H115.541C119.178 4.67578 121.229 6.94531 121.229 11.0742C121.229 15.3398 119.232 17.582 115.541 17.582H112.629V4.67578ZM137.471 16.5156C137.102 17.6367 135.98 18.3613 134.518 18.3613C132.48 18.3613 131.154 16.9258 131.154 14.834V14.5879H141.258V13.3711C141.258 8.91406 138.564 6.0293 134.299 6.0293C129.965 6.0293 127.23 9.06445 127.23 13.7402C127.23 18.4297 129.938 21.3145 134.449 21.3145C138.072 21.3145 140.697 19.3867 141.135 16.5156H137.471ZM134.34 8.98242C136.117 8.98242 137.334 10.2676 137.416 12.1406H131.195C131.332 10.3086 132.59 8.98242 134.34 8.98242ZM156.502 6.34375H152.332L149.297 17.4727H149.215L146.166 6.34375H141.887L146.959 21H151.471L156.502 6.34375ZM167.193 16.5156C166.824 17.6367 165.703 18.3613 164.24 18.3613C162.203 18.3613 160.877 16.9258 160.877 14.834V14.5879H170.98V13.3711C170.98 8.91406 168.287 6.0293 164.021 6.0293C159.688 6.0293 156.953 9.06445 156.953 13.7402C156.953 18.4297 159.66 21.3145 164.172 21.3145C167.795 21.3145 170.42 19.3867 170.857 16.5156H167.193ZM164.062 8.98242C165.84 8.98242 167.057 10.2676 167.139 12.1406H160.918C161.055 10.3086 162.312 8.98242 164.062 8.98242ZM173.141 21H177.133V1.27148H173.141V21ZM186.553 21.3145C190.982 21.3145 193.812 18.4844 193.812 13.6582C193.812 8.90039 190.941 6.0293 186.553 6.0293C182.164 6.0293 179.293 8.91406 179.293 13.6582C179.293 18.4707 182.123 21.3145 186.553 21.3145ZM186.553 18.2656C184.584 18.2656 183.34 16.6113 183.34 13.6719C183.34 10.7598 184.611 9.07812 186.553 9.07812C188.494 9.07812 189.752 10.7598 189.752 13.6719C189.752 16.6113 188.508 18.2656 186.553 18.2656ZM204.436 6.11133C202.316 6.11133 200.689 7.17773 199.896 8.90039H199.814V6.34375H195.877V25.7852H199.869V18.5391H199.951C200.73 20.1934 202.371 21.2324 204.504 21.2324C208.168 21.2324 210.438 18.3887 210.438 13.6719C210.438 8.94141 208.154 6.11133 204.436 6.11133ZM203.096 18.0195C201.141 18.0195 199.855 16.3242 199.855 13.6719C199.855 11.0469 201.141 9.31055 203.096 9.31055C205.092 9.31055 206.35 11.0195 206.35 13.6719C206.35 16.3379 205.092 18.0195 203.096 18.0195ZM222.209 16.5156C221.84 17.6367 220.719 18.3613 219.256 18.3613C217.219 18.3613 215.893 16.9258 215.893 14.834V14.5879H225.996V13.3711C225.996 8.91406 223.303 6.0293 219.037 6.0293C214.703 6.0293 211.969 9.06445 211.969 13.7402C211.969 18.4297 214.676 21.3145 219.188 21.3145C222.811 21.3145 225.436 19.3867 225.873 16.5156H222.209ZM219.078 8.98242C220.855 8.98242 222.072 10.2676 222.154 12.1406H215.934C216.07 10.3086 217.328 8.98242 219.078 8.98242ZM228.061 21H232.053V12.8105C232.053 10.7461 233.201 9.54297 235.17 9.54297C235.744 9.54297 236.291 9.63867 236.619 9.77539V6.26172C236.346 6.17969 235.949 6.11133 235.484 6.11133C233.762 6.11133 232.518 7.12305 231.998 8.98242H231.916V6.34375H228.061V21Z" fill="#232D4C"/>
<path d="M3.44043 45V40.8711H7.67871V39.5791H3.44043V36.4551H8.06836V35.1357H1.90918V45H3.44043ZM15.3896 37.8086H13.9131V41.999C13.9131 43.1201 13.2705 43.8584 12.2041 43.8584C11.1855 43.8584 10.666 43.2705 10.666 42.1768V37.8086H9.18945V42.4639C9.18945 44.1113 10.1465 45.1299 11.7119 45.1299C12.8125 45.1299 13.5439 44.6445 13.9404 43.7832H13.9746V45H15.3896V37.8086ZM16.9072 45H18.3838V35.1357H16.9072V45ZM19.9561 45H21.4326V35.1357H19.9561V45ZM29.9502 45V36.4551H32.9648V35.1357H25.3975V36.4551H28.4189V45H29.9502ZM34.4961 36.6465C34.9678 36.6465 35.3438 36.2637 35.3438 35.7988C35.3438 35.3271 34.9678 34.9512 34.4961 34.9512C34.0244 34.9512 33.6416 35.3271 33.6416 35.7988C33.6416 36.2637 34.0244 36.6465 34.4961 36.6465ZM33.7578 45H35.2344V37.8086H33.7578V45ZM36.7451 45H38.2217V40.5566C38.2217 39.6338 38.8438 38.9502 39.7188 38.9502C40.5527 38.9502 41.0791 39.4766 41.0791 40.3037V45H42.5283V40.5088C42.5283 39.5996 43.1367 38.9502 44.0117 38.9502C44.8867 38.9502 45.3857 39.4834 45.3857 40.4131V45H46.8691V40.0576C46.8691 38.6289 45.9395 37.6855 44.5176 37.6855C43.4922 37.6855 42.6445 38.2188 42.2754 39.0938H42.2412C41.9541 38.1982 41.2295 37.6855 40.2314 37.6855C39.2607 37.6855 38.5088 38.2188 38.1875 39.0186H38.1533V37.8086H36.7451V45ZM53.0625 42.8877C52.8643 43.5166 52.2422 43.9404 51.4014 43.9404C50.2188 43.9404 49.4668 43.1133 49.4668 41.8623V41.7734H54.5459V41.2676C54.5459 39.0869 53.3018 37.6787 51.3057 37.6787C49.2754 37.6787 47.9766 39.1826 47.9766 41.4385C47.9766 43.708 49.2549 45.1367 51.3672 45.1367C53.0146 45.1367 54.2588 44.2002 54.4639 42.8877H53.0625ZM51.3057 38.8682C52.3379 38.8682 53.0352 39.6406 53.0693 40.7412H49.4736C49.5488 39.6543 50.2734 38.8682 51.3057 38.8682ZM63.7129 47.1055V35.1357H62.4004V47.1055H63.7129ZM71.834 38.041H73.2832C73.2832 36.9883 74.1377 36.2158 75.2656 36.2158C76.3115 36.2158 76.9951 36.9268 76.9951 37.8359C76.9951 38.6084 76.6943 39.1143 75.3955 40.4404L71.916 43.9473V45H78.6631V43.708H73.9668V43.6738L76.209 41.4248C77.9727 39.6611 78.5059 38.875 78.5059 37.7402C78.5059 36.1885 77.2002 34.9512 75.2656 34.9512C73.2832 34.9512 71.834 36.25 71.834 38.041ZM81.0967 45.0752C81.5957 45.0752 81.9922 44.6787 81.9922 44.1797C81.9922 43.6807 81.5957 43.2842 81.0967 43.2842C80.5977 43.2842 80.2012 43.6807 80.2012 44.1797C80.2012 44.6787 80.5977 45.0752 81.0967 45.0752ZM85.7588 40.5088H86.9551C88.2744 40.5088 89.0879 41.1377 89.0811 42.2656C89.0742 43.2227 88.2676 43.9062 87.0645 43.9062C85.8271 43.9062 84.9863 43.2842 84.9111 42.3203H83.4414C83.5371 44.0156 84.9521 45.1846 87.0645 45.1846C89.1221 45.1846 90.6396 44.002 90.6396 42.2656C90.6396 40.8848 89.6689 40.0029 88.2197 39.873V39.8389C89.4297 39.5859 90.2979 38.7588 90.2979 37.5215C90.2979 36.0518 89.0605 34.9512 87.0508 34.9512C85.123 34.9512 83.7764 36.0518 83.6533 37.7744H85.0889C85.1641 36.79 85.957 36.209 87.0508 36.209C88.2129 36.209 88.8076 36.8105 88.8076 37.7334C88.8076 38.6562 88.042 39.3193 86.9141 39.3193H85.7588V40.5088ZM101.208 43.6738H96.6143V35.1357H95.083V45H101.208V43.6738ZM102.521 35.1357V45H104.052V41.6299H106.171C108.105 41.6299 109.466 40.3037 109.466 38.376C109.466 36.4551 108.133 35.1357 106.219 35.1357H102.521ZM104.052 36.4277H105.815C107.142 36.4277 107.9 37.1387 107.9 38.3828C107.9 39.627 107.142 40.3447 105.809 40.3447H104.052V36.4277ZM116.411 45H118.031L114.47 35.1357H112.815L109.254 45H110.847L111.749 42.334H115.509L116.411 45ZM113.608 36.7764H113.649L115.119 41.1035H112.139L113.608 36.7764ZM126.959 47.1055V35.1357H125.646V47.1055H126.959ZM137.657 45H139.154V35.1357H137.644L135.046 36.9814V38.4307L137.623 36.6533H137.657V45ZM141.479 38.041H142.928C142.928 36.9883 143.782 36.2158 144.91 36.2158C145.956 36.2158 146.64 36.9268 146.64 37.8359C146.64 38.6084 146.339 39.1143 145.04 40.4404L141.561 43.9473V45H148.308V43.708H143.611V43.6738L145.854 41.4248C147.617 39.6611 148.15 38.875 148.15 37.7402C148.15 36.1885 146.845 34.9512 144.91 34.9512C142.928 34.9512 141.479 36.25 141.479 38.041ZM152.006 42.4707C152.006 44.1113 153.216 45.2188 154.993 45.2188C156.914 45.2188 158.062 44.084 158.062 42.1289V35.1357H156.531V42.1221C156.531 43.25 155.984 43.8516 154.979 43.8516C154.125 43.8516 153.53 43.291 153.51 42.4707H152.006ZM161.829 45.123C162.772 45.123 163.682 44.6172 164.099 43.8174H164.133V45H165.548V40.0439C165.548 38.6016 164.434 37.6787 162.69 37.6787C160.913 37.6787 159.806 38.6357 159.724 39.9346H161.118C161.248 39.292 161.781 38.8818 162.636 38.8818C163.538 38.8818 164.078 39.3604 164.078 40.1602V40.7139L162.109 40.8301C160.4 40.9258 159.437 41.6982 159.437 42.9561C159.437 44.248 160.421 45.123 161.829 45.123ZM162.239 43.9541C161.446 43.9541 160.927 43.5439 160.927 42.915C160.927 42.2998 161.426 41.9102 162.308 41.8486L164.078 41.7393V42.3066C164.078 43.2432 163.271 43.9541 162.239 43.9541ZM166.983 45H168.46V40.8096C168.46 39.6953 169.13 38.957 170.169 38.957C171.194 38.957 171.7 39.5518 171.7 40.6318V45H173.184V40.3447C173.184 38.6973 172.274 37.6855 170.688 37.6855C169.581 37.6855 168.815 38.1914 168.426 39.0117H168.392V37.8086H166.983V45ZM175.351 38.7451L176.301 35.1357H174.811L174.182 38.7451H175.351ZM177.832 38.041H179.281C179.281 36.9883 180.136 36.2158 181.264 36.2158C182.31 36.2158 182.993 36.9268 182.993 37.8359C182.993 38.6084 182.692 39.1143 181.394 40.4404L177.914 43.9473V45H184.661V43.708H179.965V43.6738L182.207 41.4248C183.971 39.6611 184.504 38.875 184.504 37.7402C184.504 36.1885 183.198 34.9512 181.264 34.9512C179.281 34.9512 177.832 36.25 177.832 38.041ZM189.617 45.1846C191.989 45.1846 193.384 43.1953 193.384 40.0508C193.384 36.9268 191.976 34.9512 189.617 34.9512C187.259 34.9512 185.837 36.9336 185.837 40.0576C185.837 43.2021 187.238 45.1846 189.617 45.1846ZM189.617 43.8994C188.188 43.8994 187.389 42.4434 187.389 40.0576C187.389 37.7061 188.209 36.2363 189.617 36.2363C191.025 36.2363 191.839 37.6992 191.839 40.0576C191.839 42.4502 191.039 43.8994 189.617 43.8994Z" fill="#232D4C"/>
<path d="M288.621 121.169L282.21 115.345C281.705 114.885 280.885 114.885 280.379 115.345C279.874 115.804 279.874 116.549 280.379 117.008L285.873 122L280.379 126.992C279.874 127.451 279.874 128.196 280.379 128.655C280.885 129.115 281.705 129.115 282.21 128.655L288.621 122.831C289.126 122.373 289.126 121.628 288.621 121.169Z" fill="#4A90E2"/>
<circle cx="283.5" cy="13.5" r="7.5" fill="#FCFCFC"/>
<path d="M283.5 6C279.364 6 276 9.36433 276 13.5C276 17.6357 279.364 21 283.5 21C287.636 21 291 17.6357 291 13.5C291 9.36433 287.636 6 283.5 6ZM283.5 9.12504C283.845 9.12504 284.125 9.40496 284.125 9.75C284.125 10.095 283.845 10.375 283.5 10.375C283.155 10.375 282.875 10.095 282.875 9.75C282.875 9.40496 283.155 9.12504 283.5 9.12504ZM284.906 17.875H282.094C281.748 17.875 281.469 17.595 281.469 17.25C281.469 16.905 281.748 16.625 282.094 16.625H282.875V12.875H282.406C282.061 12.875 281.781 12.595 281.781 12.25C281.781 11.905 282.061 11.625 282.406 11.625H283.5C283.846 11.625 284.125 11.905 284.125 12.25V16.625H284.906C285.252 16.625 285.531 16.905 285.531 17.25C285.531 17.595 285.252 17.875 284.906 17.875Z" fill="#4A90E2"/>
</svg>
