<svg width="8" height="12" viewBox="0 0 8 12" fill="none" xmlns="http://www.w3.org/2000/svg">
<path d="M4 0C1.79442 0 0 1.87119 0 4.17114C0 7.06194 4.00393 12 4.00393 12C4.00393 12 8 6.91978 8 4.17114C8 1.87119 6.20565 0 4 0ZM5.20688 5.39246C4.8741 5.7394 4.43709 5.91292 4 5.91292C3.56299 5.91292 3.12583 5.7394 2.79319 5.39246C2.12769 4.69856 2.12769 3.56946 2.79319 2.87549C3.11543 2.53931 3.54409 2.35415 4 2.35415C4.45591 2.35415 4.8845 2.53938 5.20688 2.87549C5.87238 3.56946 5.87238 4.69856 5.20688 5.39246Z" fill="#9196A5"/>
</svg>
