<svg width="12" height="12" viewBox="0 0 12 12" fill="none" xmlns="http://www.w3.org/2000/svg">
<path d="M10.2417 1.75782C7.89749 -0.586405 4.10287 -0.586779 1.75832 1.75782C-0.585931 4.10205 -0.586282 7.89662 1.75832 10.2412C4.1025 12.5854 7.89712 12.5858 10.2417 10.2412C12.5859 7.89697 12.5863 4.1024 10.2417 1.75782ZM9.99096 9.3861C9.71069 9.13548 9.41088 8.91368 9.09488 8.72254C9.30375 8.00105 9.42749 7.20709 9.45674 6.38178H11.2204C11.1406 7.49423 10.7132 8.53777 9.99096 9.3861ZM0.779618 6.38178H2.54323C2.57248 7.20709 2.69623 8.00105 2.90509 8.72254C2.58909 8.91368 2.28928 9.13548 2.00901 9.3861C1.28679 8.53777 0.859381 7.49423 0.779618 6.38178ZM2.00904 2.61292C2.28931 2.86354 2.58911 3.08534 2.90512 3.27648C2.69625 3.99798 2.57251 4.79193 2.54326 5.61724H0.779618C0.859381 4.50482 1.28679 3.46128 2.00904 2.61292ZM5.61774 3.35549C4.9943 3.31091 4.39317 3.15735 3.83588 2.90404C4.15999 2.06943 4.75749 1.06841 5.61774 0.820338V3.35549ZM5.61774 4.12146V5.61727H3.3081C3.33456 4.91912 3.43348 4.24872 3.598 3.63532C4.2313 3.91217 4.9124 4.07751 5.61774 4.12146ZM5.61774 6.38178V7.87758C4.9124 7.92154 4.2313 8.08687 3.598 8.36373C3.43348 7.75033 3.33456 7.07993 3.3081 6.38178H5.61774ZM5.61774 8.64355V11.1787C4.75753 10.9306 4.16004 9.92971 3.83588 9.09501C4.39317 8.84169 4.9943 8.68814 5.61774 8.64355ZM6.38226 8.64355C7.0057 8.68814 7.60683 8.84169 8.16411 9.09501C7.83998 9.92964 7.24251 10.9306 6.38226 11.1787V8.64355ZM6.38226 7.87758V6.38178H8.69189C8.66543 7.07993 8.56651 7.75033 8.402 8.36373C7.76869 8.08687 7.08759 7.92154 6.38226 7.87758ZM6.38226 5.61727V4.12146C7.08759 4.07751 7.76869 3.91217 8.402 3.63532C8.56651 4.24872 8.66543 4.91912 8.69189 5.61727H6.38226ZM6.38226 3.35549V0.820361C7.24251 1.06843 7.84 2.06945 8.16411 2.90406C7.60683 3.15735 7.0057 3.31091 6.38226 3.35549ZM8.09929 1.20201C8.58862 1.41629 9.04514 1.70684 9.45437 2.06734C9.25958 2.23909 9.05404 2.39483 8.83941 2.53409C8.6488 2.06217 8.40532 1.60354 8.09929 1.20201ZM3.16057 2.53409C2.94594 2.39483 2.74042 2.23909 2.5456 2.06734C2.95483 1.70684 3.41135 1.41629 3.90068 1.20201C3.59465 1.60359 3.35117 2.06221 3.16057 2.53409ZM3.16059 9.46495C3.35117 9.93686 3.5947 10.3955 3.9007 10.797C3.41138 10.5828 2.95486 10.2922 2.54562 9.9317C2.74042 9.75995 2.94596 9.60422 3.16059 9.46495ZM8.83941 9.46495C9.05404 9.60422 9.25958 9.75995 9.45437 9.93168C9.04514 10.2922 8.58862 10.5827 8.09929 10.797C8.4053 10.3955 8.6488 9.93688 8.83941 9.46495ZM9.45676 5.61727C9.42751 4.79195 9.30377 3.99798 9.0949 3.2765C9.41091 3.08536 9.71069 2.86357 9.99098 2.61294C10.7132 3.46128 11.1406 4.50482 11.2204 5.61727H9.45676Z" fill="#9196A5"/>
</svg>
