<svg width="848" height="574" viewBox="0 0 848 574" fill="none" xmlns="http://www.w3.org/2000/svg">
<g filter="url(#filter0_d)">
<rect x="4" width="840" height="544" rx="14" fill="white"/>
</g>
<rect x="22.5" y="239.5" width="392" height="220" rx="7.5" fill="white" stroke="#D3D5DB"/>
<path d="M49.0469 268V258.136H47.0098L43.9883 265.662H43.9336L40.9121 258.136H38.8682V268H40.4609V261H40.5088L43.3594 268H44.5625L47.4131 261H47.4609V268H49.0469ZM51.5078 259.66C52.0273 259.66 52.4375 259.243 52.4375 258.737C52.4375 258.225 52.0273 257.814 51.5078 257.814C50.9883 257.814 50.5713 258.225 50.5713 258.737C50.5713 259.243 50.9883 259.66 51.5078 259.66ZM50.6602 268H52.3623V260.754H50.6602V268ZM53.791 268H55.4932V263.803C55.4932 262.764 56.1152 262.06 57.0928 262.06C58.0635 262.06 58.542 262.634 58.542 263.659V268H60.2441V263.317C60.2441 261.643 59.335 260.617 57.7354 260.617C56.6211 260.617 55.8486 261.137 55.459 261.998H55.4248V260.754H53.791V268ZM62.5 259.66C63.0195 259.66 63.4297 259.243 63.4297 258.737C63.4297 258.225 63.0195 257.814 62.5 257.814C61.9805 257.814 61.5635 258.225 61.5635 258.737C61.5635 259.243 61.9805 259.66 62.5 259.66ZM61.6523 268H63.3545V260.754H61.6523V268ZM64.7832 268H66.4854V263.563C66.4854 262.688 67.0596 262.053 67.8799 262.053C68.6729 262.053 69.165 262.552 69.165 263.358V268H70.8193V263.522C70.8193 262.654 71.3799 262.053 72.2002 262.053C73.0342 262.053 73.499 262.559 73.499 263.447V268H75.2012V263.03C75.2012 261.581 74.2646 260.617 72.8359 260.617C71.79 260.617 70.9287 261.178 70.5801 262.073H70.5391C70.2725 261.144 69.541 260.617 68.5156 260.617C67.5312 260.617 66.7656 261.171 66.4512 262.012H66.417V260.754H64.7832V268ZM82.9941 260.754H81.292V264.944C81.292 265.997 80.6836 266.694 79.6992 266.694C78.7422 266.694 78.2363 266.134 78.2363 265.095V260.754H76.5342V265.437C76.5342 267.111 77.5322 268.13 79.1045 268.13C80.2051 268.13 80.9365 267.624 81.3193 266.742H81.3535V268H82.9941V260.754ZM84.3887 268H86.0908V263.563C86.0908 262.688 86.665 262.053 87.4854 262.053C88.2783 262.053 88.7705 262.552 88.7705 263.358V268H90.4248V263.522C90.4248 262.654 90.9854 262.053 91.8057 262.053C92.6396 262.053 93.1045 262.559 93.1045 263.447V268H94.8066V263.03C94.8066 261.581 93.8701 260.617 92.4414 260.617C91.3955 260.617 90.5342 261.178 90.1855 262.073H90.1445C89.8779 261.144 89.1465 260.617 88.1211 260.617C87.1367 260.617 86.3711 261.171 86.0566 262.012H86.0225V260.754H84.3887V268ZM103.488 268.164C104.131 268.164 104.712 268.068 105.238 267.877L106.059 268.998H107.788L106.462 267.2C107.583 266.332 108.171 264.89 108.171 263.071C108.171 259.92 106.359 257.972 103.488 257.972C100.624 257.972 98.8125 259.94 98.8125 263.071C98.8125 266.202 100.597 268.164 103.488 268.164ZM103.488 266.688C101.718 266.688 100.597 265.272 100.597 263.071C100.597 260.863 101.718 259.448 103.488 259.448C105.266 259.448 106.394 260.863 106.394 263.071C106.394 264.254 106.052 265.225 105.43 265.833L104.753 264.91H103.023L104.261 266.578C104.021 266.646 103.769 266.688 103.488 266.688ZM115.834 260.754H114.132V264.944C114.132 265.997 113.523 266.694 112.539 266.694C111.582 266.694 111.076 266.134 111.076 265.095V260.754H109.374V265.437C109.374 267.111 110.372 268.13 111.944 268.13C113.045 268.13 113.776 267.624 114.159 266.742H114.193V268H115.834V260.754ZM119.361 268.116C120.291 268.116 121.2 267.631 121.617 266.845H121.651V268H123.292V263.01C123.292 261.554 122.123 260.604 120.325 260.604C118.479 260.604 117.324 261.574 117.249 262.928H118.828C118.938 262.326 119.45 261.937 120.257 261.937C121.098 261.937 121.61 262.374 121.61 263.133V263.652L119.696 263.762C117.933 263.871 116.941 264.644 116.941 265.929C116.941 267.234 117.96 268.116 119.361 268.116ZM119.874 266.831C119.136 266.831 118.644 266.455 118.644 265.86C118.644 265.286 119.115 264.917 119.936 264.862L121.61 264.76V265.313C121.61 266.188 120.838 266.831 119.874 266.831ZM124.714 268H126.416V258.136H124.714V268ZM128.754 259.66C129.273 259.66 129.684 259.243 129.684 258.737C129.684 258.225 129.273 257.814 128.754 257.814C128.234 257.814 127.817 258.225 127.817 258.737C127.817 259.243 128.234 259.66 128.754 259.66ZM127.906 268H129.608V260.754H127.906V268ZM131.509 268H133.211V262.066H134.633V260.774H133.184V260.18C133.184 259.592 133.478 259.284 134.127 259.284C134.325 259.284 134.523 259.305 134.667 259.325V258.136C134.455 258.095 134.086 258.061 133.751 258.061C132.179 258.061 131.509 258.724 131.509 260.132V260.774H130.518V262.066H131.509V268ZM136.643 259.66C137.162 259.66 137.572 259.243 137.572 258.737C137.572 258.225 137.162 257.814 136.643 257.814C136.123 257.814 135.706 258.225 135.706 258.737C135.706 259.243 136.123 259.66 136.643 259.66ZM135.795 268H137.497V260.754H135.795V268ZM145.311 263.338C145.194 261.813 144.012 260.604 142.098 260.604C139.992 260.604 138.625 262.06 138.625 264.377C138.625 266.729 139.992 268.144 142.111 268.144C143.93 268.144 145.181 267.077 145.317 265.457H143.711C143.554 266.277 142.993 266.77 142.132 266.77C141.052 266.77 140.354 265.895 140.354 264.377C140.354 262.887 141.045 261.984 142.118 261.984C143.027 261.984 143.567 262.565 143.704 263.338H145.311ZM148.469 268.116C149.398 268.116 150.308 267.631 150.725 266.845H150.759V268H152.399V263.01C152.399 261.554 151.23 260.604 149.433 260.604C147.587 260.604 146.432 261.574 146.356 262.928H147.936C148.045 262.326 148.558 261.937 149.364 261.937C150.205 261.937 150.718 262.374 150.718 263.133V263.652L148.804 263.762C147.04 263.871 146.049 264.644 146.049 265.929C146.049 267.234 147.067 268.116 148.469 268.116ZM148.981 266.831C148.243 266.831 147.751 266.455 147.751 265.86C147.751 265.286 148.223 264.917 149.043 264.862L150.718 264.76V265.313C150.718 266.188 149.945 266.831 148.981 266.831ZM154.245 259.059V260.754H153.206V262.066H154.245V266.072C154.245 267.48 154.86 268.034 156.426 268.034C156.788 268.034 157.123 268.007 157.308 267.966V266.667C157.198 266.688 156.979 266.701 156.822 266.701C156.221 266.701 155.947 266.428 155.947 265.833V262.066H157.314V260.754H155.947V259.059H154.245ZM159.365 259.66C159.885 259.66 160.295 259.243 160.295 258.737C160.295 258.225 159.885 257.814 159.365 257.814C158.846 257.814 158.429 258.225 158.429 258.737C158.429 259.243 158.846 259.66 159.365 259.66ZM158.518 268H160.22V260.754H158.518V268ZM164.854 268.144C166.98 268.144 168.361 266.729 168.361 264.377C168.361 262.032 166.967 260.604 164.854 260.604C162.742 260.604 161.348 262.039 161.348 264.377C161.348 266.729 162.729 268.144 164.854 268.144ZM164.854 266.797C163.774 266.797 163.077 265.922 163.077 264.377C163.077 262.839 163.781 261.957 164.854 261.957C165.935 261.957 166.632 262.839 166.632 264.377C166.632 265.922 165.935 266.797 164.854 266.797ZM169.455 268H171.157V263.803C171.157 262.764 171.779 262.06 172.757 262.06C173.728 262.06 174.206 262.634 174.206 263.659V268H175.908V263.317C175.908 261.643 174.999 260.617 173.399 260.617C172.285 260.617 171.513 261.137 171.123 261.998H171.089V260.754H169.455V268Z" fill="#232D4C"/>
<path d="M106.062 333.406C110.822 333.406 113.704 329.75 113.704 323.682C113.704 316.991 110.099 314.262 106.062 314.262C101.974 314.262 99.0029 316.966 99.0029 320.762C99.0029 324.329 101.682 326.741 105.084 326.741C107.483 326.741 109.299 325.548 109.959 323.771H110.035C110.061 327.706 108.829 330.372 106.074 330.372C104.538 330.372 103.408 329.674 103.002 328.366H99.2188C99.7012 331.337 102.469 333.406 106.062 333.406ZM106.074 323.897C104.157 323.897 102.735 322.526 102.735 320.609C102.735 318.756 104.221 317.321 106.112 317.321C107.991 317.321 109.477 318.781 109.477 320.673C109.477 322.552 108.004 323.897 106.074 323.897ZM123.314 333.406C127.961 333.406 130.779 329.712 130.779 323.796C130.779 317.88 127.936 314.262 123.314 314.262C118.693 314.262 115.837 317.893 115.837 323.809C115.837 329.737 118.668 333.406 123.314 333.406ZM123.314 330.334C121.055 330.334 119.734 328.011 119.734 323.809C119.734 319.645 121.08 317.334 123.314 317.334C125.562 317.334 126.882 319.632 126.882 323.809C126.882 328.011 125.574 330.334 123.314 330.334ZM136.797 323.961C139.438 323.961 141.164 322.107 141.164 319.162C141.164 316.191 139.425 314.401 136.797 314.401C134.156 314.401 132.417 316.191 132.417 319.175C132.417 322.12 134.144 323.961 136.797 323.961ZM138.384 333L150.8 314.681H148.058L135.629 333H138.384ZM136.797 321.815C135.781 321.815 135.096 320.939 135.096 319.175C135.096 317.385 135.781 316.56 136.797 316.56C137.812 316.56 138.485 317.385 138.485 319.175C138.485 320.939 137.8 321.815 136.797 321.815ZM149.645 333.267C152.285 333.267 154.012 331.413 154.012 328.468C154.012 325.484 152.272 323.694 149.645 323.694C147.004 323.694 145.265 325.497 145.265 328.468C145.265 331.426 146.991 333.267 149.645 333.267ZM149.645 331.108C148.629 331.108 147.943 330.245 147.943 328.468C147.943 326.678 148.629 325.853 149.645 325.853C150.66 325.853 151.333 326.69 151.333 328.468C151.333 330.245 150.647 331.108 149.645 331.108Z" fill="#4A90E2"/>
<path d="M98.3779 303H101.243L104.038 298.562H104.108L106.886 303H109.909L105.813 296.689V296.628L109.962 290.317H107L104.284 294.888H104.214L101.524 290.317H98.4043L102.403 296.575V296.646L98.3779 303ZM111.685 291.407V293.578H110.357V295.512H111.685V300.46C111.685 302.297 112.546 303.035 114.761 303.035C115.279 303.035 115.719 302.991 115.982 302.93V301.04C115.824 301.066 115.587 301.084 115.358 301.084C114.603 301.084 114.251 300.741 114.251 300.021V295.512H115.991V293.578H114.251V291.407H111.685ZM117.459 303H120.025V297.621C120.025 296.382 120.737 295.529 121.95 295.529C123.119 295.529 123.717 296.268 123.717 297.48V303H126.283V296.936C126.283 294.756 125.088 293.402 122.996 293.402C121.563 293.402 120.535 294.07 120.034 295.257H119.981V290.317H117.459V303Z" fill="#9196A5"/>
<path d="M106.062 426.406C110.822 426.406 113.704 422.75 113.704 416.682C113.704 409.991 110.099 407.262 106.062 407.262C101.974 407.262 99.0029 409.966 99.0029 413.762C99.0029 417.329 101.682 419.741 105.084 419.741C107.483 419.741 109.299 418.548 109.959 416.771H110.035C110.061 420.706 108.829 423.372 106.074 423.372C104.538 423.372 103.408 422.674 103.002 421.366H99.2188C99.7012 424.337 102.469 426.406 106.062 426.406ZM106.074 416.897C104.157 416.897 102.735 415.526 102.735 413.609C102.735 411.756 104.221 410.321 106.112 410.321C107.991 410.321 109.477 411.781 109.477 413.673C109.477 415.552 108.004 416.897 106.074 416.897ZM123.314 426.406C127.961 426.406 130.779 422.712 130.779 416.796C130.779 410.88 127.936 407.262 123.314 407.262C118.693 407.262 115.837 410.893 115.837 416.809C115.837 422.737 118.668 426.406 123.314 426.406ZM123.314 423.334C121.055 423.334 119.734 421.011 119.734 416.809C119.734 412.645 121.08 410.334 123.314 410.334C125.562 410.334 126.882 412.632 126.882 416.809C126.882 421.011 125.574 423.334 123.314 423.334ZM136.797 416.961C139.438 416.961 141.164 415.107 141.164 412.162C141.164 409.191 139.425 407.401 136.797 407.401C134.156 407.401 132.417 409.191 132.417 412.175C132.417 415.12 134.144 416.961 136.797 416.961ZM138.384 426L150.8 407.681H148.058L135.629 426H138.384ZM136.797 414.815C135.781 414.815 135.096 413.939 135.096 412.175C135.096 410.385 135.781 409.56 136.797 409.56C137.812 409.56 138.485 410.385 138.485 412.175C138.485 413.939 137.8 414.815 136.797 414.815ZM149.645 426.267C152.285 426.267 154.012 424.413 154.012 421.468C154.012 418.484 152.272 416.694 149.645 416.694C147.004 416.694 145.265 418.497 145.265 421.468C145.265 424.426 146.991 426.267 149.645 426.267ZM149.645 424.108C148.629 424.108 147.943 423.245 147.943 421.468C147.943 419.678 148.629 418.853 149.645 418.853C150.66 418.853 151.333 419.69 151.333 421.468C151.333 423.245 150.647 424.108 149.645 424.108Z" fill="#4A90E2"/>
<path d="M104.671 396C107.378 396 109.057 394.603 109.057 392.37C109.057 390.691 107.791 389.435 106.068 389.303V389.232C107.413 389.03 108.45 387.87 108.45 386.481C108.45 384.539 106.956 383.317 104.574 383.317H99.0547V396H104.671ZM101.709 385.295H103.889C105.128 385.295 105.84 385.875 105.84 386.895C105.84 387.967 105.031 388.591 103.616 388.591H101.709V385.295ZM101.709 394.022V390.34H103.933C105.497 390.34 106.35 390.973 106.35 392.159C106.35 393.372 105.523 394.022 103.994 394.022H101.709ZM113.144 396.149C114.321 396.149 115.49 395.561 116.018 394.559H116.07V396H118.549V389.522C118.549 387.624 116.976 386.376 114.559 386.376C112.062 386.376 110.507 387.633 110.41 389.461H112.757C112.88 388.767 113.486 388.292 114.444 388.292C115.411 388.292 116.026 388.802 116.026 389.681V390.305L113.653 390.445C111.307 390.586 109.988 391.579 109.988 393.293C109.988 394.989 111.351 396.149 113.144 396.149ZM113.987 394.295C113.117 394.295 112.537 393.855 112.537 393.152C112.537 392.484 113.082 392.054 114.04 391.983L116.026 391.86V392.546C116.026 393.565 115.104 394.295 113.987 394.295ZM128.771 390.085C128.656 387.949 127.039 386.376 124.49 386.376C121.669 386.376 119.867 388.257 119.867 391.28C119.867 394.356 121.669 396.202 124.508 396.202C126.986 396.202 128.647 394.77 128.779 392.546H126.389C126.23 393.574 125.562 394.189 124.534 394.189C123.26 394.189 122.469 393.135 122.469 391.28C122.469 389.461 123.26 388.389 124.525 388.389C125.58 388.389 126.239 389.092 126.389 390.085H128.771ZM130.08 396H132.646V390.621C132.646 389.382 133.358 388.529 134.571 388.529C135.74 388.529 136.338 389.268 136.338 390.48V396H138.904V389.936C138.904 387.756 137.709 386.402 135.617 386.402C134.185 386.402 133.156 387.07 132.655 388.257H132.603V383.317H130.08V396ZM146.788 393.117C146.551 393.838 145.83 394.304 144.89 394.304C143.58 394.304 142.728 393.381 142.728 392.036V391.878H149.223V391.096C149.223 388.23 147.491 386.376 144.749 386.376C141.963 386.376 140.205 388.327 140.205 391.333C140.205 394.348 141.945 396.202 144.846 396.202C147.175 396.202 148.862 394.963 149.144 393.117H146.788ZM144.775 388.274C145.918 388.274 146.7 389.101 146.753 390.305H142.754C142.842 389.127 143.65 388.274 144.775 388.274ZM150.611 396H153.178V383.317H150.611V396ZM159.233 396.202C162.081 396.202 163.9 394.383 163.9 391.28C163.9 388.222 162.055 386.376 159.233 386.376C156.412 386.376 154.566 388.23 154.566 391.28C154.566 394.374 156.386 396.202 159.233 396.202ZM159.233 394.242C157.968 394.242 157.168 393.179 157.168 391.289C157.168 389.417 157.985 388.336 159.233 388.336C160.481 388.336 161.29 389.417 161.29 391.289C161.29 393.179 160.49 394.242 159.233 394.242ZM165.228 396H167.794V390.735C167.794 389.408 168.532 388.635 169.798 388.635C170.167 388.635 170.519 388.696 170.729 388.784V386.525C170.554 386.473 170.299 386.429 170 386.429C168.893 386.429 168.093 387.079 167.759 388.274H167.706V386.578H165.228V396ZM171.626 389.347C171.626 390.762 172.549 391.676 174.368 392.062L175.977 392.396C176.899 392.607 177.225 392.889 177.225 393.39C177.225 394.005 176.627 394.4 175.66 394.4C174.641 394.4 174.052 393.961 173.894 393.135H171.389C171.556 394.989 173.059 396.202 175.66 396.202C178.086 396.202 179.782 394.98 179.782 393.126C179.782 391.746 178.974 390.973 177.005 390.56L175.396 390.217C174.447 390.015 174.096 389.689 174.096 389.206C174.096 388.582 174.685 388.178 175.572 388.178C176.521 388.178 177.093 388.696 177.172 389.461H179.536C179.483 387.615 177.989 386.376 175.572 386.376C173.173 386.376 171.626 387.554 171.626 389.347Z" fill="#9196A5"/>
<path d="M320.062 333.406C324.822 333.406 327.704 329.75 327.704 323.682C327.704 316.991 324.099 314.262 320.062 314.262C315.974 314.262 313.003 316.966 313.003 320.762C313.003 324.329 315.682 326.741 319.084 326.741C321.483 326.741 323.299 325.548 323.959 323.771H324.035C324.061 327.706 322.829 330.372 320.074 330.372C318.538 330.372 317.408 329.674 317.002 328.366H313.219C313.701 331.337 316.469 333.406 320.062 333.406ZM320.074 323.897C318.157 323.897 316.735 322.526 316.735 320.609C316.735 318.756 318.221 317.321 320.112 317.321C321.991 317.321 323.477 318.781 323.477 320.673C323.477 322.552 322.004 323.897 320.074 323.897ZM337.314 333.406C341.961 333.406 344.779 329.712 344.779 323.796C344.779 317.88 341.936 314.262 337.314 314.262C332.693 314.262 329.837 317.893 329.837 323.809C329.837 329.737 332.668 333.406 337.314 333.406ZM337.314 330.334C335.055 330.334 333.734 328.011 333.734 323.809C333.734 319.645 335.08 317.334 337.314 317.334C339.562 317.334 340.882 319.632 340.882 323.809C340.882 328.011 339.574 330.334 337.314 330.334ZM350.797 323.961C353.438 323.961 355.164 322.107 355.164 319.162C355.164 316.191 353.425 314.401 350.797 314.401C348.156 314.401 346.417 316.191 346.417 319.175C346.417 322.12 348.144 323.961 350.797 323.961ZM352.384 333L364.8 314.681H362.058L349.629 333H352.384ZM350.797 321.815C349.781 321.815 349.096 320.939 349.096 319.175C349.096 317.385 349.781 316.56 350.797 316.56C351.812 316.56 352.485 317.385 352.485 319.175C352.485 320.939 351.8 321.815 350.797 321.815ZM363.645 333.267C366.285 333.267 368.012 331.413 368.012 328.468C368.012 325.484 366.272 323.694 363.645 323.694C361.004 323.694 359.265 325.497 359.265 328.468C359.265 331.426 360.991 333.267 363.645 333.267ZM363.645 331.108C362.629 331.108 361.943 330.245 361.943 328.468C361.943 326.678 362.629 325.853 363.645 325.853C364.66 325.853 365.333 326.69 365.333 328.468C365.333 330.245 364.647 331.108 363.645 331.108Z" fill="#4A90E2"/>
<path d="M313.055 290.317V303H317.897C321.703 303 323.944 300.636 323.944 296.61C323.944 292.585 321.703 290.317 317.897 290.317H313.055ZM315.709 292.506H317.581C319.919 292.506 321.237 293.965 321.237 296.619C321.237 299.361 319.954 300.803 317.581 300.803H315.709V292.506ZM326.757 292.304C327.504 292.304 328.093 291.706 328.093 290.985C328.093 290.256 327.504 289.667 326.757 289.667C326.01 289.667 325.421 290.256 325.421 290.985C325.421 291.706 326.01 292.304 326.757 292.304ZM325.482 303H328.049V293.578H325.482V303ZM335.265 293.429C333.902 293.429 332.856 294.114 332.347 295.222H332.294V293.578H329.763V306.076H332.329V301.418H332.382C332.883 302.481 333.938 303.149 335.309 303.149C337.664 303.149 339.123 301.321 339.123 298.289C339.123 295.248 337.655 293.429 335.265 293.429ZM334.403 301.084C333.146 301.084 332.32 299.994 332.32 298.289C332.32 296.602 333.146 295.485 334.403 295.485C335.687 295.485 336.495 296.584 336.495 298.289C336.495 300.003 335.687 301.084 334.403 301.084ZM340.512 303H343.078V290.317H340.512V303ZM349.134 303.202C351.981 303.202 353.801 301.383 353.801 298.28C353.801 295.222 351.955 293.376 349.134 293.376C346.312 293.376 344.467 295.23 344.467 298.28C344.467 301.374 346.286 303.202 349.134 303.202ZM349.134 301.242C347.868 301.242 347.068 300.179 347.068 298.289C347.068 296.417 347.886 295.336 349.134 295.336C350.382 295.336 351.19 296.417 351.19 298.289C351.19 300.179 350.391 301.242 349.134 301.242ZM355.128 303H357.694V297.313C357.694 296.259 358.354 295.521 359.329 295.521C360.278 295.521 360.85 296.118 360.85 297.129V303H363.319V297.278C363.319 296.232 363.961 295.521 364.937 295.521C365.93 295.521 366.475 296.118 366.475 297.208V303H369.041V296.566C369.041 294.668 367.802 293.402 365.956 293.402C364.576 293.402 363.451 294.149 363.029 295.336H362.977C362.66 294.105 361.711 293.402 360.349 293.402C359.065 293.402 358.055 294.149 357.659 295.283H357.606V293.578H355.128V303ZM373.462 303.149C374.64 303.149 375.809 302.561 376.336 301.559H376.389V303H378.867V296.522C378.867 294.624 377.294 293.376 374.877 293.376C372.381 293.376 370.825 294.633 370.729 296.461H373.075C373.198 295.767 373.805 295.292 374.763 295.292C375.729 295.292 376.345 295.802 376.345 296.681V297.305L373.972 297.445C371.625 297.586 370.307 298.579 370.307 300.293C370.307 301.989 371.669 303.149 373.462 303.149ZM374.306 301.295C373.436 301.295 372.855 300.855 372.855 300.152C372.855 299.484 373.4 299.054 374.358 298.983L376.345 298.86V299.546C376.345 300.565 375.422 301.295 374.306 301.295Z" fill="#9196A5"/>
<path d="M320.062 426.406C324.822 426.406 327.704 422.75 327.704 416.682C327.704 409.991 324.099 407.262 320.062 407.262C315.974 407.262 313.003 409.966 313.003 413.762C313.003 417.329 315.682 419.741 319.084 419.741C321.483 419.741 323.299 418.548 323.959 416.771H324.035C324.061 420.706 322.829 423.372 320.074 423.372C318.538 423.372 317.408 422.674 317.002 421.366H313.219C313.701 424.337 316.469 426.406 320.062 426.406ZM320.074 416.897C318.157 416.897 316.735 415.526 316.735 413.609C316.735 411.756 318.221 410.321 320.112 410.321C321.991 410.321 323.477 411.781 323.477 413.673C323.477 415.552 322.004 416.897 320.074 416.897ZM337.314 426.406C341.961 426.406 344.779 422.712 344.779 416.796C344.779 410.88 341.936 407.262 337.314 407.262C332.693 407.262 329.837 410.893 329.837 416.809C329.837 422.737 332.668 426.406 337.314 426.406ZM337.314 423.334C335.055 423.334 333.734 421.011 333.734 416.809C333.734 412.645 335.08 410.334 337.314 410.334C339.562 410.334 340.882 412.632 340.882 416.809C340.882 421.011 339.574 423.334 337.314 423.334ZM350.797 416.961C353.438 416.961 355.164 415.107 355.164 412.162C355.164 409.191 353.425 407.401 350.797 407.401C348.156 407.401 346.417 409.191 346.417 412.175C346.417 415.12 348.144 416.961 350.797 416.961ZM352.384 426L364.8 407.681H362.058L349.629 426H352.384ZM350.797 414.815C349.781 414.815 349.096 413.939 349.096 412.175C349.096 410.385 349.781 409.56 350.797 409.56C351.812 409.56 352.485 410.385 352.485 412.175C352.485 413.939 351.8 414.815 350.797 414.815ZM363.645 426.267C366.285 426.267 368.012 424.413 368.012 421.468C368.012 418.484 366.272 416.694 363.645 416.694C361.004 416.694 359.265 418.497 359.265 421.468C359.265 424.426 360.991 426.267 363.645 426.267ZM363.645 424.108C362.629 424.108 361.943 423.245 361.943 421.468C361.943 419.678 362.629 418.853 363.645 418.853C364.66 418.853 365.333 419.69 365.333 421.468C365.333 423.245 364.647 424.108 363.645 424.108Z" fill="#4A90E2"/>
<path d="M326.484 396V383.317H323.408L319.805 392.423H319.734L316.131 383.317H313.055V396H315.419V387.439H315.489L318.935 396H320.604L324.05 387.439H324.12V396H326.484ZM330.976 396.149C332.153 396.149 333.322 395.561 333.85 394.559H333.902V396H336.381V389.522C336.381 387.624 334.808 386.376 332.391 386.376C329.895 386.376 328.339 387.633 328.242 389.461H330.589C330.712 388.767 331.318 388.292 332.276 388.292C333.243 388.292 333.858 388.802 333.858 389.681V390.305L331.485 390.445C329.139 390.586 327.82 391.579 327.82 393.293C327.82 394.989 329.183 396.149 330.976 396.149ZM331.819 394.295C330.949 394.295 330.369 393.855 330.369 393.152C330.369 392.484 330.914 392.054 331.872 391.983L333.858 391.86V392.546C333.858 393.565 332.936 394.295 331.819 394.295ZM337.884 389.347C337.884 390.762 338.807 391.676 340.626 392.062L342.234 392.396C343.157 392.607 343.482 392.889 343.482 393.39C343.482 394.005 342.885 394.4 341.918 394.4C340.898 394.4 340.31 393.961 340.151 393.135H337.646C337.813 394.989 339.316 396.202 341.918 396.202C344.344 396.202 346.04 394.98 346.04 393.126C346.04 391.746 345.231 390.973 343.263 390.56L341.654 390.217C340.705 390.015 340.354 389.689 340.354 389.206C340.354 388.582 340.942 388.178 341.83 388.178C342.779 388.178 343.351 388.696 343.43 389.461H345.794C345.741 387.615 344.247 386.376 341.83 386.376C339.431 386.376 337.884 387.554 337.884 389.347ZM347.991 384.407V386.578H346.664V388.512H347.991V393.46C347.991 395.297 348.853 396.035 351.067 396.035C351.586 396.035 352.025 395.991 352.289 395.93V394.04C352.131 394.066 351.894 394.084 351.665 394.084C350.909 394.084 350.558 393.741 350.558 393.021V388.512H352.298V386.578H350.558V384.407H347.991ZM359.804 393.117C359.566 393.838 358.846 394.304 357.905 394.304C356.596 394.304 355.743 393.381 355.743 392.036V391.878H362.238V391.096C362.238 388.23 360.507 386.376 357.765 386.376C354.979 386.376 353.221 388.327 353.221 391.333C353.221 394.348 354.961 396.202 357.861 396.202C360.19 396.202 361.878 394.963 362.159 393.117H359.804ZM357.791 388.274C358.934 388.274 359.716 389.101 359.769 390.305H355.77C355.857 389.127 356.666 388.274 357.791 388.274ZM363.565 396H366.132V390.735C366.132 389.408 366.87 388.635 368.136 388.635C368.505 388.635 368.856 388.696 369.067 388.784V386.525C368.892 386.473 368.637 386.429 368.338 386.429C367.23 386.429 366.431 387.079 366.097 388.274H366.044V386.578H363.565V396ZM369.964 389.347C369.964 390.762 370.887 391.676 372.706 392.062L374.314 392.396C375.237 392.607 375.562 392.889 375.562 393.39C375.562 394.005 374.965 394.4 373.998 394.4C372.979 394.4 372.39 393.961 372.231 393.135H369.727C369.894 394.989 371.396 396.202 373.998 396.202C376.424 396.202 378.12 394.98 378.12 393.126C378.12 391.746 377.312 390.973 375.343 390.56L373.734 390.217C372.785 390.015 372.434 389.689 372.434 389.206C372.434 388.582 373.022 388.178 373.91 388.178C374.859 388.178 375.431 388.696 375.51 389.461H377.874C377.821 387.615 376.327 386.376 373.91 386.376C371.511 386.376 369.964 387.554 369.964 389.347Z" fill="#9196A5"/>
<path d="M276 384.804C264.9 384.804 255.902 393.802 255.902 404.902C255.902 413.444 261.231 420.74 268.745 423.649H283.255C290.769 420.74 296.098 413.444 296.098 404.902C296.098 393.802 287.1 384.804 276 384.804Z" fill="#E80054"/>
<path d="M278.655 411.459C278.103 410.927 277.275 409.919 277.182 408.588C276.828 408.77 276.426 408.874 276 408.874C275.939 408.874 275.88 408.871 275.82 408.867V417.457C275.88 417.456 275.94 417.453 276 417.453C276.888 417.453 277.732 417.637 278.498 417.97L279.072 412.615C279.118 412.186 278.966 411.758 278.655 411.459Z" fill="#FFDD40"/>
<path d="M278.498 417.97L279.072 412.615C279.072 412.614 279.072 412.614 279.072 412.614C279.072 412.614 279.072 412.614 279.072 412.614C278.173 414.112 277.025 413.837 276.419 413.538C276.231 413.446 276.021 413.415 275.82 413.448V417.457C275.88 417.456 275.94 417.453 276 417.453C276.888 417.453 277.732 417.637 278.498 417.97Z" fill="#FFB332"/>
<path d="M274.817 408.588C274.724 409.919 273.896 410.927 273.344 411.459C273.033 411.758 272.881 412.186 272.927 412.615L273.502 417.97C274.268 417.637 275.112 417.453 276 417.453L275.999 408.873C275.573 408.873 275.171 408.77 274.817 408.588Z" fill="#FFB332"/>
<path d="M276 417.453L275.999 413.434C275.857 413.431 275.713 413.459 275.581 413.522C273.933 414.296 272.927 412.615 272.927 412.615L273.502 417.97C274.268 417.637 275.112 417.453 276 417.453Z" fill="#FF9100"/>
<path d="M273.686 405.28C273.506 405.633 273.403 406.033 273.403 406.457C273.403 407.891 274.566 409.053 276 409.053C277.434 409.053 278.597 407.891 278.597 406.457C278.597 406.033 278.494 405.633 278.314 405.28C276.899 406.121 275.102 406.122 273.686 405.28Z" fill="#FFDD40"/>
<path d="M281.042 419.808C279.897 418.27 278.065 417.273 276 417.273C273.935 417.273 272.103 418.27 270.958 419.808H281.042Z" fill="#FFDD40"/>
<path d="M277.324 417.413C276.897 417.321 276.454 417.273 276 417.273C273.935 417.273 272.103 418.27 270.958 419.808H277.074C276.314 419.205 276.376 417.839 277.324 417.413Z" fill="#FFB332"/>
<path d="M265.887 386.026C265.885 386.026 265.884 386.026 265.882 386.026C265.906 389.974 266.693 398.979 272.901 404.868C274.624 406.501 277.378 406.5 279.099 404.868C285.307 398.98 286.095 389.975 286.118 386.026H265.887Z" fill="#FFDD40"/>
<path d="M271.857 392.413C271.544 390.091 273.341 388.023 275.684 388.023L286.046 388.023C286.095 387.269 286.115 386.595 286.118 386.026H265.887C265.885 386.026 265.884 386.026 265.882 386.026C265.906 389.974 266.693 398.979 272.901 404.868C274.167 406.067 275.988 406.384 277.548 405.821C273.855 401.722 272.403 396.472 271.857 392.413Z" fill="#FFB332"/>
<path d="M286.116 386.206H265.884C265.214 386.206 264.67 385.662 264.67 384.992C264.67 384.322 265.214 383.778 265.884 383.778H286.116C286.786 383.778 287.33 384.322 287.33 384.992C287.33 385.662 286.786 386.206 286.116 386.206Z" fill="#FFE98D"/>
<path d="M271.764 384.992C271.764 384.321 272.307 383.778 272.977 383.778H265.884C265.214 383.778 264.67 384.321 264.67 384.992C264.67 385.662 265.214 386.206 265.884 386.206H272.977C272.307 386.206 271.764 385.662 271.764 384.992Z" fill="#FFDD40"/>
<path d="M270.044 406.586C269.625 406.319 269.502 405.763 269.768 405.344C270.312 404.491 269.669 403.29 268.589 403.29C268.576 403.29 268.562 403.29 268.549 403.29L268.526 403.291C267.669 403.315 266.825 402.981 266.213 402.375C259.508 395.748 257.532 389.571 256.95 386.479C256.617 384.708 257.941 383.051 259.749 383.001C261.199 382.962 262.475 384.009 262.72 385.44L262.733 385.515C262.893 386.423 263.718 387.089 264.651 387.063L265.704 387.034C266.199 387.022 266.614 387.411 266.628 387.908C266.642 388.404 266.25 388.818 265.754 388.831L264.701 388.861C262.885 388.913 261.276 387.607 260.962 385.828L260.947 385.744C260.852 385.189 260.361 384.786 259.799 384.799C259.086 384.819 258.591 385.471 258.718 386.147C259.26 389.033 261.119 394.812 267.477 401.096C267.742 401.359 268.109 401.504 268.477 401.493L268.499 401.492C271.074 401.421 272.592 404.258 271.285 406.31C271.018 406.73 270.462 406.852 270.044 406.586Z" fill="#FFDD40"/>
<path d="M282.384 419.628H269.616C269.022 419.628 268.537 420.114 268.537 420.708V423.567C269.114 423.798 269.704 424.004 270.307 424.181H281.693C282.296 424.004 282.886 423.798 283.463 423.567V420.708C283.463 420.114 282.978 419.628 282.384 419.628Z" fill="#A05838"/>
<path d="M268.537 420.707V423.567C269.114 423.798 269.704 424.004 270.307 424.181H275.823V423.65C275.823 423.222 276.095 422.92 276.323 422.743C276.465 422.633 276.506 422.435 276.423 422.276C276.226 421.897 276.391 421.556 276.529 421.365C276.608 421.257 276.616 421.116 276.562 420.995C276.323 420.46 276.518 420.105 276.748 419.891C276.825 419.819 276.863 419.724 276.864 419.628H269.616C269.022 419.628 268.537 420.114 268.537 420.707Z" fill="#823C26"/>
<path d="M280.478 421.877H271.522C271.164 421.877 270.875 422.166 270.875 422.524V424.339C272.511 424.77 274.228 425 276 425C277.772 425 279.489 424.77 281.125 424.339V422.524C281.125 422.166 280.836 421.877 280.478 421.877Z" fill="#E9EFFF"/>
<path d="M276.323 422.743C276.465 422.633 276.506 422.435 276.423 422.276C276.35 422.135 276.327 422.001 276.333 421.877H271.522C271.164 421.877 270.875 422.166 270.875 422.524V424.339C272.456 424.755 274.114 424.984 275.823 424.998V423.65C275.823 423.222 276.095 422.92 276.323 422.743Z" fill="#D3DCFB"/>
<path d="M280.478 421.202H271.522C270.793 421.202 270.2 421.795 270.2 422.524V424.149C270.644 424.282 271.093 424.401 271.549 424.504V422.551H280.451V424.504C280.907 424.401 281.356 424.282 281.8 424.149V422.524C281.8 421.795 281.207 421.202 280.478 421.202Z" fill="#D3DCFB"/>
<path d="M276.423 422.276C276.226 421.897 276.391 421.556 276.529 421.365C276.565 421.316 276.585 421.26 276.593 421.202H271.522C270.793 421.202 270.2 421.795 270.2 422.524V424.149C270.644 424.282 271.093 424.401 271.549 424.504V422.551H276.45C276.475 422.461 276.468 422.363 276.423 422.276Z" fill="#BEC8F7"/>
<path d="M276.555 408.249C277.049 408.249 277.45 407.848 277.45 407.353C277.45 406.859 277.049 406.458 276.555 406.458C276.06 406.458 275.659 406.859 275.659 407.353C275.659 407.848 276.06 408.249 276.555 408.249Z" fill="#FFE98D"/>
<path d="M277.686 393.869C278.18 393.869 278.581 393.468 278.581 392.974C278.581 392.479 278.18 392.078 277.686 392.078C277.191 392.078 276.79 392.479 276.79 392.974C276.79 393.468 277.191 393.869 277.686 393.869Z" fill="#FFE98D"/>
<path d="M280.678 392.692C281.565 392.692 282.283 391.973 282.283 391.087C282.283 390.2 281.565 389.482 280.678 389.482C279.792 389.482 279.073 390.2 279.073 391.087C279.073 391.973 279.792 392.692 280.678 392.692Z" fill="#FFE98D"/>
<path d="M259.478 384.474C259.478 384.618 259.45 384.756 259.401 384.883C259.523 384.833 259.656 384.803 259.798 384.799C260.361 384.786 260.852 385.189 260.947 385.744L260.962 385.828C261.276 387.607 262.885 388.913 264.701 388.861L265.754 388.831C266.25 388.818 266.642 388.404 266.628 387.908C266.614 387.411 266.199 387.022 265.704 387.034L264.651 387.063C263.718 387.089 262.893 386.423 262.732 385.515L262.72 385.441C262.475 384.009 261.199 382.962 259.749 383.001C259.271 383.014 258.828 383.14 258.44 383.35C259.021 383.396 259.478 383.881 259.478 384.474Z" fill="#FFB332"/>
<path d="M281.956 406.586C282.375 406.319 282.498 405.763 282.231 405.344C281.688 404.491 282.331 403.29 283.411 403.29C283.424 403.29 283.437 403.29 283.451 403.29L283.473 403.291C284.33 403.315 285.174 402.981 285.787 402.375C292.492 395.748 294.468 389.571 295.049 386.479C295.382 384.708 294.059 383.051 292.251 383.001C290.8 382.962 289.524 384.009 289.28 385.44L289.267 385.515C289.106 386.423 288.282 387.089 287.348 387.063L286.296 387.034C285.801 387.022 285.385 387.411 285.372 387.908C285.358 388.404 285.749 388.818 286.246 388.831L287.298 388.861C289.114 388.913 290.723 387.607 291.038 385.828L291.053 385.744C291.147 385.189 291.638 384.786 292.201 384.799C292.913 384.819 293.409 385.471 293.282 386.147C292.739 389.033 290.88 394.812 284.523 401.096C284.257 401.359 283.89 401.504 283.523 401.493L283.501 401.492C280.926 401.421 279.408 404.258 280.714 406.31C280.982 406.73 281.538 406.852 281.956 406.586Z" fill="#FFDD40"/>
<path d="M292.522 384.474C292.522 384.618 292.55 384.756 292.599 384.883C292.477 384.833 292.344 384.803 292.202 384.799C291.639 384.786 291.148 385.189 291.053 385.744L291.038 385.828C290.724 387.607 289.115 388.913 287.299 388.861L286.246 388.831C285.75 388.818 285.358 388.404 285.372 387.908C285.386 387.411 285.801 387.022 286.296 387.034L287.349 387.063C288.282 387.089 289.107 386.423 289.268 385.515L289.28 385.441C289.525 384.01 290.801 382.962 292.251 383.001C292.729 383.014 293.172 383.141 293.56 383.35C292.979 383.396 292.522 383.881 292.522 384.474Z" fill="#FFB332"/>
<path d="M296.096 404.76C294.23 403.282 290.484 401.103 287.36 404.227C283.008 408.579 280.293 413.852 284.066 416.051C286.359 417.387 286.957 419.905 287.072 421.675C292.51 418.079 296.098 411.91 296.098 404.902C296.098 404.855 296.096 404.808 296.096 404.76Z" fill="#FF4155"/>
<path d="M264.64 404.227C261.516 401.103 257.77 403.282 255.904 404.76C255.904 404.808 255.902 404.855 255.902 404.902C255.902 411.91 259.49 418.079 264.928 421.675C265.043 419.905 265.641 417.387 267.934 416.051C271.707 413.852 268.992 408.578 264.64 404.227Z" fill="#FF4155"/>
<g clip-path="url(#clip0)">
<path d="M62.4991 424.903C74.0704 424.903 83.4508 415.523 83.4508 403.952C83.4508 392.38 74.0704 383 62.4991 383C50.9278 383 41.5474 392.38 41.5474 403.952C41.5474 415.523 50.9278 424.903 62.4991 424.903Z" fill="#44D7B6"/>
<path d="M63.093 424.895C67.2043 424.78 71.2639 423.465 74.7458 420.952C79.1169 417.798 82.1449 413.064 83.1145 407.709C83.121 407.674 83.1271 407.638 83.1333 407.603C84.3029 400.95 82.2219 394.186 77.526 389.353C77.5259 389.353 77.5259 389.353 77.5259 389.353C79.2871 392.475 76.2911 395.876 73.0884 394.809L66.507 392.616C65.0637 392.135 63.5035 392.135 62.0602 392.616L47.2238 397.559C46.466 397.812 46.467 398.884 47.2252 399.135L49.4727 399.88L51.8374 400.663V412.824L58.1175 413.734C62.4711 414.364 61.9376 419.945 57.5569 419.544C57.5087 419.54 57.4606 419.536 57.4125 419.531C54.6425 419.269 53.8752 423.188 56.4887 424.027C58.6072 424.66 60.7853 424.947 62.9799 424.897C63.0176 424.897 63.0553 424.896 63.093 424.895Z" fill="#1FAA8B"/>
<path d="M53.7112 401.46L54.3813 418.976C56.5407 419.507 59.3204 419.827 62.3535 419.827C69.2274 419.827 74.7997 418.184 74.7997 416.158V401.46H53.7112Z" fill="#265CDE"/>
<path d="M49.9075 401.46V416.158C49.9075 417.29 51.6474 418.302 54.3814 418.975V410.354C54.3814 408.76 55.9417 407.633 57.4551 408.134L60.8479 409.258C61.917 409.612 63.0721 409.61 64.1397 409.251L69.2169 407.545C70.8871 406.983 72.6155 408.226 72.6155 409.988V418.234C73.9929 417.644 74.7996 416.929 74.7996 416.158V405.668V401.46H49.9075Z" fill="#0037BD"/>
<path d="M60.8478 407.621L47.5427 403.213L59.8946 397.898L66.9603 396.744L79.4304 400.898C80.1864 401.15 80.1879 402.219 79.4325 402.473L64.1397 407.613C63.0722 407.972 61.917 407.975 60.8478 407.621Z" fill="#05CDFF"/>
<path d="M64.0376 406.766L54.9946 403.771C53.6146 403.314 53.6017 401.366 54.9755 400.891L66.9602 396.744L64.5769 395.95C63.1336 395.469 61.5734 395.469 60.1301 395.95L45.2939 400.893C44.5361 401.145 44.537 402.217 45.2953 402.469L47.5427 403.213L60.8479 407.62C61.917 407.975 63.0722 407.972 64.1397 407.613L65.8886 407.025C65.2649 407.051 64.6377 406.965 64.0376 406.766Z" fill="#05ACFF"/>
<path d="M71.7191 426C71.1135 426 70.6225 425.509 70.6225 424.903V405.836L61.9814 402.719C61.4117 402.514 61.1164 401.885 61.322 401.315C61.5274 400.746 62.1558 400.451 62.7255 400.656L72.0911 404.034C72.5259 404.191 72.8156 404.604 72.8156 405.066V424.903C72.8157 425.509 72.3247 426 71.7191 426Z" fill="#FFDC64"/>
<path d="M69.461 403.856C69.461 403.393 69.1712 402.981 68.7365 402.824L62.7258 400.656C62.156 400.451 61.5276 400.746 61.3222 401.315C61.1167 401.885 61.412 402.514 61.9816 402.719L67.9925 404.887C68.7071 405.145 69.461 404.615 69.461 403.856Z" fill="#FFF5AA"/>
</g>
<path d="M276 334C287.598 334 297 324.598 297 313C297 301.402 287.598 292 276 292C264.402 292 255 301.402 255 313C255 324.598 264.402 334 276 334Z" fill="#7584F2"/>
<path d="M297 313C297 311.728 296.887 310.484 296.671 309.274L289.76 302.363L262.24 323.637L272.274 333.67C273.484 333.887 274.729 334 276 334C287.598 334 297 324.598 297 313Z" fill="#4253CE"/>
<path d="M262.24 302.363H289.76V323.637H262.24V302.363Z" fill="#E9EDF5"/>
<path d="M276.01 302.363H289.76V323.637H276.01V302.363Z" fill="#CDD2E1"/>
<path d="M265.186 305.442H286.814V320.558H265.186V305.442Z" fill="white"/>
<path d="M276.01 305.442H286.814V320.558H276.01V305.442Z" fill="#E9EDF5"/>
<path d="M284.3 327.79L281.582 325.999L278.863 327.79V319.483H284.3V327.79Z" fill="#FF6C52"/>
<path d="M281.577 319.483L281.581 325.999L284.3 327.79V319.483H281.577Z" fill="#FF432E"/>
<path d="M267.517 307.587H274.642V310.048H267.517V307.587Z" fill="#CDD2E1"/>
<path d="M267.517 315.952H274.642V318.413H267.517V315.952Z" fill="#CDD2E1"/>
<path d="M267.517 311.77H284.995V314.23H267.517V311.77Z" fill="#CDD2E1"/>
<path d="M276.01 311.77H284.995V314.23H276.01V311.77Z" fill="#AFB4C8"/>
<path d="M281.581 323.128C283.858 323.128 285.704 321.282 285.704 319.005C285.704 316.728 283.858 314.882 281.581 314.882C279.304 314.882 277.458 316.728 277.458 319.005C277.458 321.282 279.304 323.128 281.581 323.128Z" fill="#FFCE00"/>
<path d="M281.581 314.882C281.58 314.882 281.578 314.882 281.577 314.882V323.127C281.578 323.127 281.58 323.127 281.581 323.127C283.858 323.127 285.704 321.282 285.704 319.005C285.704 316.728 283.858 314.882 281.581 314.882Z" fill="#FDBA12"/>
<path d="M62 334C73.598 334 83 324.598 83 313C83 301.402 73.598 292 62 292C50.402 292 41 301.402 41 313C41 324.598 50.402 334 62 334Z" fill="#E676E1"/>
<path d="M83.0001 313C83.0001 311.729 82.887 310.484 82.6706 309.274L72 304.5L49.5 318.5L58.2744 333.67C59.4836 333.887 60.7286 334 62.0001 334C73.5981 334 83.0001 324.598 83.0001 313Z" fill="#C141BC"/>
<path d="M77.0786 332.323L72.6242 331.343L71.2437 335.701C71.1444 336.014 70.72 336.06 70.556 335.775L65.0454 326.203C67.7598 325.615 70.175 324.221 72.0295 322.283L77.4873 331.766C77.6511 332.05 77.3992 332.394 77.0786 332.323Z" fill="#FD646F"/>
<path d="M77.0786 332.323L72.9613 331.417C72.7704 331.375 72.579 331.485 72.5199 331.672L71.2437 335.701C71.1444 336.014 70.72 336.06 70.556 335.775L65.8351 327.574L65.0454 326.203C67.7598 325.615 70.175 324.221 72.0295 322.283L72.8131 323.644L77.4874 331.765C77.651 332.05 77.3991 332.394 77.0786 332.323Z" fill="#FD646F"/>
<path d="M77.0786 332.323L72.9616 331.417C72.7704 331.375 72.5792 331.486 72.5203 331.671L72.9634 330.294C73.0232 330.109 73.2146 329.999 73.4051 330.041L76.9479 330.829L77.4874 331.766C77.6514 332.05 77.399 332.394 77.0786 332.323Z" fill="#FC4755"/>
<path d="M60.0414 326.088L54.4437 335.81C54.2797 336.095 53.8553 336.049 53.756 335.736L52.4797 331.707C52.4207 331.52 52.2292 331.41 52.0383 331.452L47.9211 332.358C47.6005 332.428 47.3486 332.085 47.5124 331.8L52.7185 322.756C54.6622 324.598 57.2839 325.634 60.0414 326.088Z" fill="#FD646F"/>
<path d="M53.4554 324.101L48.8163 332.161L47.9214 332.358C47.6008 332.428 47.3489 332.085 47.5126 331.8L51.9441 324.101L53.1425 322.014C53.4652 322.319 53.8022 322.609 54.1536 322.882L53.4554 324.101Z" fill="#FC4755"/>
<path d="M54.9898 334.861L54.4434 335.81C54.2795 336.095 53.8555 336.05 53.7558 335.736L52.4794 331.707C52.4205 331.52 52.2293 331.41 52.0381 331.451L53.4497 331.141C53.6406 331.099 53.832 331.21 53.891 331.396L54.9898 334.861Z" fill="#FC4755"/>
<path d="M52.8446 322.525L56.5263 324.186L60.0415 326.088L59.099 327.724C56.4707 327.19 54.0321 325.967 52.0166 324.165C51.9925 324.144 51.9683 324.123 51.9441 324.101L52.8446 322.525Z" fill="#FC4755"/>
<path d="M72.8131 323.644L72.0295 322.283L67.8827 324.114L65.0454 326.203L65.3643 326.757L66.1474 328.117L70.556 335.775C70.72 336.06 71.1444 336.014 71.2437 335.701L71.5244 334.815L67.1425 327.182C69.2638 326.444 71.1949 325.243 72.8131 323.644Z" fill="#FC4755"/>
<path d="M76.2147 312.756C76.2147 316.454 74.76 319.812 72.3924 322.283C70.5379 324.221 68.1228 325.615 65.4083 326.203C64.4705 326.406 63.4979 326.513 62.4997 326.513C61.7379 326.513 60.9913 326.451 60.2636 326.331C57.6474 325.9 55.2798 324.727 53.3846 323.034C53.2818 322.943 53.1813 322.85 53.0815 322.756C52.7279 322.421 52.3923 322.067 52.0749 321.696C51.7712 321.34 51.4855 320.968 51.2187 320.581C50.4177 319.422 49.7897 318.133 49.3718 316.752C48.9902 315.487 48.7847 314.147 48.7847 312.756C48.7847 305.159 54.9254 299 62.4997 299C63.8849 299 65.2224 299.206 66.4822 299.59C67.8598 300.007 69.1445 300.637 70.3007 301.441C70.6861 301.709 71.0571 301.996 71.4115 302.301C71.8861 302.707 72.332 303.146 72.7468 303.613C74.9043 306.044 76.2147 309.247 76.2147 312.756Z" fill="#FAA515"/>
<path d="M62.4999 322.609C67.9252 322.609 72.3232 318.198 72.3232 312.756C72.3232 307.315 67.9252 302.903 62.4999 302.903C57.0746 302.903 52.6765 307.315 52.6765 312.756C52.6765 318.198 57.0746 322.609 62.4999 322.609Z" fill="#FAD207"/>
<path d="M72.3229 312.756C72.3229 318.198 67.9248 322.609 62.4997 322.609C57.0746 322.609 52.6765 318.198 52.6765 312.756C52.6765 312.346 52.7015 311.941 52.7506 311.544C53.3461 316.414 57.4842 320.184 62.4997 320.184C67.5152 320.184 71.6534 316.414 72.2489 311.544C72.298 311.941 72.3229 312.346 72.3229 312.756Z" fill="#FAA515"/>
<path fill-rule="evenodd" clip-rule="evenodd" d="M62.4997 302.904C57.0746 302.904 52.6765 307.315 52.6765 312.756C52.6765 318.198 57.0746 322.609 62.4997 322.609C67.9248 322.609 72.3229 318.198 72.3229 312.756C72.3229 307.315 67.9248 302.904 62.4997 302.904ZM62.4997 321.472C57.7079 321.472 53.81 317.563 53.81 312.756C53.81 307.95 57.7079 304.041 62.4997 304.041C67.2915 304.041 71.1894 307.95 71.1894 312.756C71.1894 317.563 67.2915 321.472 62.4997 321.472Z" fill="#FAF063"/>
<path d="M62.8392 307.308L64.1887 310.064C64.2436 310.177 64.3506 310.254 64.4743 310.272L67.507 310.708C67.8174 310.753 67.9415 311.134 67.7168 311.353L65.5173 313.495C65.4279 313.581 65.3873 313.707 65.4085 313.83L65.9327 316.858C65.9862 317.167 65.6609 317.403 65.3834 317.256L62.6768 315.822C62.5661 315.763 62.4336 315.763 62.323 315.822L59.6163 317.256C59.3388 317.403 59.0135 317.168 59.0671 316.858L59.5912 313.83C59.6125 313.707 59.5718 313.581 59.4825 313.495L57.2829 311.353C57.0582 311.134 57.1824 310.753 57.4927 310.708L60.5254 310.272C60.6491 310.254 60.756 310.177 60.8111 310.064L62.1605 307.308C62.2987 307.026 62.701 307.026 62.8392 307.308Z" fill="#FAA515"/>
<defs>
<filter id="filter0_d" x="0" y="0" width="848" height="574" filterUnits="userSpaceOnUse" color-interpolation-filters="sRGB">
<feFlood flood-opacity="0" result="BackgroundImageFix"/>
<feColorMatrix in="SourceAlpha" type="matrix" values="0 0 0 0 0 0 0 0 0 0 0 0 0 0 0 0 0 0 127 0"/>
<feMorphology radius="20" operator="erode" in="SourceAlpha" result="effect1_dropShadow"/>
<feOffset dy="26"/>
<feGaussianBlur stdDeviation="12"/>
<feColorMatrix type="matrix" values="0 0 0 0 0 0 0 0 0 0 0 0 0 0 0 0 0 0 0.25 0"/>
<feBlend mode="normal" in2="BackgroundImageFix" result="effect1_dropShadow"/>
<feBlend mode="normal" in="SourceGraphic" in2="effect1_dropShadow" result="shape"/>
</filter>
<clipPath id="clip0">
<rect width="43" height="43" fill="white" transform="translate(41 383)"/>
</clipPath>
</defs>
</svg>
