<svg width="36" height="28" viewBox="0 0 36 28" fill="none" xmlns="http://www.w3.org/2000/svg">
<path d="M27.5312 5.95745L25.1482 0H10.8503L8.46734 5.95745H2.98589C1.73602 5.95745 0.722656 6.97081 0.722656 8.22068V25.7165C0.722656 26.9777 1.74495 28 3.00615 28H32.9918C34.253 28 35.2753 26.9777 35.2753 25.7165V8.22068C35.2753 6.97081 34.2619 5.95745 33.012 5.95745H27.5312Z" fill="#F1F2F3"/>
<path d="M18 22C21.866 22 25 18.866 25 15C25 11.134 21.866 8 18 8C14.134 8 11 11.134 11 15C11 18.866 14.134 22 18 22Z" fill="#4A90E2"/>
<path d="M6.67985 2.97876H4.29688V5.95748H6.67985V2.97876Z" fill="#F1F2F3"/>
<path d="M31.1056 11.9148C32.0927 11.9148 32.8928 11.1146 32.8928 10.1276C32.8928 9.1405 32.0927 8.34033 31.1056 8.34033C30.1185 8.34033 29.3184 9.1405 29.3184 10.1276C29.3184 11.1146 30.1185 11.9148 31.1056 11.9148Z" fill="#4A90E2"/>
</svg>
