<svg width="22" height="22" viewBox="0 0 22 22" fill="none" xmlns="http://www.w3.org/2000/svg">
<path d="M11 0C4.93477 0 0 4.93435 0 11C0 17.0657 4.93477 22 11 22C17.0652 22 22 17.0657 22 11C22 4.93435 17.0652 0 11 0ZM17.0173 7.25427L10.1729 14.7538C10.0044 14.9383 9.76954 15.0333 9.53298 15.0333C9.34519 15.0333 9.15654 14.9733 8.99869 14.8508L4.72096 11.5177C4.35222 11.2307 4.29233 10.7061 4.58749 10.3466C4.88223 9.987 5.42122 9.92867 5.78996 10.2162L9.43331 13.0547L15.7383 6.14642C16.0514 5.80228 16.5929 5.77145 16.9459 6.07726C17.2992 6.38349 17.3313 6.91012 17.0173 7.25427Z" fill="#44D7B6"/>
</svg>
