<svg width="94" height="52" viewBox="0 0 94 52" fill="none" xmlns="http://www.w3.org/2000/svg">
<path d="M5.12012 49.1641C7.45117 49.1641 9.06445 47.8857 9.37207 45.7734H7.64258C7.36914 46.9629 6.43262 47.667 5.12695 47.667C3.41797 47.667 2.33789 46.2793 2.33789 44.0645C2.33789 41.8633 3.4248 40.4688 5.12012 40.4688C6.39844 40.4688 7.40332 41.2822 7.63574 42.5195H9.37207C9.15332 40.4004 7.41016 38.9717 5.12012 38.9717C2.31738 38.9717 0.533203 40.9199 0.533203 44.0645C0.533203 47.2295 2.30371 49.1641 5.12012 49.1641ZM13.7471 49.1436C15.873 49.1436 17.2539 47.7285 17.2539 45.377C17.2539 43.0322 15.8594 41.6035 13.7471 41.6035C11.6348 41.6035 10.2402 43.0391 10.2402 45.377C10.2402 47.7285 11.6211 49.1436 13.7471 49.1436ZM13.7471 47.7969C12.667 47.7969 11.9697 46.9219 11.9697 45.377C11.9697 43.8389 12.6738 42.957 13.7471 42.957C14.8271 42.957 15.5244 43.8389 15.5244 45.377C15.5244 46.9219 14.8271 47.7969 13.7471 47.7969ZM18.3477 49H20.0498V44.5635C20.0498 43.6885 20.624 43.0527 21.4443 43.0527C22.2373 43.0527 22.7295 43.5518 22.7295 44.3584V49H24.3838V44.5225C24.3838 43.6543 24.9443 43.0527 25.7646 43.0527C26.5986 43.0527 27.0635 43.5586 27.0635 44.4473V49H28.7656V44.0303C28.7656 42.5811 27.8291 41.6172 26.4004 41.6172C25.3545 41.6172 24.4932 42.1777 24.1445 43.0732H24.1035C23.8369 42.1436 23.1055 41.6172 22.0801 41.6172C21.0957 41.6172 20.3301 42.1709 20.0156 43.0117H19.9814V41.7539H18.3477V49ZM34.1113 41.6309C33.0586 41.6309 32.2383 42.1641 31.8281 43.0049H31.7939V41.7539H30.1328V51.3857H31.835V47.7969H31.8691C32.2656 48.6104 33.0859 49.1162 34.1387 49.1162C35.957 49.1162 37.1191 47.6875 37.1191 45.377C37.1191 43.0596 35.9502 41.6309 34.1113 41.6309ZM33.5918 47.7217C32.5322 47.7217 31.8281 46.7988 31.8213 45.377C31.8281 43.9688 32.5322 43.0322 33.5918 43.0322C34.6924 43.0322 35.376 43.9482 35.376 45.377C35.376 46.8125 34.6924 47.7217 33.5918 47.7217ZM40.3457 49.1162C41.2754 49.1162 42.1846 48.6309 42.6016 47.8447H42.6357V49H44.2764V44.0098C44.2764 42.5537 43.1074 41.6035 41.3096 41.6035C39.4639 41.6035 38.3086 42.5742 38.2334 43.9277H39.8125C39.9219 43.3262 40.4346 42.9365 41.2412 42.9365C42.082 42.9365 42.5947 43.374 42.5947 44.1328V44.6523L40.6807 44.7617C38.917 44.8711 37.9258 45.6436 37.9258 46.9287C37.9258 48.2344 38.9443 49.1162 40.3457 49.1162ZM40.8584 47.8311C40.1201 47.8311 39.6279 47.4551 39.6279 46.8604C39.6279 46.2861 40.0996 45.917 40.9199 45.8623L42.5947 45.7598V46.3135C42.5947 47.1885 41.8223 47.8311 40.8584 47.8311ZM45.6504 49H47.3525V44.8027C47.3525 43.7637 47.9746 43.0596 48.9521 43.0596C49.9229 43.0596 50.4014 43.6338 50.4014 44.6592V49H52.1035V44.3174C52.1035 42.6426 51.1943 41.6172 49.5947 41.6172C48.4805 41.6172 47.708 42.1367 47.3184 42.998H47.2842V41.7539H45.6504V49ZM54.2568 51.6934C55.9111 51.6934 56.7109 51.085 57.3262 49.2871L59.9512 41.7539H58.1602L56.4512 47.5508H56.417L54.7148 41.7539H52.8555L55.4326 49.0068C55.4395 49.0273 55.3301 49.3896 55.3301 49.4102C55.1455 50.0801 54.7832 50.3467 54.0791 50.3467C53.9766 50.3467 53.6758 50.3398 53.5869 50.3193V51.666C53.6758 51.6865 54.1543 51.6934 54.2568 51.6934ZM69.9727 47.5098H65.4951V39.1357H63.7314V49H69.9727V47.5098ZM74.1357 49.1436C76.2617 49.1436 77.6426 47.7285 77.6426 45.377C77.6426 43.0322 76.248 41.6035 74.1357 41.6035C72.0234 41.6035 70.6289 43.0391 70.6289 45.377C70.6289 47.7285 72.0098 49.1436 74.1357 49.1436ZM74.1357 47.7969C73.0557 47.7969 72.3584 46.9219 72.3584 45.377C72.3584 43.8389 73.0625 42.957 74.1357 42.957C75.2158 42.957 75.9131 43.8389 75.9131 45.377C75.9131 46.9219 75.2158 47.7969 74.1357 47.7969ZM81.9287 51.7344C84.041 51.7344 85.4287 50.6133 85.4287 48.8838V41.7539H83.7607V42.998H83.7334C83.3164 42.1641 82.4824 41.6309 81.4502 41.6309C79.5977 41.6309 78.4355 43.0596 78.4355 45.3496C78.4355 47.6055 79.625 49.0068 81.416 49.0068C82.4551 49.0068 83.3096 48.4873 83.6855 47.708H83.7266V48.9316C83.7266 49.8545 83.0908 50.4766 81.9834 50.4766C81.1768 50.4766 80.5547 50.1006 80.3701 49.5469H78.6816C78.8525 50.8184 80.1377 51.7344 81.9287 51.7344ZM81.9355 47.6533C80.8623 47.6533 80.1787 46.792 80.1787 45.3564C80.1787 43.9346 80.8623 43.0322 81.9355 43.0322C83.0225 43.0322 83.7266 43.9482 83.7266 45.3564C83.7266 46.7715 83.0225 47.6533 81.9355 47.6533ZM90.0225 49.1436C92.1484 49.1436 93.5293 47.7285 93.5293 45.377C93.5293 43.0322 92.1348 41.6035 90.0225 41.6035C87.9102 41.6035 86.5156 43.0391 86.5156 45.377C86.5156 47.7285 87.8965 49.1436 90.0225 49.1436ZM90.0225 47.7969C88.9424 47.7969 88.2451 46.9219 88.2451 45.377C88.2451 43.8389 88.9492 42.957 90.0225 42.957C91.1025 42.957 91.7998 43.8389 91.7998 45.377C91.7998 46.9219 91.1025 47.7969 90.0225 47.7969Z" fill="#4A90E2"/>
<path d="M56.5312 5.95745L54.1482 0H39.8503L37.4673 5.95745H31.9859C30.736 5.95745 29.7227 6.97081 29.7227 8.22068V25.7165C29.7227 26.9777 30.745 28 32.0061 28H61.9918C63.253 28 64.2753 26.9777 64.2753 25.7165V8.22068C64.2753 6.97081 63.2619 5.95745 62.012 5.95745H56.5312Z" fill="#4A90E2"/>
<path d="M47 22C50.866 22 54 18.866 54 15C54 11.134 50.866 8 47 8C43.134 8 40 11.134 40 15C40 18.866 43.134 22 47 22Z" fill="#F1F2F3"/>
<path d="M35.6799 2.97876H33.2969V5.95748H35.6799V2.97876Z" fill="#4A90E2"/>
<path d="M60.1056 11.9148C61.0927 11.9148 61.8928 11.1146 61.8928 10.1276C61.8928 9.1405 61.0927 8.34033 60.1056 8.34033C59.1185 8.34033 58.3184 9.1405 58.3184 10.1276C58.3184 11.1146 59.1185 11.9148 60.1056 11.9148Z" fill="#F1F2F3"/>
</svg>
