<svg width="165" height="115" viewBox="0 0 165 115" fill="none" xmlns="http://www.w3.org/2000/svg">
<rect x="0.5" y="0.5" width="164" height="114" rx="11.5" fill="white" stroke="#4A90E2" stroke-dasharray="5 9"/>
<path d="M40.1201 80.1641C42.4512 80.1641 44.0645 78.8857 44.3721 76.7734H42.6426C42.3691 77.9629 41.4326 78.667 40.127 78.667C38.418 78.667 37.3379 77.2793 37.3379 75.0645C37.3379 72.8633 38.4248 71.4688 40.1201 71.4688C41.3984 71.4688 42.4033 72.2822 42.6357 73.5195H44.3721C44.1533 71.4004 42.4102 69.9717 40.1201 69.9717C37.3174 69.9717 35.5332 71.9199 35.5332 75.0645C35.5332 78.2295 37.3037 80.1641 40.1201 80.1641ZM48.7471 80.1436C50.873 80.1436 52.2539 78.7285 52.2539 76.377C52.2539 74.0322 50.8594 72.6035 48.7471 72.6035C46.6348 72.6035 45.2402 74.0391 45.2402 76.377C45.2402 78.7285 46.6211 80.1436 48.7471 80.1436ZM48.7471 78.7969C47.667 78.7969 46.9697 77.9219 46.9697 76.377C46.9697 74.8389 47.6738 73.957 48.7471 73.957C49.8271 73.957 50.5244 74.8389 50.5244 76.377C50.5244 77.9219 49.8271 78.7969 48.7471 78.7969ZM53.3477 80H55.0498V75.5635C55.0498 74.6885 55.624 74.0527 56.4443 74.0527C57.2373 74.0527 57.7295 74.5518 57.7295 75.3584V80H59.3838V75.5225C59.3838 74.6543 59.9443 74.0527 60.7646 74.0527C61.5986 74.0527 62.0635 74.5586 62.0635 75.4473V80H63.7656V75.0303C63.7656 73.5811 62.8291 72.6172 61.4004 72.6172C60.3545 72.6172 59.4932 73.1777 59.1445 74.0732H59.1035C58.8369 73.1436 58.1055 72.6172 57.0801 72.6172C56.0957 72.6172 55.3301 73.1709 55.0156 74.0117H54.9814V72.7539H53.3477V80ZM69.1113 72.6309C68.0586 72.6309 67.2383 73.1641 66.8281 74.0049H66.7939V72.7539H65.1328V82.3857H66.835V78.7969H66.8691C67.2656 79.6104 68.0859 80.1162 69.1387 80.1162C70.957 80.1162 72.1191 78.6875 72.1191 76.377C72.1191 74.0596 70.9502 72.6309 69.1113 72.6309ZM68.5918 78.7217C67.5322 78.7217 66.8281 77.7988 66.8213 76.377C66.8281 74.9688 67.5322 74.0322 68.5918 74.0322C69.6924 74.0322 70.376 74.9482 70.376 76.377C70.376 77.8125 69.6924 78.7217 68.5918 78.7217ZM75.3457 80.1162C76.2754 80.1162 77.1846 79.6309 77.6016 78.8447H77.6357V80H79.2764V75.0098C79.2764 73.5537 78.1074 72.6035 76.3096 72.6035C74.4639 72.6035 73.3086 73.5742 73.2334 74.9277H74.8125C74.9219 74.3262 75.4346 73.9365 76.2412 73.9365C77.082 73.9365 77.5947 74.374 77.5947 75.1328V75.6523L75.6807 75.7617C73.917 75.8711 72.9258 76.6436 72.9258 77.9287C72.9258 79.2344 73.9443 80.1162 75.3457 80.1162ZM75.8584 78.8311C75.1201 78.8311 74.6279 78.4551 74.6279 77.8604C74.6279 77.2861 75.0996 76.917 75.9199 76.8623L77.5947 76.7598V77.3135C77.5947 78.1885 76.8223 78.8311 75.8584 78.8311ZM80.6504 80H82.3525V75.8027C82.3525 74.7637 82.9746 74.0596 83.9521 74.0596C84.9229 74.0596 85.4014 74.6338 85.4014 75.6592V80H87.1035V75.3174C87.1035 73.6426 86.1943 72.6172 84.5947 72.6172C83.4805 72.6172 82.708 73.1367 82.3184 73.998H82.2842V72.7539H80.6504V80ZM89.2568 82.6934C90.9111 82.6934 91.7109 82.085 92.3262 80.2871L94.9512 72.7539H93.1602L91.4512 78.5508H91.417L89.7148 72.7539H87.8555L90.4326 80.0068C90.4395 80.0273 90.3301 80.3896 90.3301 80.4102C90.1455 81.0801 89.7832 81.3467 89.0791 81.3467C88.9766 81.3467 88.6758 81.3398 88.5869 81.3193V82.666C88.6758 82.6865 89.1543 82.6934 89.2568 82.6934ZM104.973 78.5098H100.495V70.1357H98.7314V80H104.973V78.5098ZM109.136 80.1436C111.262 80.1436 112.643 78.7285 112.643 76.377C112.643 74.0322 111.248 72.6035 109.136 72.6035C107.023 72.6035 105.629 74.0391 105.629 76.377C105.629 78.7285 107.01 80.1436 109.136 80.1436ZM109.136 78.7969C108.056 78.7969 107.358 77.9219 107.358 76.377C107.358 74.8389 108.062 73.957 109.136 73.957C110.216 73.957 110.913 74.8389 110.913 76.377C110.913 77.9219 110.216 78.7969 109.136 78.7969ZM116.929 82.7344C119.041 82.7344 120.429 81.6133 120.429 79.8838V72.7539H118.761V73.998H118.733C118.316 73.1641 117.482 72.6309 116.45 72.6309C114.598 72.6309 113.436 74.0596 113.436 76.3496C113.436 78.6055 114.625 80.0068 116.416 80.0068C117.455 80.0068 118.31 79.4873 118.686 78.708H118.727V79.9316C118.727 80.8545 118.091 81.4766 116.983 81.4766C116.177 81.4766 115.555 81.1006 115.37 80.5469H113.682C113.853 81.8184 115.138 82.7344 116.929 82.7344ZM116.936 78.6533C115.862 78.6533 115.179 77.792 115.179 76.3564C115.179 74.9346 115.862 74.0322 116.936 74.0322C118.022 74.0322 118.727 74.9482 118.727 76.3564C118.727 77.7715 118.022 78.6533 116.936 78.6533ZM125.022 80.1436C127.148 80.1436 128.529 78.7285 128.529 76.377C128.529 74.0322 127.135 72.6035 125.022 72.6035C122.91 72.6035 121.516 74.0391 121.516 76.377C121.516 78.7285 122.896 80.1436 125.022 80.1436ZM125.022 78.7969C123.942 78.7969 123.245 77.9219 123.245 76.377C123.245 74.8389 123.949 73.957 125.022 73.957C126.103 73.957 126.8 74.8389 126.8 76.377C126.8 77.9219 126.103 78.7969 125.022 78.7969Z" fill="#4A90E2"/>
<path d="M91.5312 36.9574L89.1482 31H74.8503L72.4673 36.9574H66.9859C65.736 36.9574 64.7227 37.9708 64.7227 39.2207V56.7165C64.7227 57.9777 65.745 59 67.0061 59H96.9918C98.253 59 99.2753 57.9777 99.2753 56.7165V39.2207C99.2753 37.9708 98.2619 36.9574 97.012 36.9574H91.5312Z" fill="#4A90E2"/>
<path d="M82 53C85.866 53 89 49.866 89 46C89 42.134 85.866 39 82 39C78.134 39 75 42.134 75 46C75 49.866 78.134 53 82 53Z" fill="#F1F2F3"/>
<path d="M70.6799 33.9788H68.2969V36.9575H70.6799V33.9788Z" fill="#4A90E2"/>
<path d="M95.1056 42.9148C96.0927 42.9148 96.8928 42.1146 96.8928 41.1276C96.8928 40.1405 96.0927 39.3403 95.1056 39.3403C94.1185 39.3403 93.3184 40.1405 93.3184 41.1276C93.3184 42.1146 94.1185 42.9148 95.1056 42.9148Z" fill="#F1F2F3"/>
</svg>
