<svg width="120" height="66" viewBox="0 0 120 66" fill="none" xmlns="http://www.w3.org/2000/svg">
<path d="M15.1201 49.1641C17.4512 49.1641 19.0645 47.8857 19.3721 45.7734H17.6426C17.3691 46.9629 16.4326 47.667 15.127 47.667C13.418 47.667 12.3379 46.2793 12.3379 44.0645C12.3379 41.8633 13.4248 40.4688 15.1201 40.4688C16.3984 40.4688 17.4033 41.2822 17.6357 42.5195H19.3721C19.1533 40.4004 17.4102 38.9717 15.1201 38.9717C12.3174 38.9717 10.5332 40.9199 10.5332 44.0645C10.5332 47.2295 12.3037 49.1641 15.1201 49.1641ZM23.7471 49.1436C25.873 49.1436 27.2539 47.7285 27.2539 45.377C27.2539 43.0322 25.8594 41.6035 23.7471 41.6035C21.6348 41.6035 20.2402 43.0391 20.2402 45.377C20.2402 47.7285 21.6211 49.1436 23.7471 49.1436ZM23.7471 47.7969C22.667 47.7969 21.9697 46.9219 21.9697 45.377C21.9697 43.8389 22.6738 42.957 23.7471 42.957C24.8271 42.957 25.5244 43.8389 25.5244 45.377C25.5244 46.9219 24.8271 47.7969 23.7471 47.7969ZM28.3477 49H30.0498V44.5635C30.0498 43.6885 30.624 43.0527 31.4443 43.0527C32.2373 43.0527 32.7295 43.5518 32.7295 44.3584V49H34.3838V44.5225C34.3838 43.6543 34.9443 43.0527 35.7646 43.0527C36.5986 43.0527 37.0635 43.5586 37.0635 44.4473V49H38.7656V44.0303C38.7656 42.5811 37.8291 41.6172 36.4004 41.6172C35.3545 41.6172 34.4932 42.1777 34.1445 43.0732H34.1035C33.8369 42.1436 33.1055 41.6172 32.0801 41.6172C31.0957 41.6172 30.3301 42.1709 30.0156 43.0117H29.9814V41.7539H28.3477V49ZM44.1113 41.6309C43.0586 41.6309 42.2383 42.1641 41.8281 43.0049H41.7939V41.7539H40.1328V51.3857H41.835V47.7969H41.8691C42.2656 48.6104 43.0859 49.1162 44.1387 49.1162C45.957 49.1162 47.1191 47.6875 47.1191 45.377C47.1191 43.0596 45.9502 41.6309 44.1113 41.6309ZM43.5918 47.7217C42.5322 47.7217 41.8281 46.7988 41.8213 45.377C41.8281 43.9688 42.5322 43.0322 43.5918 43.0322C44.6924 43.0322 45.376 43.9482 45.376 45.377C45.376 46.8125 44.6924 47.7217 43.5918 47.7217ZM50.3457 49.1162C51.2754 49.1162 52.1846 48.6309 52.6016 47.8447H52.6357V49H54.2764V44.0098C54.2764 42.5537 53.1074 41.6035 51.3096 41.6035C49.4639 41.6035 48.3086 42.5742 48.2334 43.9277H49.8125C49.9219 43.3262 50.4346 42.9365 51.2412 42.9365C52.082 42.9365 52.5947 43.374 52.5947 44.1328V44.6523L50.6807 44.7617C48.917 44.8711 47.9258 45.6436 47.9258 46.9287C47.9258 48.2344 48.9443 49.1162 50.3457 49.1162ZM50.8584 47.8311C50.1201 47.8311 49.6279 47.4551 49.6279 46.8604C49.6279 46.2861 50.0996 45.917 50.9199 45.8623L52.5947 45.7598V46.3135C52.5947 47.1885 51.8223 47.8311 50.8584 47.8311ZM55.6504 49H57.3525V44.8027C57.3525 43.7637 57.9746 43.0596 58.9521 43.0596C59.9229 43.0596 60.4014 43.6338 60.4014 44.6592V49H62.1035V44.3174C62.1035 42.6426 61.1943 41.6172 59.5947 41.6172C58.4805 41.6172 57.708 42.1367 57.3184 42.998H57.2842V41.7539H55.6504V49ZM64.2568 51.6934C65.9111 51.6934 66.7109 51.085 67.3262 49.2871L69.9512 41.7539H68.1602L66.4512 47.5508H66.417L64.7148 41.7539H62.8555L65.4326 49.0068C65.4395 49.0273 65.3301 49.3896 65.3301 49.4102C65.1455 50.0801 64.7832 50.3467 64.0791 50.3467C63.9766 50.3467 63.6758 50.3398 63.5869 50.3193V51.666C63.6758 51.6865 64.1543 51.6934 64.2568 51.6934ZM79.9727 47.5098H75.4951V39.1357H73.7314V49H79.9727V47.5098ZM84.1357 49.1436C86.2617 49.1436 87.6426 47.7285 87.6426 45.377C87.6426 43.0322 86.248 41.6035 84.1357 41.6035C82.0234 41.6035 80.6289 43.0391 80.6289 45.377C80.6289 47.7285 82.0098 49.1436 84.1357 49.1436ZM84.1357 47.7969C83.0557 47.7969 82.3584 46.9219 82.3584 45.377C82.3584 43.8389 83.0625 42.957 84.1357 42.957C85.2158 42.957 85.9131 43.8389 85.9131 45.377C85.9131 46.9219 85.2158 47.7969 84.1357 47.7969ZM91.9287 51.7344C94.041 51.7344 95.4287 50.6133 95.4287 48.8838V41.7539H93.7607V42.998H93.7334C93.3164 42.1641 92.4824 41.6309 91.4502 41.6309C89.5977 41.6309 88.4355 43.0596 88.4355 45.3496C88.4355 47.6055 89.625 49.0068 91.416 49.0068C92.4551 49.0068 93.3096 48.4873 93.6855 47.708H93.7266V48.9316C93.7266 49.8545 93.0908 50.4766 91.9834 50.4766C91.1768 50.4766 90.5547 50.1006 90.3701 49.5469H88.6816C88.8525 50.8184 90.1377 51.7344 91.9287 51.7344ZM91.9355 47.6533C90.8623 47.6533 90.1787 46.792 90.1787 45.3564C90.1787 43.9346 90.8623 43.0322 91.9355 43.0322C93.0225 43.0322 93.7266 43.9482 93.7266 45.3564C93.7266 46.7715 93.0225 47.6533 91.9355 47.6533ZM100.022 49.1436C102.148 49.1436 103.529 47.7285 103.529 45.377C103.529 43.0322 102.135 41.6035 100.022 41.6035C97.9102 41.6035 96.5156 43.0391 96.5156 45.377C96.5156 47.7285 97.8965 49.1436 100.022 49.1436ZM100.022 47.7969C98.9424 47.7969 98.2451 46.9219 98.2451 45.377C98.2451 43.8389 98.9492 42.957 100.022 42.957C101.103 42.957 101.8 43.8389 101.8 45.377C101.8 46.9219 101.103 47.7969 100.022 47.7969Z" fill="#FF6F65"/>
<path d="M66.5312 5.95745L64.1482 0H49.8503L47.4673 5.95745H41.9859C40.736 5.95745 39.7227 6.97081 39.7227 8.22068V25.7165C39.7227 26.9777 40.745 28 42.0061 28H71.9918C73.253 28 74.2753 26.9777 74.2753 25.7165V8.22068C74.2753 6.97081 73.2619 5.95745 72.012 5.95745H66.5312Z" fill="#FF6F65"/>
<path d="M57 22C60.866 22 64 18.866 64 15C64 11.134 60.866 8 57 8C53.134 8 50 11.134 50 15C50 18.866 53.134 22 57 22Z" fill="#F1F2F3"/>
<path d="M45.6799 2.97852H43.2969V5.95724H45.6799V2.97852Z" fill="#FF6F65"/>
<path d="M70.1056 11.9143C71.0927 11.9143 71.8928 11.1141 71.8928 10.1271C71.8928 9.14002 71.0927 8.33984 70.1056 8.33984C69.1185 8.33984 68.3184 9.14002 68.3184 10.1271C68.3184 11.1141 69.1185 11.9143 70.1056 11.9143Z" fill="#F1F2F3"/>
<path d="M2.55664 55.1797L4.8125 61.1738L7.06299 55.1797H8.81934V63H7.46582V60.4219L7.6001 56.9736L5.29053 63H4.31836L2.01416 56.979L2.14844 60.4219V63H0.794922V55.1797H2.55664ZM13.8252 62.4307C13.4421 62.8818 12.8978 63.1074 12.1924 63.1074C11.5622 63.1074 11.0841 62.923 10.7583 62.5542C10.436 62.1854 10.2749 61.6519 10.2749 60.9536V57.1885H11.5801V60.9375C11.5801 61.6751 11.8862 62.0439 12.4985 62.0439C13.1323 62.0439 13.5602 61.8166 13.7822 61.3618V57.1885H15.0874V63H13.8574L13.8252 62.4307ZM19.6743 61.4209C19.6743 61.1882 19.5776 61.0109 19.3843 60.8892C19.1945 60.7674 18.8776 60.66 18.4336 60.5669C17.9896 60.4738 17.619 60.3556 17.3218 60.2124C16.6701 59.8973 16.3442 59.4408 16.3442 58.8428C16.3442 58.3415 16.5555 57.9225 16.978 57.5859C17.4006 57.2493 17.9377 57.0811 18.5894 57.0811C19.284 57.0811 19.8444 57.2529 20.2705 57.5967C20.7002 57.9404 20.915 58.3862 20.915 58.9341H19.6099C19.6099 58.6834 19.5168 58.4757 19.3306 58.311C19.1444 58.1427 18.8973 58.0586 18.5894 58.0586C18.3029 58.0586 18.0684 58.1248 17.8857 58.2573C17.7067 58.3898 17.6172 58.5671 17.6172 58.7891C17.6172 58.9896 17.7013 59.1453 17.8696 59.2563C18.0379 59.3674 18.3781 59.4801 18.8901 59.5947C19.4022 59.7057 19.8032 59.84 20.0933 59.9976C20.3869 60.1515 20.6035 60.3377 20.7432 60.5562C20.8864 60.7746 20.958 61.0396 20.958 61.3511C20.958 61.8739 20.7414 62.2982 20.3081 62.624C19.8748 62.9463 19.3073 63.1074 18.6055 63.1074C18.1292 63.1074 17.7049 63.0215 17.3325 62.8496C16.9601 62.6777 16.6701 62.4414 16.4624 62.1406C16.2547 61.8398 16.1509 61.5158 16.1509 61.1685H17.4185C17.4364 61.4764 17.5527 61.7145 17.7676 61.8828C17.9824 62.0475 18.2671 62.1299 18.6216 62.1299C18.9653 62.1299 19.2267 62.0654 19.4058 61.9365C19.5848 61.804 19.6743 61.6322 19.6743 61.4209ZM23.7349 55.7759V57.1885H24.7607V58.1553H23.7349V61.3994C23.7349 61.6214 23.7778 61.7826 23.8638 61.8828C23.9533 61.9795 24.1108 62.0278 24.3364 62.0278C24.4868 62.0278 24.639 62.0099 24.793 61.9741V62.9839C24.4958 63.0662 24.2093 63.1074 23.9336 63.1074C22.931 63.1074 22.4297 62.5542 22.4297 61.4478V58.1553H21.4736V57.1885H22.4297V55.7759H23.7349ZM33.6016 60.1533C33.6016 61.0557 33.3993 61.7736 32.9946 62.3071C32.5936 62.8407 32.0404 63.1074 31.335 63.1074C30.6546 63.1074 30.1247 62.8621 29.7451 62.3716L29.6807 63H28.499V54.75H29.8042V57.7471C30.1802 57.3031 30.6868 57.0811 31.3242 57.0811C32.0332 57.0811 32.59 57.3442 32.9946 57.8706C33.3993 58.397 33.6016 59.1328 33.6016 60.0781V60.1533ZM32.2964 60.0405C32.2964 59.4103 32.1854 58.9377 31.9634 58.6226C31.7414 58.3075 31.4191 58.1499 30.9966 58.1499C30.4308 58.1499 30.0334 58.397 29.8042 58.8911V61.2866C30.0369 61.7915 30.438 62.0439 31.0073 62.0439C31.4155 62.0439 31.7306 61.8918 31.9526 61.5874C32.1746 61.283 32.2892 60.8229 32.2964 60.207V60.0405ZM37.2593 63.1074C36.4321 63.1074 35.7607 62.8478 35.2451 62.3286C34.7331 61.8058 34.4771 61.1112 34.4771 60.2446V60.0835C34.4771 59.5034 34.5881 58.986 34.8101 58.5312C35.0356 58.0729 35.3507 57.7166 35.7554 57.4624C36.16 57.2082 36.6112 57.0811 37.1089 57.0811C37.9002 57.0811 38.5107 57.3335 38.9404 57.8384C39.3737 58.3433 39.5903 59.0576 39.5903 59.9814V60.5078H35.793C35.8324 60.9876 35.9917 61.3672 36.271 61.6465C36.5539 61.9258 36.9084 62.0654 37.3345 62.0654C37.9325 62.0654 38.4194 61.8237 38.7954 61.3403L39.499 62.0117C39.2663 62.359 38.9548 62.6294 38.5645 62.8228C38.1777 63.0125 37.7427 63.1074 37.2593 63.1074ZM37.1035 58.1284C36.7454 58.1284 36.4554 58.2537 36.2334 58.5044C36.015 58.755 35.8753 59.1042 35.8145 59.5518H38.3013V59.4551C38.2726 59.0182 38.1562 58.6888 37.9521 58.4668C37.748 58.2412 37.4652 58.1284 37.1035 58.1284ZM46.6748 55.1797H48.0283V60.6636C48.0283 61.4119 47.7938 62.0063 47.3247 62.4468C46.8592 62.8872 46.2433 63.1074 45.4771 63.1074C44.6606 63.1074 44.0304 62.9015 43.5864 62.4897C43.1424 62.078 42.9204 61.505 42.9204 60.771H44.2739C44.2739 61.1864 44.376 61.4997 44.5801 61.7109C44.7878 61.9186 45.0868 62.0225 45.4771 62.0225C45.8423 62.0225 46.1323 61.9025 46.3472 61.6626C46.5656 61.4191 46.6748 61.0843 46.6748 60.6582V55.1797ZM54.5488 60.1533C54.5488 61.0521 54.3447 61.77 53.9365 62.3071C53.5283 62.8407 52.9805 63.1074 52.293 63.1074C51.6556 63.1074 51.1453 62.8979 50.7622 62.479V65.2344H49.457V57.1885H50.6602L50.7139 57.7793C51.097 57.3138 51.618 57.0811 52.2769 57.0811C52.9858 57.0811 53.5409 57.346 53.9419 57.876C54.3465 58.4023 54.5488 59.1346 54.5488 60.0728V60.1533ZM53.249 60.0405C53.249 59.4604 53.1326 59.0003 52.8999 58.6602C52.6707 58.32 52.3413 58.1499 51.9116 58.1499C51.3781 58.1499 50.995 58.3701 50.7622 58.8105V61.3887C50.9985 61.8398 51.3853 62.0654 51.9224 62.0654C52.3377 62.0654 52.6618 61.8989 52.8945 61.5659C53.1309 61.2293 53.249 60.7209 53.249 60.0405ZM55.4297 60.0513C55.4297 59.1489 55.641 58.4292 56.0635 57.8921C56.4896 57.3514 57.0535 57.0811 57.7554 57.0811C58.4178 57.0811 58.9388 57.312 59.3184 57.7739L59.3774 57.1885H60.5537V62.8228C60.5537 63.5854 60.3156 64.187 59.8394 64.6274C59.3667 65.0679 58.7275 65.2881 57.9219 65.2881C57.4958 65.2881 57.0786 65.1986 56.6704 65.0195C56.2658 64.8441 55.9578 64.6131 55.7466 64.3267L56.3643 63.5425C56.7653 64.0187 57.2594 64.2568 57.8467 64.2568C58.2799 64.2568 58.6219 64.1387 58.8726 63.9023C59.1232 63.6696 59.2485 63.3258 59.2485 62.8711V62.479C58.8726 62.8979 58.3713 63.1074 57.7446 63.1074C57.0643 63.1074 56.5075 62.8371 56.0742 62.2964C55.6445 61.7557 55.4297 61.0073 55.4297 60.0513ZM56.7295 60.1641C56.7295 60.7477 56.8477 61.2078 57.084 61.5444C57.3239 61.8774 57.6551 62.0439 58.0776 62.0439C58.604 62.0439 58.9943 61.8184 59.2485 61.3672V58.8105C59.0015 58.3701 58.6147 58.1499 58.0884 58.1499C57.6587 58.1499 57.3239 58.32 57.084 58.6602C56.8477 59.0003 56.7295 59.5016 56.7295 60.1641ZM62.0845 64.7617L61.3809 64.3428C61.5885 64.0169 61.73 63.7323 61.8052 63.4888C61.884 63.2489 61.9251 63.0036 61.9287 62.7529V61.7378H63.105L63.0996 62.6777C63.096 63.0573 62.9993 63.4368 62.8096 63.8164C62.6234 64.1995 62.3817 64.5146 62.0845 64.7617ZM72.1445 60.1533C72.1445 61.0521 71.9404 61.77 71.5322 62.3071C71.124 62.8407 70.5762 63.1074 69.8887 63.1074C69.2513 63.1074 68.741 62.8979 68.3579 62.479V65.2344H67.0527V57.1885H68.2559L68.3096 57.7793C68.6927 57.3138 69.2137 57.0811 69.8726 57.0811C70.5815 57.0811 71.1366 57.346 71.5376 57.876C71.9422 58.4023 72.1445 59.1346 72.1445 60.0728V60.1533ZM70.8447 60.0405C70.8447 59.4604 70.7284 59.0003 70.4956 58.6602C70.2664 58.32 69.937 58.1499 69.5073 58.1499C68.9738 58.1499 68.5907 58.3701 68.3579 58.8105V61.3887C68.5942 61.8398 68.981 62.0654 69.5181 62.0654C69.9334 62.0654 70.2575 61.8989 70.4902 61.5659C70.7266 61.2293 70.8447 60.7209 70.8447 60.0405ZM74.4648 57.1885L74.5024 57.8599C74.9321 57.3407 75.4961 57.0811 76.1943 57.0811C77.4046 57.0811 78.0205 57.7739 78.042 59.1597V63H76.7368V59.2349C76.7368 58.866 76.6562 58.5939 76.4951 58.4185C76.3376 58.2394 76.078 58.1499 75.7163 58.1499C75.1899 58.1499 74.7979 58.388 74.54 58.8643V63H73.2349V57.1885H74.4648ZM79.1484 60.0513C79.1484 59.1489 79.3597 58.4292 79.7822 57.8921C80.2083 57.3514 80.7723 57.0811 81.4741 57.0811C82.1366 57.0811 82.6576 57.312 83.0371 57.7739L83.0962 57.1885H84.2725V62.8228C84.2725 63.5854 84.0343 64.187 83.5581 64.6274C83.0854 65.0679 82.4463 65.2881 81.6406 65.2881C81.2145 65.2881 80.7974 65.1986 80.3892 65.0195C79.9845 64.8441 79.6766 64.6131 79.4653 64.3267L80.083 63.5425C80.484 64.0187 80.9782 64.2568 81.5654 64.2568C81.9987 64.2568 82.3407 64.1387 82.5913 63.9023C82.842 63.6696 82.9673 63.3258 82.9673 62.8711V62.479C82.5913 62.8979 82.09 63.1074 81.4634 63.1074C80.783 63.1074 80.2262 62.8371 79.793 62.2964C79.3633 61.7557 79.1484 61.0073 79.1484 60.0513ZM80.4482 60.1641C80.4482 60.7477 80.5664 61.2078 80.8027 61.5444C81.0426 61.8774 81.3739 62.0439 81.7964 62.0439C82.3228 62.0439 82.7131 61.8184 82.9673 61.3672V58.8105C82.7202 58.3701 82.3335 58.1499 81.8071 58.1499C81.3774 58.1499 81.0426 58.32 80.8027 58.6602C80.5664 59.0003 80.4482 59.5016 80.4482 60.1641ZM85.8032 64.7617L85.0996 64.3428C85.3073 64.0169 85.4487 63.7323 85.5239 63.4888C85.6027 63.2489 85.6439 63.0036 85.6475 62.7529V61.7378H86.8237L86.8184 62.6777C86.8148 63.0573 86.7181 63.4368 86.5283 63.8164C86.3421 64.1995 86.1004 64.5146 85.8032 64.7617ZM90.5298 60.0405C90.5298 59.4712 90.6426 58.9591 90.8682 58.5044C91.0938 58.0461 91.4106 57.6951 91.8188 57.4517C92.2271 57.2046 92.6961 57.0811 93.2261 57.0811C94.0103 57.0811 94.6458 57.3335 95.1328 57.8384C95.6234 58.3433 95.8883 59.0129 95.9277 59.8472L95.9331 60.1533C95.9331 60.7262 95.8221 61.2383 95.6001 61.6895C95.3817 62.1406 95.0666 62.4897 94.6548 62.7368C94.2466 62.9839 93.7739 63.1074 93.2368 63.1074C92.4168 63.1074 91.7598 62.8353 91.2656 62.291C90.7751 61.7432 90.5298 61.0145 90.5298 60.105V60.0405ZM91.835 60.1533C91.835 60.7513 91.9585 61.2204 92.2056 61.5605C92.4526 61.8971 92.7964 62.0654 93.2368 62.0654C93.6772 62.0654 94.0192 61.8936 94.2627 61.5498C94.5098 61.2061 94.6333 60.703 94.6333 60.0405C94.6333 59.4533 94.5062 58.9878 94.252 58.644C94.0013 58.3003 93.6593 58.1284 93.2261 58.1284C92.8 58.1284 92.4616 58.2985 92.2109 58.6387C91.9603 58.9753 91.835 59.4801 91.835 60.1533ZM100.08 58.3809C99.9077 58.3522 99.7305 58.3379 99.5479 58.3379C98.9499 58.3379 98.547 58.5671 98.3394 59.0254V63H97.0342V57.1885H98.2803L98.3125 57.8384C98.6276 57.3335 99.0645 57.0811 99.623 57.0811C99.8092 57.0811 99.9632 57.1061 100.085 57.1562L100.08 58.3809ZM106.901 61.4209C106.901 61.1882 106.804 61.0109 106.611 60.8892C106.421 60.7674 106.104 60.66 105.66 60.5669C105.216 60.4738 104.846 60.3556 104.548 60.2124C103.897 59.8973 103.571 59.4408 103.571 58.8428C103.571 58.3415 103.782 57.9225 104.205 57.5859C104.627 57.2493 105.164 57.0811 105.816 57.0811C106.511 57.0811 107.071 57.2529 107.497 57.5967C107.927 57.9404 108.142 58.3862 108.142 58.9341H106.836C106.836 58.6834 106.743 58.4757 106.557 58.311C106.371 58.1427 106.124 58.0586 105.816 58.0586C105.529 58.0586 105.295 58.1248 105.112 58.2573C104.933 58.3898 104.844 58.5671 104.844 58.7891C104.844 58.9896 104.928 59.1453 105.096 59.2563C105.264 59.3674 105.605 59.4801 106.117 59.5947C106.629 59.7057 107.03 59.84 107.32 59.9976C107.613 60.1515 107.83 60.3377 107.97 60.5562C108.113 60.7746 108.185 61.0396 108.185 61.3511C108.185 61.8739 107.968 62.2982 107.535 62.624C107.101 62.9463 106.534 63.1074 105.832 63.1074C105.356 63.1074 104.931 63.0215 104.559 62.8496C104.187 62.6777 103.897 62.4414 103.689 62.1406C103.481 61.8398 103.377 61.5158 103.377 61.1685H104.645C104.663 61.4764 104.779 61.7145 104.994 61.8828C105.209 62.0475 105.494 62.1299 105.848 62.1299C106.192 62.1299 106.453 62.0654 106.632 61.9365C106.811 61.804 106.901 61.6322 106.901 61.4209ZM111.375 61.3457L112.605 57.1885H113.953L111.939 63H110.806L108.775 57.1885H110.129L111.375 61.3457ZM114.469 60.0513C114.469 59.1489 114.68 58.4292 115.103 57.8921C115.529 57.3514 116.093 57.0811 116.794 57.0811C117.457 57.0811 117.978 57.312 118.357 57.7739L118.417 57.1885H119.593V62.8228C119.593 63.5854 119.355 64.187 118.878 64.6274C118.406 65.0679 117.767 65.2881 116.961 65.2881C116.535 65.2881 116.118 65.1986 115.709 65.0195C115.305 64.8441 114.997 64.6131 114.786 64.3267L115.403 63.5425C115.804 64.0187 116.299 64.2568 116.886 64.2568C117.319 64.2568 117.661 64.1387 117.912 63.9023C118.162 63.6696 118.288 63.3258 118.288 62.8711V62.479C117.912 62.8979 117.41 63.1074 116.784 63.1074C116.103 63.1074 115.547 62.8371 115.113 62.2964C114.684 61.7557 114.469 61.0073 114.469 60.0513ZM115.769 60.1641C115.769 60.7477 115.887 61.2078 116.123 61.5444C116.363 61.8774 116.694 62.0439 117.117 62.0439C117.643 62.0439 118.033 61.8184 118.288 61.3672V58.8105C118.041 58.3701 117.654 58.1499 117.127 58.1499C116.698 58.1499 116.363 58.32 116.123 58.6602C115.887 59.0003 115.769 59.5016 115.769 60.1641Z" fill="#FF6F65"/>
</svg>
